<svg width="228" height="198" viewBox="0 0 228 198" fill="none" xmlns="http://www.w3.org/2000/svg">
<path d="M21.0979 171.968C21.0179 171.968 20.9499 171.944 20.8939 171.896C20.8459 171.84 20.8219 171.772 20.8219 171.692V163.856C20.8219 163.768 20.8459 163.7 20.8939 163.652C20.9499 163.596 21.0179 163.568 21.0979 163.568H24.3859C25.2419 163.568 25.8859 163.772 26.3179 164.18C26.7499 164.588 26.9659 165.124 26.9659 165.788C26.9659 166.236 26.8619 166.608 26.6539 166.904C26.4539 167.2 26.2139 167.416 25.9339 167.552C26.2699 167.72 26.5539 167.98 26.7859 168.332C27.0179 168.684 27.1339 169.088 27.1339 169.544C27.1339 169.992 27.0299 170.4 26.8219 170.768C26.6219 171.136 26.3219 171.428 25.9219 171.644C25.5219 171.86 25.0419 171.968 24.4819 171.968H21.0979ZM24.2059 167.12C24.7099 167.12 25.0939 167.004 25.3579 166.772C25.6299 166.54 25.7659 166.216 25.7659 165.8C25.7659 165.392 25.6339 165.08 25.3699 164.864C25.1059 164.648 24.7179 164.54 24.2059 164.54H21.9979V167.12H24.2059ZM24.3259 170.996C24.8299 170.996 25.2219 170.86 25.5019 170.588C25.7899 170.316 25.9339 169.968 25.9339 169.544C25.9339 169.104 25.7899 168.752 25.5019 168.488C25.2219 168.216 24.8299 168.08 24.3259 168.08H21.9979V170.996H24.3259ZM29.9175 171.968C29.8375 171.968 29.7695 171.944 29.7135 171.896C29.6655 171.84 29.6415 171.772 29.6415 171.692V166.016C29.6415 165.936 29.6655 165.868 29.7135 165.812C29.7695 165.756 29.8375 165.728 29.9175 165.728H30.4695C30.5495 165.728 30.6175 165.756 30.6735 165.812C30.7295 165.868 30.7575 165.936 30.7575 166.016V166.544C31.0855 166 31.6455 165.728 32.4375 165.728H32.9055C32.9855 165.728 33.0495 165.756 33.0975 165.812C33.1535 165.86 33.1815 165.924 33.1815 166.004V166.496C33.1815 166.576 33.1535 166.64 33.0975 166.688C33.0495 166.736 32.9855 166.76 32.9055 166.76H32.1855C31.7535 166.76 31.4135 166.888 31.1655 167.144C30.9175 167.392 30.7935 167.732 30.7935 168.164V171.692C30.7935 171.772 30.7655 171.84 30.7095 171.896C30.6535 171.944 30.5855 171.968 30.5055 171.968H29.9175ZM35.3401 164.564C35.2601 164.564 35.1921 164.54 35.1361 164.492C35.0881 164.436 35.0641 164.368 35.0641 164.288V163.64C35.0641 163.56 35.0881 163.492 35.1361 163.436C35.1921 163.38 35.2601 163.352 35.3401 163.352H36.0961C36.1761 163.352 36.2441 163.38 36.3001 163.436C36.3561 163.492 36.3841 163.56 36.3841 163.64V164.288C36.3841 164.368 36.3561 164.436 36.3001 164.492C36.2441 164.54 36.1761 164.564 36.0961 164.564H35.3401ZM35.4361 171.968C35.3561 171.968 35.2881 171.944 35.2321 171.896C35.1841 171.84 35.1601 171.772 35.1601 171.692V166.004C35.1601 165.924 35.1841 165.86 35.2321 165.812C35.2881 165.756 35.3561 165.728 35.4361 165.728H36.0121C36.0921 165.728 36.1561 165.756 36.2041 165.812C36.2601 165.86 36.2881 165.924 36.2881 166.004V171.692C36.2881 171.772 36.2601 171.84 36.2041 171.896C36.1561 171.944 36.0921 171.968 36.0121 171.968H35.4361ZM39.3024 171.968C39.2224 171.968 39.1544 171.944 39.0984 171.896C39.0504 171.84 39.0264 171.772 39.0264 171.692V166.004C39.0264 165.924 39.0504 165.86 39.0984 165.812C39.1544 165.756 39.2224 165.728 39.3024 165.728H39.8664C39.9464 165.728 40.0104 165.756 40.0584 165.812C40.1144 165.86 40.1424 165.924 40.1424 166.004V166.532C40.3744 166.236 40.6464 166.008 40.9584 165.848C41.2784 165.688 41.6744 165.608 42.1464 165.608C42.9144 165.608 43.5104 165.856 43.9344 166.352C44.3664 166.84 44.5824 167.492 44.5824 168.308V171.692C44.5824 171.772 44.5544 171.84 44.4984 171.896C44.4504 171.944 44.3864 171.968 44.3064 171.968H43.7064C43.6264 171.968 43.5584 171.944 43.5024 171.896C43.4544 171.84 43.4304 171.772 43.4304 171.692V168.368C43.4304 167.8 43.2904 167.36 43.0104 167.048C42.7384 166.736 42.3424 166.58 41.8224 166.58C41.3184 166.58 40.9184 166.74 40.6224 167.06C40.3264 167.372 40.1784 167.808 40.1784 168.368V171.692C40.1784 171.772 40.1504 171.84 40.0944 171.896C40.0464 171.944 39.9824 171.968 39.9024 171.968H39.3024ZM49.8197 174.608C49.1637 174.608 48.6357 174.496 48.2357 174.272C47.8357 174.056 47.5517 173.808 47.3837 173.528C47.2157 173.248 47.1237 172.996 47.1077 172.772C47.0997 172.692 47.1237 172.624 47.1797 172.568C47.2437 172.512 47.3117 172.484 47.3837 172.484H47.9597C48.0317 172.484 48.0917 172.5 48.1397 172.532C48.1877 172.572 48.2277 172.64 48.2597 172.736C48.3557 172.992 48.5117 173.212 48.7277 173.396C48.9517 173.588 49.2957 173.684 49.7597 173.684C50.3517 173.684 50.7877 173.556 51.0677 173.3C51.3477 173.052 51.4877 172.608 51.4877 171.968V171.152C51.2797 171.416 51.0157 171.628 50.6957 171.788C50.3757 171.94 49.9957 172.016 49.5557 172.016C48.7077 172.016 48.0717 171.748 47.6477 171.212C47.2317 170.668 47.0117 169.98 46.9877 169.148L46.9757 168.812L46.9877 168.488C47.0117 167.664 47.2357 166.98 47.6597 166.436C48.0837 165.884 48.7157 165.608 49.5557 165.608C50.3957 165.608 51.0517 165.916 51.5237 166.532V166.016C51.5237 165.936 51.5477 165.868 51.5957 165.812C51.6517 165.756 51.7197 165.728 51.7997 165.728H52.3517C52.4317 165.728 52.4997 165.756 52.5557 165.812C52.6117 165.868 52.6397 165.936 52.6397 166.016V171.836C52.6397 173.684 51.6997 174.608 49.8197 174.608ZM49.7957 171.056C50.3397 171.056 50.7517 170.876 51.0317 170.516C51.3117 170.156 51.4637 169.728 51.4877 169.232C51.4957 169.16 51.4997 169.02 51.4997 168.812C51.4997 168.612 51.4957 168.476 51.4877 168.404C51.4637 167.908 51.3117 167.48 51.0317 167.12C50.7597 166.76 50.3477 166.58 49.7957 166.58C49.2277 166.58 48.8157 166.756 48.5597 167.108C48.3037 167.46 48.1637 167.924 48.1397 168.5L48.1277 168.812L48.1397 169.136C48.1637 169.704 48.3037 170.168 48.5597 170.528C48.8157 170.88 49.2277 171.056 49.7957 171.056ZM55.5639 164.564C55.4839 164.564 55.4159 164.54 55.3599 164.492C55.3119 164.436 55.2879 164.368 55.2879 164.288V163.64C55.2879 163.56 55.3119 163.492 55.3599 163.436C55.4159 163.38 55.4839 163.352 55.5639 163.352H56.3199C56.3999 163.352 56.4679 163.38 56.5239 163.436C56.5799 163.492 56.6079 163.56 56.6079 163.64V164.288C56.6079 164.368 56.5799 164.436 56.5239 164.492C56.4679 164.54 56.3999 164.564 56.3199 164.564H55.5639ZM55.6599 171.968C55.5799 171.968 55.5119 171.944 55.4559 171.896C55.4079 171.84 55.3839 171.772 55.3839 171.692V166.004C55.3839 165.924 55.4079 165.86 55.4559 165.812C55.5119 165.756 55.5799 165.728 55.6599 165.728H56.2359C56.3159 165.728 56.3799 165.756 56.4279 165.812C56.4839 165.86 56.5119 165.924 56.5119 166.004V171.692C56.5119 171.772 56.4839 171.84 56.4279 171.896C56.3799 171.944 56.3159 171.968 56.2359 171.968H55.6599ZM59.5261 171.968C59.4461 171.968 59.3781 171.944 59.3221 171.896C59.2741 171.84 59.2501 171.772 59.2501 171.692V166.004C59.2501 165.924 59.2741 165.86 59.3221 165.812C59.3781 165.756 59.4461 165.728 59.5261 165.728H60.0901C60.1701 165.728 60.2341 165.756 60.2821 165.812C60.3381 165.86 60.3661 165.924 60.3661 166.004V166.532C60.5981 166.236 60.8701 166.008 61.1821 165.848C61.5021 165.688 61.8981 165.608 62.3701 165.608C63.1381 165.608 63.7341 165.856 64.1581 166.352C64.5901 166.84 64.8061 167.492 64.8061 168.308V171.692C64.8061 171.772 64.7781 171.84 64.7221 171.896C64.6741 171.944 64.6101 171.968 64.5301 171.968H63.9301C63.8501 171.968 63.7821 171.944 63.7261 171.896C63.6781 171.84 63.6541 171.772 63.6541 171.692V168.368C63.6541 167.8 63.5141 167.36 63.2341 167.048C62.9621 166.736 62.5661 166.58 62.0461 166.58C61.5421 166.58 61.1421 166.74 60.8461 167.06C60.5501 167.372 60.4021 167.808 60.4021 168.368V171.692C60.4021 171.772 60.3741 171.84 60.3181 171.896C60.2701 171.944 60.2061 171.968 60.1261 171.968H59.5261ZM70.0435 174.608C69.3875 174.608 68.8595 174.496 68.4595 174.272C68.0595 174.056 67.7755 173.808 67.6075 173.528C67.4395 173.248 67.3475 172.996 67.3315 172.772C67.3235 172.692 67.3475 172.624 67.4035 172.568C67.4675 172.512 67.5355 172.484 67.6075 172.484H68.1835C68.2555 172.484 68.3155 172.5 68.3635 172.532C68.4115 172.572 68.4515 172.64 68.4835 172.736C68.5795 172.992 68.7355 173.212 68.9515 173.396C69.1755 173.588 69.5195 173.684 69.9835 173.684C70.5755 173.684 71.0115 173.556 71.2915 173.3C71.5715 173.052 71.7115 172.608 71.7115 171.968V171.152C71.5035 171.416 71.2395 171.628 70.9195 171.788C70.5995 171.94 70.2195 172.016 69.7795 172.016C68.9315 172.016 68.2955 171.748 67.8715 171.212C67.4555 170.668 67.2355 169.98 67.2115 169.148L67.1995 168.812L67.2115 168.488C67.2355 167.664 67.4595 166.98 67.8835 166.436C68.3075 165.884 68.9395 165.608 69.7795 165.608C70.6195 165.608 71.2755 165.916 71.7475 166.532V166.016C71.7475 165.936 71.7715 165.868 71.8195 165.812C71.8755 165.756 71.9435 165.728 72.0235 165.728H72.5755C72.6555 165.728 72.7235 165.756 72.7795 165.812C72.8355 165.868 72.8635 165.936 72.8635 166.016V171.836C72.8635 173.684 71.9235 174.608 70.0435 174.608ZM70.0195 171.056C70.5635 171.056 70.9755 170.876 71.2555 170.516C71.5355 170.156 71.6875 169.728 71.7115 169.232C71.7195 169.16 71.7235 169.02 71.7235 168.812C71.7235 168.612 71.7195 168.476 71.7115 168.404C71.6875 167.908 71.5355 167.48 71.2555 167.12C70.9835 166.76 70.5715 166.58 70.0195 166.58C69.4515 166.58 69.0395 166.756 68.7835 167.108C68.5275 167.46 68.3875 167.924 68.3635 168.5L68.3515 168.812L68.3635 169.136C68.3875 169.704 68.5275 170.168 68.7835 170.528C69.0395 170.88 69.4515 171.056 70.0195 171.056ZM79.797 174.248C79.717 174.248 79.649 174.22 79.593 174.164C79.545 174.116 79.521 174.052 79.521 173.972V166.004C79.521 165.924 79.545 165.86 79.593 165.812C79.649 165.756 79.717 165.728 79.797 165.728H80.349C80.429 165.728 80.493 165.756 80.541 165.812C80.597 165.86 80.625 165.924 80.625 166.004V166.532C81.073 165.916 81.729 165.608 82.593 165.608C83.433 165.608 84.061 165.872 84.477 166.4C84.901 166.928 85.129 167.608 85.161 168.44C85.169 168.528 85.173 168.664 85.173 168.848C85.173 169.032 85.169 169.168 85.161 169.256C85.129 170.08 84.901 170.76 84.477 171.296C84.053 171.824 83.425 172.088 82.593 172.088C81.761 172.088 81.113 171.788 80.649 171.188V173.972C80.649 174.052 80.625 174.116 80.577 174.164C80.529 174.22 80.465 174.248 80.385 174.248H79.797ZM82.341 171.116C82.909 171.116 83.321 170.94 83.577 170.588C83.841 170.236 83.985 169.772 84.009 169.196C84.017 169.116 84.021 169 84.021 168.848C84.021 167.336 83.461 166.58 82.341 166.58C81.789 166.58 81.373 166.764 81.093 167.132C80.821 167.492 80.673 167.924 80.649 168.428L80.637 168.884L80.649 169.352C80.665 169.824 80.817 170.236 81.105 170.588C81.393 170.94 81.805 171.116 82.341 171.116ZM87.8935 171.968C87.8135 171.968 87.7455 171.944 87.6895 171.896C87.6415 171.84 87.6175 171.772 87.6175 171.692V166.016C87.6175 165.936 87.6415 165.868 87.6895 165.812C87.7455 165.756 87.8135 165.728 87.8935 165.728H88.4455C88.5255 165.728 88.5935 165.756 88.6495 165.812C88.7055 165.868 88.7335 165.936 88.7335 166.016V166.544C89.0615 166 89.6215 165.728 90.4135 165.728H90.8815C90.9615 165.728 91.0255 165.756 91.0735 165.812C91.1295 165.86 91.1575 165.924 91.1575 166.004V166.496C91.1575 166.576 91.1295 166.64 91.0735 166.688C91.0255 166.736 90.9615 166.76 90.8815 166.76H90.1615C89.7295 166.76 89.3895 166.888 89.1415 167.144C88.8935 167.392 88.7695 167.732 88.7695 168.164V171.692C88.7695 171.772 88.7415 171.84 88.6855 171.896C88.6295 171.944 88.5615 171.968 88.4815 171.968H87.8935ZM95.5149 172.088C94.6909 172.088 94.0309 171.836 93.5349 171.332C93.0469 170.82 92.7789 170.124 92.7309 169.244L92.7189 168.836L92.7309 168.44C92.7869 167.576 93.0589 166.888 93.5469 166.376C94.0429 165.864 94.6949 165.608 95.5029 165.608C96.3909 165.608 97.0789 165.892 97.5669 166.46C98.0549 167.02 98.2989 167.78 98.2989 168.74V168.944C98.2989 169.024 98.2709 169.092 98.2149 169.148C98.1669 169.196 98.1029 169.22 98.0229 169.22H93.8709V169.328C93.8949 169.848 94.0509 170.292 94.3389 170.66C94.6349 171.02 95.0229 171.2 95.5029 171.2C95.8709 171.2 96.1709 171.128 96.4029 170.984C96.6429 170.832 96.8189 170.676 96.9309 170.516C97.0029 170.42 97.0549 170.364 97.0869 170.348C97.1269 170.324 97.1949 170.312 97.2909 170.312H97.8789C97.9509 170.312 98.0109 170.332 98.0589 170.372C98.1069 170.412 98.1309 170.468 98.1309 170.54C98.1309 170.716 98.0189 170.928 97.7949 171.176C97.5789 171.424 97.2709 171.64 96.8709 171.824C96.4789 172 96.0269 172.088 95.5149 172.088ZM97.1589 168.392V168.356C97.1589 167.804 97.0069 167.356 96.7029 167.012C96.4069 166.66 96.0069 166.484 95.5029 166.484C94.9989 166.484 94.5989 166.66 94.3029 167.012C94.0149 167.356 93.8709 167.804 93.8709 168.356V168.392H97.1589ZM100.97 171.968C100.89 171.968 100.822 171.944 100.766 171.896C100.718 171.84 100.694 171.772 100.694 171.692V166.004C100.694 165.924 100.718 165.86 100.766 165.812C100.822 165.756 100.89 165.728 100.97 165.728H101.51C101.59 165.728 101.654 165.756 101.702 165.812C101.758 165.86 101.786 165.924 101.786 166.004V166.424C102.202 165.88 102.782 165.608 103.526 165.608C104.414 165.608 105.042 165.976 105.41 166.712C105.602 166.376 105.874 166.108 106.226 165.908C106.578 165.708 106.974 165.608 107.414 165.608C108.07 165.608 108.606 165.832 109.022 166.28C109.438 166.728 109.646 167.376 109.646 168.224V171.692C109.646 171.772 109.618 171.84 109.562 171.896C109.514 171.944 109.45 171.968 109.37 171.968H108.806C108.726 171.968 108.658 171.944 108.602 171.896C108.554 171.84 108.53 171.772 108.53 171.692V168.332C108.53 167.708 108.398 167.26 108.134 166.988C107.878 166.716 107.538 166.58 107.114 166.58C106.738 166.58 106.414 166.72 106.142 167C105.87 167.272 105.734 167.716 105.734 168.332V171.692C105.734 171.772 105.706 171.84 105.65 171.896C105.602 171.944 105.538 171.968 105.458 171.968H104.894C104.814 171.968 104.746 171.944 104.69 171.896C104.642 171.84 104.618 171.772 104.618 171.692V168.332C104.618 167.708 104.482 167.26 104.21 166.988C103.946 166.716 103.61 166.58 103.202 166.58C102.826 166.58 102.502 166.72 102.23 167C101.958 167.272 101.822 167.712 101.822 168.32V171.692C101.822 171.772 101.794 171.84 101.738 171.896C101.69 171.944 101.626 171.968 101.546 171.968H100.97ZM112.498 164.564C112.418 164.564 112.35 164.54 112.294 164.492C112.246 164.436 112.222 164.368 112.222 164.288V163.64C112.222 163.56 112.246 163.492 112.294 163.436C112.35 163.38 112.418 163.352 112.498 163.352H113.254C113.334 163.352 113.402 163.38 113.458 163.436C113.514 163.492 113.542 163.56 113.542 163.64V164.288C113.542 164.368 113.514 164.436 113.458 164.492C113.402 164.54 113.334 164.564 113.254 164.564H112.498ZM112.594 171.968C112.514 171.968 112.446 171.944 112.39 171.896C112.342 171.84 112.318 171.772 112.318 171.692V166.004C112.318 165.924 112.342 165.86 112.39 165.812C112.446 165.756 112.514 165.728 112.594 165.728H113.17C113.25 165.728 113.314 165.756 113.362 165.812C113.418 165.86 113.446 165.924 113.446 166.004V171.692C113.446 171.772 113.418 171.84 113.362 171.896C113.314 171.944 113.25 171.968 113.17 171.968H112.594ZM118.512 172.088C117.752 172.088 117.164 171.844 116.748 171.356C116.332 170.86 116.124 170.204 116.124 169.388V166.004C116.124 165.924 116.148 165.86 116.196 165.812C116.252 165.756 116.32 165.728 116.4 165.728H117C117.08 165.728 117.144 165.756 117.192 165.812C117.248 165.86 117.276 165.924 117.276 166.004V169.328C117.276 170.52 117.796 171.116 118.836 171.116C119.34 171.116 119.74 170.96 120.036 170.648C120.332 170.328 120.48 169.888 120.48 169.328V166.004C120.48 165.924 120.504 165.86 120.552 165.812C120.608 165.756 120.676 165.728 120.756 165.728H121.356C121.436 165.728 121.5 165.756 121.548 165.812C121.596 165.86 121.62 165.924 121.62 166.004V171.692C121.62 171.772 121.596 171.84 121.548 171.896C121.5 171.944 121.436 171.968 121.356 171.968H120.792C120.712 171.968 120.644 171.944 120.588 171.896C120.54 171.84 120.516 171.772 120.516 171.692V171.164C120.292 171.468 120.02 171.7 119.7 171.86C119.38 172.012 118.984 172.088 118.512 172.088ZM124.639 171.968C124.559 171.968 124.491 171.944 124.435 171.896C124.387 171.84 124.363 171.772 124.363 171.692V166.004C124.363 165.924 124.387 165.86 124.435 165.812C124.491 165.756 124.559 165.728 124.639 165.728H125.179C125.259 165.728 125.323 165.756 125.371 165.812C125.427 165.86 125.455 165.924 125.455 166.004V166.424C125.871 165.88 126.451 165.608 127.195 165.608C128.083 165.608 128.711 165.976 129.079 166.712C129.271 166.376 129.543 166.108 129.895 165.908C130.247 165.708 130.643 165.608 131.083 165.608C131.739 165.608 132.275 165.832 132.691 166.28C133.107 166.728 133.315 167.376 133.315 168.224V171.692C133.315 171.772 133.287 171.84 133.231 171.896C133.183 171.944 133.119 171.968 133.039 171.968H132.475C132.395 171.968 132.327 171.944 132.271 171.896C132.223 171.84 132.199 171.772 132.199 171.692V168.332C132.199 167.708 132.067 167.26 131.803 166.988C131.547 166.716 131.207 166.58 130.783 166.58C130.407 166.58 130.083 166.72 129.811 167C129.539 167.272 129.403 167.716 129.403 168.332V171.692C129.403 171.772 129.375 171.84 129.319 171.896C129.271 171.944 129.207 171.968 129.127 171.968H128.563C128.483 171.968 128.415 171.944 128.359 171.896C128.311 171.84 128.287 171.772 128.287 171.692V168.332C128.287 167.708 128.151 167.26 127.879 166.988C127.615 166.716 127.279 166.58 126.871 166.58C126.495 166.58 126.171 166.72 125.899 167C125.627 167.272 125.491 167.712 125.491 168.32V171.692C125.491 171.772 125.463 171.84 125.407 171.896C125.359 171.944 125.295 171.968 125.215 171.968H124.639ZM140.176 171.968C140.096 171.968 140.028 171.944 139.972 171.896C139.924 171.84 139.9 171.772 139.9 171.692V163.724C139.9 163.644 139.924 163.58 139.972 163.532C140.028 163.476 140.096 163.448 140.176 163.448H140.776C140.856 163.448 140.92 163.476 140.968 163.532C141.024 163.58 141.052 163.644 141.052 163.724V166.52C141.284 166.224 141.556 166 141.868 165.848C142.18 165.688 142.568 165.608 143.032 165.608C143.8 165.608 144.396 165.856 144.82 166.352C145.252 166.84 145.468 167.492 145.468 168.308V171.692C145.468 171.772 145.44 171.84 145.384 171.896C145.336 171.944 145.272 171.968 145.192 171.968H144.592C144.512 171.968 144.444 171.944 144.388 171.896C144.34 171.84 144.316 171.772 144.316 171.692V168.368C144.316 167.8 144.176 167.36 143.896 167.048C143.624 166.736 143.228 166.58 142.708 166.58C142.204 166.58 141.8 166.74 141.496 167.06C141.2 167.372 141.052 167.808 141.052 168.368V171.692C141.052 171.772 141.024 171.84 140.968 171.896C140.92 171.944 140.856 171.968 140.776 171.968H140.176ZM150.657 172.088C149.833 172.088 149.173 171.836 148.677 171.332C148.189 170.82 147.921 170.124 147.873 169.244L147.861 168.836L147.873 168.44C147.929 167.576 148.201 166.888 148.689 166.376C149.185 165.864 149.837 165.608 150.645 165.608C151.533 165.608 152.221 165.892 152.709 166.46C153.197 167.02 153.441 167.78 153.441 168.74V168.944C153.441 169.024 153.413 169.092 153.357 169.148C153.309 169.196 153.245 169.22 153.165 169.22H149.013V169.328C149.037 169.848 149.193 170.292 149.481 170.66C149.777 171.02 150.165 171.2 150.645 171.2C151.013 171.2 151.313 171.128 151.545 170.984C151.785 170.832 151.961 170.676 152.073 170.516C152.145 170.42 152.197 170.364 152.229 170.348C152.269 170.324 152.337 170.312 152.433 170.312H153.021C153.093 170.312 153.153 170.332 153.201 170.372C153.249 170.412 153.273 170.468 153.273 170.54C153.273 170.716 153.161 170.928 152.937 171.176C152.721 171.424 152.413 171.64 152.013 171.824C151.621 172 151.169 172.088 150.657 172.088ZM152.301 168.392V168.356C152.301 167.804 152.149 167.356 151.845 167.012C151.549 166.66 151.149 166.484 150.645 166.484C150.141 166.484 149.741 166.66 149.445 167.012C149.157 167.356 149.013 167.804 149.013 168.356V168.392H152.301ZM157.576 172.088C157.184 172.088 156.82 172.008 156.484 171.848C156.148 171.688 155.88 171.472 155.68 171.2C155.488 170.92 155.392 170.612 155.392 170.276C155.392 169.748 155.608 169.316 156.04 168.98C156.48 168.636 157.072 168.412 157.816 168.308L159.604 168.056V167.708C159.604 166.892 159.136 166.484 158.2 166.484C157.848 166.484 157.56 166.56 157.336 166.712C157.112 166.856 156.944 167.028 156.832 167.228C156.808 167.3 156.776 167.352 156.736 167.384C156.704 167.416 156.656 167.432 156.592 167.432H156.076C156.004 167.432 155.94 167.408 155.884 167.36C155.836 167.304 155.812 167.24 155.812 167.168C155.82 166.976 155.908 166.76 156.076 166.52C156.252 166.272 156.52 166.06 156.88 165.884C157.24 165.7 157.684 165.608 158.212 165.608C159.108 165.608 159.752 165.82 160.144 166.244C160.536 166.66 160.732 167.18 160.732 167.804V171.692C160.732 171.772 160.704 171.84 160.648 171.896C160.6 171.944 160.536 171.968 160.456 171.968H159.904C159.824 171.968 159.756 171.944 159.7 171.896C159.652 171.84 159.628 171.772 159.628 171.692V171.176C159.452 171.432 159.196 171.648 158.86 171.824C158.524 172 158.096 172.088 157.576 172.088ZM157.828 171.188C158.348 171.188 158.772 171.02 159.1 170.684C159.436 170.34 159.604 169.848 159.604 169.208V168.872L158.212 169.076C157.644 169.156 157.216 169.292 156.928 169.484C156.64 169.668 156.496 169.904 156.496 170.192C156.496 170.512 156.628 170.76 156.892 170.936C157.156 171.104 157.468 171.188 157.828 171.188ZM163.705 171.968C163.625 171.968 163.557 171.944 163.501 171.896C163.453 171.84 163.429 171.772 163.429 171.692V163.724C163.429 163.644 163.453 163.58 163.501 163.532C163.557 163.476 163.625 163.448 163.705 163.448H164.269C164.349 163.448 164.413 163.476 164.461 163.532C164.517 163.58 164.545 163.644 164.545 163.724V171.692C164.545 171.772 164.517 171.84 164.461 171.896C164.413 171.944 164.349 171.968 164.269 171.968H163.705ZM169.731 171.968C168.467 171.968 167.835 171.264 167.835 169.856V166.688H166.899C166.819 166.688 166.751 166.664 166.695 166.616C166.647 166.56 166.623 166.492 166.623 166.412V166.004C166.623 165.924 166.647 165.86 166.695 165.812C166.751 165.756 166.819 165.728 166.899 165.728H167.835V163.724C167.835 163.644 167.859 163.58 167.907 163.532C167.963 163.476 168.031 163.448 168.111 163.448H168.675C168.755 163.448 168.819 163.476 168.867 163.532C168.923 163.58 168.951 163.644 168.951 163.724V165.728H170.439C170.519 165.728 170.583 165.756 170.631 165.812C170.687 165.86 170.715 165.924 170.715 166.004V166.412C170.715 166.492 170.687 166.56 170.631 166.616C170.583 166.664 170.519 166.688 170.439 166.688H168.951V169.772C168.951 170.172 169.019 170.476 169.155 170.684C169.291 170.884 169.515 170.984 169.827 170.984H170.559C170.639 170.984 170.703 171.012 170.751 171.068C170.807 171.116 170.835 171.18 170.835 171.26V171.692C170.835 171.772 170.807 171.84 170.751 171.896C170.703 171.944 170.639 171.968 170.559 171.968H169.731ZM173.23 171.968C173.15 171.968 173.082 171.944 173.026 171.896C172.978 171.84 172.954 171.772 172.954 171.692V163.724C172.954 163.644 172.978 163.58 173.026 163.532C173.082 163.476 173.15 163.448 173.23 163.448H173.83C173.91 163.448 173.974 163.476 174.022 163.532C174.078 163.58 174.106 163.644 174.106 163.724V166.52C174.338 166.224 174.61 166 174.922 165.848C175.234 165.688 175.622 165.608 176.086 165.608C176.854 165.608 177.45 165.856 177.874 166.352C178.306 166.84 178.522 167.492 178.522 168.308V171.692C178.522 171.772 178.494 171.84 178.438 171.896C178.39 171.944 178.326 171.968 178.246 171.968H177.646C177.566 171.968 177.498 171.944 177.442 171.896C177.394 171.84 177.37 171.772 177.37 171.692V168.368C177.37 167.8 177.23 167.36 176.95 167.048C176.678 166.736 176.282 166.58 175.762 166.58C175.258 166.58 174.854 166.74 174.55 167.06C174.254 167.372 174.106 167.808 174.106 168.368V171.692C174.106 171.772 174.078 171.84 174.022 171.896C173.974 171.944 173.91 171.968 173.83 171.968H173.23ZM183.735 172.088C182.879 172.088 182.207 171.848 181.719 171.368C181.239 170.88 180.983 170.2 180.951 169.328L180.939 168.848L180.951 168.368C180.983 167.496 181.239 166.82 181.719 166.34C182.207 165.852 182.879 165.608 183.735 165.608C184.311 165.608 184.799 165.712 185.199 165.92C185.599 166.128 185.895 166.384 186.087 166.688C186.287 166.992 186.395 167.296 186.411 167.6C186.419 167.68 186.395 167.744 186.339 167.792C186.283 167.84 186.215 167.864 186.135 167.864H185.559C185.479 167.864 185.419 167.848 185.379 167.816C185.339 167.784 185.299 167.72 185.259 167.624C185.123 167.24 184.931 166.968 184.683 166.808C184.435 166.64 184.123 166.556 183.747 166.556C183.251 166.556 182.855 166.712 182.559 167.024C182.271 167.328 182.115 167.796 182.091 168.428L182.079 168.86L182.091 169.268C182.115 169.908 182.271 170.38 182.559 170.684C182.847 170.988 183.243 171.14 183.747 171.14C184.123 171.14 184.435 171.06 184.683 170.9C184.931 170.732 185.123 170.456 185.259 170.072C185.299 169.976 185.339 169.912 185.379 169.88C185.419 169.84 185.479 169.82 185.559 169.82H186.135C186.215 169.82 186.283 169.848 186.339 169.904C186.395 169.952 186.419 170.016 186.411 170.096C186.395 170.392 186.287 170.696 186.087 171.008C185.895 171.312 185.599 171.568 185.199 171.776C184.807 171.984 184.319 172.088 183.735 172.088ZM190.536 172.088C190.144 172.088 189.78 172.008 189.444 171.848C189.108 171.688 188.84 171.472 188.64 171.2C188.448 170.92 188.352 170.612 188.352 170.276C188.352 169.748 188.568 169.316 189 168.98C189.44 168.636 190.032 168.412 190.776 168.308L192.564 168.056V167.708C192.564 166.892 192.096 166.484 191.16 166.484C190.808 166.484 190.52 166.56 190.296 166.712C190.072 166.856 189.904 167.028 189.792 167.228C189.768 167.3 189.736 167.352 189.696 167.384C189.664 167.416 189.616 167.432 189.552 167.432H189.036C188.964 167.432 188.9 167.408 188.844 167.36C188.796 167.304 188.772 167.24 188.772 167.168C188.78 166.976 188.868 166.76 189.036 166.52C189.212 166.272 189.48 166.06 189.84 165.884C190.2 165.7 190.644 165.608 191.172 165.608C192.068 165.608 192.712 165.82 193.104 166.244C193.496 166.66 193.692 167.18 193.692 167.804V171.692C193.692 171.772 193.664 171.84 193.608 171.896C193.56 171.944 193.496 171.968 193.416 171.968H192.864C192.784 171.968 192.716 171.944 192.66 171.896C192.612 171.84 192.588 171.772 192.588 171.692V171.176C192.412 171.432 192.156 171.648 191.82 171.824C191.484 172 191.056 172.088 190.536 172.088ZM190.788 171.188C191.308 171.188 191.732 171.02 192.06 170.684C192.396 170.34 192.564 169.848 192.564 169.208V168.872L191.172 169.076C190.604 169.156 190.176 169.292 189.888 169.484C189.6 169.668 189.456 169.904 189.456 170.192C189.456 170.512 189.588 170.76 189.852 170.936C190.116 171.104 190.428 171.188 190.788 171.188ZM196.653 171.968C196.573 171.968 196.505 171.944 196.449 171.896C196.401 171.84 196.377 171.772 196.377 171.692V166.016C196.377 165.936 196.401 165.868 196.449 165.812C196.505 165.756 196.573 165.728 196.653 165.728H197.205C197.285 165.728 197.353 165.756 197.409 165.812C197.465 165.868 197.493 165.936 197.493 166.016V166.544C197.821 166 198.381 165.728 199.173 165.728H199.641C199.721 165.728 199.785 165.756 199.833 165.812C199.889 165.86 199.917 165.924 199.917 166.004V166.496C199.917 166.576 199.889 166.64 199.833 166.688C199.785 166.736 199.721 166.76 199.641 166.76H198.921C198.489 166.76 198.149 166.888 197.901 167.144C197.653 167.392 197.529 167.732 197.529 168.164V171.692C197.529 171.772 197.501 171.84 197.445 171.896C197.389 171.944 197.321 171.968 197.241 171.968H196.653ZM204.274 172.088C203.45 172.088 202.79 171.836 202.294 171.332C201.806 170.82 201.538 170.124 201.49 169.244L201.478 168.836L201.49 168.44C201.546 167.576 201.818 166.888 202.306 166.376C202.802 165.864 203.454 165.608 204.262 165.608C205.15 165.608 205.838 165.892 206.326 166.46C206.814 167.02 207.058 167.78 207.058 168.74V168.944C207.058 169.024 207.03 169.092 206.974 169.148C206.926 169.196 206.862 169.22 206.782 169.22H202.63V169.328C202.654 169.848 202.81 170.292 203.098 170.66C203.394 171.02 203.782 171.2 204.262 171.2C204.63 171.2 204.93 171.128 205.162 170.984C205.402 170.832 205.578 170.676 205.69 170.516C205.762 170.42 205.814 170.364 205.846 170.348C205.886 170.324 205.954 170.312 206.05 170.312H206.638C206.71 170.312 206.77 170.332 206.818 170.372C206.866 170.412 206.89 170.468 206.89 170.54C206.89 170.716 206.778 170.928 206.554 171.176C206.338 171.424 206.03 171.64 205.63 171.824C205.238 172 204.786 172.088 204.274 172.088ZM205.918 168.392V168.356C205.918 167.804 205.766 167.356 205.462 167.012C205.166 166.66 204.766 166.484 204.262 166.484C203.758 166.484 203.358 166.66 203.062 167.012C202.774 167.356 202.63 167.804 202.63 168.356V168.392H205.918ZM29.7158 188.968C29.6358 188.968 29.5678 188.944 29.5118 188.896C29.4638 188.84 29.4398 188.772 29.4398 188.692V183.688H28.4198C28.3398 183.688 28.2718 183.664 28.2158 183.616C28.1678 183.56 28.1438 183.492 28.1438 183.412V183.004C28.1438 182.924 28.1678 182.86 28.2158 182.812C28.2718 182.756 28.3398 182.728 28.4198 182.728H29.4398V182.128C29.4398 180.768 30.1278 180.088 31.5038 180.088H32.2238C32.3038 180.088 32.3678 180.116 32.4158 180.172C32.4718 180.22 32.4998 180.284 32.4998 180.364V180.772C32.4998 180.852 32.4718 180.92 32.4158 180.976C32.3678 181.024 32.3038 181.048 32.2238 181.048H31.5278C31.1678 181.048 30.9158 181.144 30.7718 181.336C30.6278 181.52 30.5558 181.804 30.5558 182.188V182.728H32.1038C32.1838 182.728 32.2478 182.756 32.2958 182.812C32.3518 182.86 32.3798 182.924 32.3798 183.004V183.412C32.3798 183.492 32.3518 183.56 32.2958 183.616C32.2478 183.664 32.1838 183.688 32.1038 183.688H30.5558V188.692C30.5558 188.772 30.5278 188.84 30.4718 188.896C30.4238 188.944 30.3598 188.968 30.2798 188.968H29.7158ZM36.7718 189.088C35.9478 189.088 35.2878 188.836 34.7918 188.332C34.3038 187.82 34.0358 187.124 33.9878 186.244L33.9758 185.836L33.9878 185.44C34.0438 184.576 34.3158 183.888 34.8038 183.376C35.2998 182.864 35.9518 182.608 36.7598 182.608C37.6478 182.608 38.3358 182.892 38.8238 183.46C39.3118 184.02 39.5558 184.78 39.5558 185.74V185.944C39.5558 186.024 39.5278 186.092 39.4718 186.148C39.4238 186.196 39.3598 186.22 39.2798 186.22H35.1278V186.328C35.1518 186.848 35.3078 187.292 35.5958 187.66C35.8918 188.02 36.2798 188.2 36.7598 188.2C37.1278 188.2 37.4278 188.128 37.6598 187.984C37.8998 187.832 38.0758 187.676 38.1878 187.516C38.2598 187.42 38.3118 187.364 38.3438 187.348C38.3838 187.324 38.4518 187.312 38.5478 187.312H39.1358C39.2078 187.312 39.2678 187.332 39.3158 187.372C39.3638 187.412 39.3878 187.468 39.3878 187.54C39.3878 187.716 39.2758 187.928 39.0518 188.176C38.8358 188.424 38.5278 188.64 38.1278 188.824C37.7358 189 37.2838 189.088 36.7718 189.088ZM38.4158 185.392V185.356C38.4158 184.804 38.2638 184.356 37.9598 184.012C37.6638 183.66 37.2638 183.484 36.7598 183.484C36.2558 183.484 35.8558 183.66 35.5598 184.012C35.2718 184.356 35.1278 184.804 35.1278 185.356V185.392H38.4158ZM43.6907 189.088C43.2987 189.088 42.9347 189.008 42.5987 188.848C42.2627 188.688 41.9947 188.472 41.7947 188.2C41.6027 187.92 41.5067 187.612 41.5067 187.276C41.5067 186.748 41.7227 186.316 42.1547 185.98C42.5947 185.636 43.1867 185.412 43.9307 185.308L45.7187 185.056V184.708C45.7187 183.892 45.2507 183.484 44.3147 183.484C43.9627 183.484 43.6747 183.56 43.4507 183.712C43.2267 183.856 43.0587 184.028 42.9467 184.228C42.9227 184.3 42.8907 184.352 42.8507 184.384C42.8187 184.416 42.7707 184.432 42.7067 184.432H42.1907C42.1187 184.432 42.0547 184.408 41.9987 184.36C41.9507 184.304 41.9267 184.24 41.9267 184.168C41.9347 183.976 42.0227 183.76 42.1907 183.52C42.3667 183.272 42.6347 183.06 42.9947 182.884C43.3547 182.7 43.7987 182.608 44.3267 182.608C45.2227 182.608 45.8667 182.82 46.2587 183.244C46.6507 183.66 46.8467 184.18 46.8467 184.804V188.692C46.8467 188.772 46.8187 188.84 46.7627 188.896C46.7147 188.944 46.6507 188.968 46.5707 188.968H46.0187C45.9387 188.968 45.8707 188.944 45.8147 188.896C45.7667 188.84 45.7427 188.772 45.7427 188.692V188.176C45.5667 188.432 45.3107 188.648 44.9747 188.824C44.6387 189 44.2107 189.088 43.6907 189.088ZM43.9427 188.188C44.4627 188.188 44.8867 188.02 45.2147 187.684C45.5507 187.34 45.7187 186.848 45.7187 186.208V185.872L44.3267 186.076C43.7587 186.156 43.3307 186.292 43.0427 186.484C42.7547 186.668 42.6107 186.904 42.6107 187.192C42.6107 187.512 42.7427 187.76 43.0067 187.936C43.2707 188.104 43.5827 188.188 43.9427 188.188ZM51.9092 188.968C50.6452 188.968 50.0132 188.264 50.0132 186.856V183.688H49.0772C48.9972 183.688 48.9292 183.664 48.8732 183.616C48.8252 183.56 48.8012 183.492 48.8012 183.412V183.004C48.8012 182.924 48.8252 182.86 48.8732 182.812C48.9292 182.756 48.9972 182.728 49.0772 182.728H50.0132V180.724C50.0132 180.644 50.0372 180.58 50.0852 180.532C50.1412 180.476 50.2092 180.448 50.2892 180.448H50.8532C50.9332 180.448 50.9972 180.476 51.0452 180.532C51.1012 180.58 51.1292 180.644 51.1292 180.724V182.728H52.6172C52.6972 182.728 52.7612 182.756 52.8092 182.812C52.8652 182.86 52.8932 182.924 52.8932 183.004V183.412C52.8932 183.492 52.8652 183.56 52.8092 183.616C52.7612 183.664 52.6972 183.688 52.6172 183.688H51.1292V186.772C51.1292 187.172 51.1972 187.476 51.3332 187.684C51.4692 187.884 51.6932 187.984 52.0052 187.984H52.7372C52.8172 187.984 52.8812 188.012 52.9292 188.068C52.9852 188.116 53.0132 188.18 53.0132 188.26V188.692C53.0132 188.772 52.9852 188.84 52.9292 188.896C52.8812 188.944 52.8172 188.968 52.7372 188.968H51.9092ZM57.4487 189.088C56.6887 189.088 56.1007 188.844 55.6847 188.356C55.2687 187.86 55.0607 187.204 55.0607 186.388V183.004C55.0607 182.924 55.0847 182.86 55.1327 182.812C55.1887 182.756 55.2567 182.728 55.3367 182.728H55.9367C56.0167 182.728 56.0807 182.756 56.1287 182.812C56.1847 182.86 56.2127 182.924 56.2127 183.004V186.328C56.2127 187.52 56.7327 188.116 57.7727 188.116C58.2767 188.116 58.6767 187.96 58.9727 187.648C59.2687 187.328 59.4167 186.888 59.4167 186.328V183.004C59.4167 182.924 59.4407 182.86 59.4887 182.812C59.5447 182.756 59.6127 182.728 59.6927 182.728H60.2927C60.3727 182.728 60.4367 182.756 60.4847 182.812C60.5327 182.86 60.5567 182.924 60.5567 183.004V188.692C60.5567 188.772 60.5327 188.84 60.4847 188.896C60.4367 188.944 60.3727 188.968 60.2927 188.968H59.7287C59.6487 188.968 59.5807 188.944 59.5247 188.896C59.4767 188.84 59.4527 188.772 59.4527 188.692V188.164C59.2287 188.468 58.9567 188.7 58.6367 188.86C58.3167 189.012 57.9207 189.088 57.4487 189.088ZM63.5754 188.968C63.4954 188.968 63.4274 188.944 63.3714 188.896C63.3234 188.84 63.2994 188.772 63.2994 188.692V183.016C63.2994 182.936 63.3234 182.868 63.3714 182.812C63.4274 182.756 63.4954 182.728 63.5754 182.728H64.1274C64.2074 182.728 64.2754 182.756 64.3314 182.812C64.3874 182.868 64.4154 182.936 64.4154 183.016V183.544C64.7434 183 65.3034 182.728 66.0954 182.728H66.5634C66.6434 182.728 66.7074 182.756 66.7554 182.812C66.8114 182.86 66.8394 182.924 66.8394 183.004V183.496C66.8394 183.576 66.8114 183.64 66.7554 183.688C66.7074 183.736 66.6434 183.76 66.5634 183.76H65.8434C65.4114 183.76 65.0714 183.888 64.8234 184.144C64.5754 184.392 64.4514 184.732 64.4514 185.164V188.692C64.4514 188.772 64.4234 188.84 64.3674 188.896C64.3114 188.944 64.2434 188.968 64.1634 188.968H63.5754ZM71.1968 189.088C70.3728 189.088 69.7128 188.836 69.2168 188.332C68.7288 187.82 68.4608 187.124 68.4128 186.244L68.4008 185.836L68.4128 185.44C68.4688 184.576 68.7408 183.888 69.2288 183.376C69.7248 182.864 70.3768 182.608 71.1848 182.608C72.0728 182.608 72.7608 182.892 73.2488 183.46C73.7368 184.02 73.9808 184.78 73.9808 185.74V185.944C73.9808 186.024 73.9528 186.092 73.8968 186.148C73.8488 186.196 73.7848 186.22 73.7048 186.22H69.5528V186.328C69.5768 186.848 69.7328 187.292 70.0208 187.66C70.3168 188.02 70.7048 188.2 71.1848 188.2C71.5528 188.2 71.8528 188.128 72.0848 187.984C72.3248 187.832 72.5008 187.676 72.6128 187.516C72.6848 187.42 72.7368 187.364 72.7688 187.348C72.8088 187.324 72.8768 187.312 72.9728 187.312H73.5608C73.6328 187.312 73.6928 187.332 73.7408 187.372C73.7888 187.412 73.8128 187.468 73.8128 187.54C73.8128 187.716 73.7008 187.928 73.4768 188.176C73.2608 188.424 72.9528 188.64 72.5528 188.824C72.1608 189 71.7088 189.088 71.1968 189.088ZM72.8408 185.392V185.356C72.8408 184.804 72.6888 184.356 72.3848 184.012C72.0888 183.66 71.6888 183.484 71.1848 183.484C70.6808 183.484 70.2808 183.66 69.9848 184.012C69.6968 184.356 69.5528 184.804 69.5528 185.356V185.392H72.8408ZM78.5357 189.088C77.9757 189.088 77.5037 189 77.1197 188.824C76.7437 188.64 76.4597 188.432 76.2677 188.2C76.0837 187.968 75.9917 187.776 75.9917 187.624C75.9917 187.544 76.0197 187.484 76.0757 187.444C76.1397 187.396 76.2037 187.372 76.2677 187.372H76.8077C76.8877 187.372 76.9597 187.412 77.0237 187.492C77.2157 187.716 77.4237 187.892 77.6477 188.02C77.8717 188.148 78.1717 188.212 78.5477 188.212C78.9637 188.212 79.2997 188.132 79.5557 187.972C79.8197 187.804 79.9517 187.576 79.9517 187.288C79.9517 187.096 79.8957 186.94 79.7837 186.82C79.6797 186.692 79.4957 186.584 79.2317 186.496C78.9757 186.4 78.5917 186.296 78.0797 186.184C77.3837 186.032 76.8877 185.812 76.5917 185.524C76.3037 185.236 76.1597 184.864 76.1597 184.408C76.1597 184.104 76.2477 183.816 76.4237 183.544C76.6077 183.264 76.8717 183.04 77.2157 182.872C77.5677 182.696 77.9877 182.608 78.4757 182.608C78.9877 182.608 79.4237 182.692 79.7837 182.86C80.1437 183.028 80.4117 183.228 80.5877 183.46C80.7717 183.684 80.8637 183.872 80.8637 184.024C80.8637 184.096 80.8357 184.156 80.7797 184.204C80.7317 184.252 80.6717 184.276 80.5997 184.276H80.0957C79.9997 184.276 79.9197 184.236 79.8557 184.156C79.7277 184.004 79.6157 183.888 79.5197 183.808C79.4317 183.72 79.2997 183.644 79.1237 183.58C78.9557 183.516 78.7397 183.484 78.4757 183.484C78.0917 183.484 77.7957 183.568 77.5877 183.736C77.3797 183.896 77.2757 184.108 77.2757 184.372C77.2757 184.54 77.3197 184.684 77.4077 184.804C77.4957 184.916 77.6637 185.02 77.9117 185.116C78.1677 185.212 78.5357 185.312 79.0157 185.416C79.7757 185.576 80.3117 185.808 80.6237 186.112C80.9437 186.408 81.1037 186.788 81.1037 187.252C81.1037 187.596 81.0037 187.908 80.8037 188.188C80.6037 188.468 80.3077 188.688 79.9157 188.848C79.5317 189.008 79.0717 189.088 78.5357 189.088ZM89.5324 188.968C88.2684 188.968 87.6364 188.264 87.6364 186.856V183.688H86.7004C86.6204 183.688 86.5524 183.664 86.4964 183.616C86.4484 183.56 86.4244 183.492 86.4244 183.412V183.004C86.4244 182.924 86.4484 182.86 86.4964 182.812C86.5524 182.756 86.6204 182.728 86.7004 182.728H87.6364V180.724C87.6364 180.644 87.6604 180.58 87.7084 180.532C87.7644 180.476 87.8324 180.448 87.9124 180.448H88.4764C88.5564 180.448 88.6204 180.476 88.6684 180.532C88.7244 180.58 88.7524 180.644 88.7524 180.724V182.728H90.2404C90.3204 182.728 90.3844 182.756 90.4324 182.812C90.4884 182.86 90.5164 182.924 90.5164 183.004V183.412C90.5164 183.492 90.4884 183.56 90.4324 183.616C90.3844 183.664 90.3204 183.688 90.2404 183.688H88.7524V186.772C88.7524 187.172 88.8204 187.476 88.9564 187.684C89.0924 187.884 89.3164 187.984 89.6284 187.984H90.3604C90.4404 187.984 90.5044 188.012 90.5524 188.068C90.6084 188.116 90.6364 188.18 90.6364 188.26V188.692C90.6364 188.772 90.6084 188.84 90.5524 188.896C90.5044 188.944 90.4404 188.968 90.3604 188.968H89.5324ZM95.2999 189.088C94.4199 189.088 93.7359 188.84 93.2479 188.344C92.7679 187.848 92.5119 187.188 92.4799 186.364L92.4679 185.848L92.4799 185.332C92.5119 184.516 92.7719 183.86 93.2599 183.364C93.7479 182.86 94.4279 182.608 95.2999 182.608C96.1719 182.608 96.8519 182.86 97.3399 183.364C97.8279 183.86 98.0879 184.516 98.1199 185.332C98.1279 185.42 98.1319 185.592 98.1319 185.848C98.1319 186.104 98.1279 186.276 98.1199 186.364C98.0879 187.188 97.8279 187.848 97.3399 188.344C96.8599 188.84 96.1799 189.088 95.2999 189.088ZM95.2999 188.164C95.8039 188.164 96.1999 188.004 96.4879 187.684C96.7839 187.364 96.9439 186.904 96.9679 186.304C96.9759 186.224 96.9799 186.072 96.9799 185.848C96.9799 185.624 96.9759 185.472 96.9679 185.392C96.9439 184.792 96.7839 184.332 96.4879 184.012C96.1999 183.692 95.8039 183.532 95.2999 183.532C94.7959 183.532 94.3959 183.692 94.0999 184.012C93.8039 184.332 93.6479 184.792 93.6319 185.392L93.6199 185.848L93.6319 186.304C93.6479 186.904 93.8039 187.364 94.0999 187.684C94.3959 188.004 94.7959 188.164 95.2999 188.164ZM105.26 191.248C105.196 191.248 105.14 191.224 105.092 191.176C105.044 191.128 105.02 191.072 105.02 191.008C105.02 190.952 105.04 190.88 105.08 190.792L106.004 188.596L103.712 183.184C103.672 183.08 103.652 183.012 103.652 182.98C103.652 182.908 103.676 182.848 103.724 182.8C103.772 182.752 103.832 182.728 103.904 182.728H104.492C104.62 182.728 104.716 182.796 104.78 182.932L106.604 187.3L108.476 182.932C108.54 182.796 108.64 182.728 108.776 182.728H109.34C109.412 182.728 109.472 182.752 109.52 182.8C109.568 182.848 109.592 182.904 109.592 182.968C109.592 182.992 109.572 183.064 109.532 183.184L106.124 191.044C106.06 191.18 105.96 191.248 105.824 191.248H105.26ZM114.094 189.088C113.214 189.088 112.53 188.84 112.042 188.344C111.562 187.848 111.306 187.188 111.274 186.364L111.262 185.848L111.274 185.332C111.306 184.516 111.566 183.86 112.054 183.364C112.542 182.86 113.222 182.608 114.094 182.608C114.966 182.608 115.646 182.86 116.134 183.364C116.622 183.86 116.882 184.516 116.914 185.332C116.922 185.42 116.926 185.592 116.926 185.848C116.926 186.104 116.922 186.276 116.914 186.364C116.882 187.188 116.622 187.848 116.134 188.344C115.654 188.84 114.974 189.088 114.094 189.088ZM114.094 188.164C114.598 188.164 114.994 188.004 115.282 187.684C115.578 187.364 115.738 186.904 115.762 186.304C115.77 186.224 115.774 186.072 115.774 185.848C115.774 185.624 115.77 185.472 115.762 185.392C115.738 184.792 115.578 184.332 115.282 184.012C114.994 183.692 114.598 183.532 114.094 183.532C113.59 183.532 113.19 183.692 112.894 184.012C112.598 184.332 112.442 184.792 112.426 185.392L112.414 185.848L112.426 186.304C112.442 186.904 112.598 187.364 112.894 187.684C113.19 188.004 113.59 188.164 114.094 188.164ZM121.717 189.088C120.957 189.088 120.369 188.844 119.953 188.356C119.537 187.86 119.329 187.204 119.329 186.388V183.004C119.329 182.924 119.353 182.86 119.401 182.812C119.457 182.756 119.525 182.728 119.605 182.728H120.205C120.285 182.728 120.349 182.756 120.397 182.812C120.453 182.86 120.481 182.924 120.481 183.004V186.328C120.481 187.52 121.001 188.116 122.041 188.116C122.545 188.116 122.945 187.96 123.241 187.648C123.537 187.328 123.685 186.888 123.685 186.328V183.004C123.685 182.924 123.709 182.86 123.757 182.812C123.813 182.756 123.881 182.728 123.961 182.728H124.561C124.641 182.728 124.705 182.756 124.753 182.812C124.801 182.86 124.825 182.924 124.825 183.004V188.692C124.825 188.772 124.801 188.84 124.753 188.896C124.705 188.944 124.641 188.968 124.561 188.968H123.997C123.917 188.968 123.849 188.944 123.793 188.896C123.745 188.84 123.721 188.772 123.721 188.692V188.164C123.497 188.468 123.225 188.7 122.905 188.86C122.585 189.012 122.189 189.088 121.717 189.088ZM127.843 188.968C127.763 188.968 127.695 188.944 127.639 188.896C127.591 188.84 127.567 188.772 127.567 188.692V183.016C127.567 182.936 127.591 182.868 127.639 182.812C127.695 182.756 127.763 182.728 127.843 182.728H128.395C128.475 182.728 128.543 182.756 128.599 182.812C128.655 182.868 128.683 182.936 128.683 183.016V183.544C129.011 183 129.571 182.728 130.363 182.728H130.831C130.911 182.728 130.975 182.756 131.023 182.812C131.079 182.86 131.107 182.924 131.107 183.004V183.496C131.107 183.576 131.079 183.64 131.023 183.688C130.975 183.736 130.911 183.76 130.831 183.76H130.111C129.679 183.76 129.339 183.888 129.091 184.144C128.843 184.392 128.719 184.732 128.719 185.164V188.692C128.719 188.772 128.691 188.84 128.635 188.896C128.579 188.944 128.511 188.968 128.431 188.968H127.843ZM137.383 188.968C137.303 188.968 137.235 188.944 137.179 188.896C137.131 188.84 137.107 188.772 137.107 188.692V183.688H136.087C136.007 183.688 135.939 183.664 135.883 183.616C135.835 183.56 135.811 183.492 135.811 183.412V183.004C135.811 182.924 135.835 182.86 135.883 182.812C135.939 182.756 136.007 182.728 136.087 182.728H137.107V182.128C137.107 180.768 137.795 180.088 139.171 180.088H141.019C141.099 180.088 141.163 180.116 141.211 180.172C141.267 180.22 141.295 180.284 141.295 180.364V180.772C141.295 180.852 141.267 180.92 141.211 180.976C141.163 181.024 141.099 181.048 141.019 181.048H139.195C138.835 181.048 138.583 181.144 138.439 181.336C138.295 181.52 138.223 181.804 138.223 182.188V182.728H141.019C141.099 182.728 141.163 182.756 141.211 182.812C141.267 182.86 141.295 182.924 141.295 183.004V188.692C141.295 188.772 141.267 188.84 141.211 188.896C141.163 188.944 141.099 188.968 141.019 188.968H140.467C140.387 188.968 140.319 188.944 140.263 188.896C140.215 188.84 140.191 188.772 140.191 188.692V183.688H138.223V188.692C138.223 188.772 138.195 188.84 138.139 188.896C138.091 188.944 138.027 188.968 137.947 188.968H137.383ZM144.305 188.968C144.225 188.968 144.157 188.944 144.101 188.896C144.053 188.84 144.029 188.772 144.029 188.692V183.004C144.029 182.924 144.053 182.86 144.101 182.812C144.157 182.756 144.225 182.728 144.305 182.728H144.869C144.949 182.728 145.013 182.756 145.061 182.812C145.117 182.86 145.145 182.924 145.145 183.004V183.532C145.377 183.236 145.649 183.008 145.961 182.848C146.281 182.688 146.677 182.608 147.149 182.608C147.917 182.608 148.513 182.856 148.937 183.352C149.369 183.84 149.585 184.492 149.585 185.308V188.692C149.585 188.772 149.557 188.84 149.501 188.896C149.453 188.944 149.389 188.968 149.309 188.968H148.709C148.629 188.968 148.561 188.944 148.505 188.896C148.457 188.84 148.433 188.772 148.433 188.692V185.368C148.433 184.8 148.293 184.36 148.013 184.048C147.741 183.736 147.345 183.58 146.825 183.58C146.321 183.58 145.921 183.74 145.625 184.06C145.329 184.372 145.181 184.808 145.181 185.368V188.692C145.181 188.772 145.153 188.84 145.097 188.896C145.049 188.944 144.985 188.968 144.905 188.968H144.305ZM154.823 191.608C154.167 191.608 153.639 191.496 153.239 191.272C152.839 191.056 152.555 190.808 152.387 190.528C152.219 190.248 152.127 189.996 152.111 189.772C152.103 189.692 152.127 189.624 152.183 189.568C152.247 189.512 152.315 189.484 152.387 189.484H152.963C153.035 189.484 153.095 189.5 153.143 189.532C153.191 189.572 153.231 189.64 153.263 189.736C153.359 189.992 153.515 190.212 153.731 190.396C153.955 190.588 154.299 190.684 154.763 190.684C155.355 190.684 155.791 190.556 156.071 190.3C156.351 190.052 156.491 189.608 156.491 188.968V188.152C156.283 188.416 156.019 188.628 155.699 188.788C155.379 188.94 154.999 189.016 154.559 189.016C153.711 189.016 153.075 188.748 152.651 188.212C152.235 187.668 152.015 186.98 151.991 186.148L151.979 185.812L151.991 185.488C152.015 184.664 152.239 183.98 152.663 183.436C153.087 182.884 153.719 182.608 154.559 182.608C155.399 182.608 156.055 182.916 156.527 183.532V183.016C156.527 182.936 156.551 182.868 156.599 182.812C156.655 182.756 156.723 182.728 156.803 182.728H157.355C157.435 182.728 157.503 182.756 157.559 182.812C157.615 182.868 157.643 182.936 157.643 183.016V188.836C157.643 190.684 156.703 191.608 154.823 191.608ZM154.799 188.056C155.343 188.056 155.755 187.876 156.035 187.516C156.315 187.156 156.467 186.728 156.491 186.232C156.499 186.16 156.503 186.02 156.503 185.812C156.503 185.612 156.499 185.476 156.491 185.404C156.467 184.908 156.315 184.48 156.035 184.12C155.763 183.76 155.351 183.58 154.799 183.58C154.231 183.58 153.819 183.756 153.563 184.108C153.307 184.46 153.167 184.924 153.143 185.5L153.131 185.812L153.143 186.136C153.167 186.704 153.307 187.168 153.563 187.528C153.819 187.88 154.231 188.056 154.799 188.056ZM162.883 189.088C162.059 189.088 161.399 188.836 160.903 188.332C160.415 187.82 160.147 187.124 160.099 186.244L160.087 185.836L160.099 185.44C160.155 184.576 160.427 183.888 160.915 183.376C161.411 182.864 162.063 182.608 162.871 182.608C163.759 182.608 164.447 182.892 164.935 183.46C165.423 184.02 165.667 184.78 165.667 185.74V185.944C165.667 186.024 165.639 186.092 165.583 186.148C165.535 186.196 165.471 186.22 165.391 186.22H161.239V186.328C161.263 186.848 161.419 187.292 161.707 187.66C162.003 188.02 162.391 188.2 162.871 188.2C163.239 188.2 163.539 188.128 163.771 187.984C164.011 187.832 164.187 187.676 164.299 187.516C164.371 187.42 164.423 187.364 164.455 187.348C164.495 187.324 164.563 187.312 164.659 187.312H165.247C165.319 187.312 165.379 187.332 165.427 187.372C165.475 187.412 165.499 187.468 165.499 187.54C165.499 187.716 165.387 187.928 165.163 188.176C164.947 188.424 164.639 188.64 164.239 188.824C163.847 189 163.395 189.088 162.883 189.088ZM164.527 185.392V185.356C164.527 184.804 164.375 184.356 164.071 184.012C163.775 183.66 163.375 183.484 162.871 183.484C162.367 183.484 161.967 183.66 161.671 184.012C161.383 184.356 161.239 184.804 161.239 185.356V185.392H164.527ZM168.338 188.968C168.258 188.968 168.19 188.944 168.134 188.896C168.086 188.84 168.062 188.772 168.062 188.692V183.016C168.062 182.936 168.086 182.868 168.134 182.812C168.19 182.756 168.258 182.728 168.338 182.728H168.89C168.97 182.728 169.038 182.756 169.094 182.812C169.15 182.868 169.178 182.936 169.178 183.016V183.544C169.506 183 170.066 182.728 170.858 182.728H171.326C171.406 182.728 171.47 182.756 171.518 182.812C171.574 182.86 171.602 182.924 171.602 183.004V183.496C171.602 183.576 171.574 183.64 171.518 183.688C171.47 183.736 171.406 183.76 171.326 183.76H170.606C170.174 183.76 169.834 183.888 169.586 184.144C169.338 184.392 169.214 184.732 169.214 185.164V188.692C169.214 188.772 169.186 188.84 169.13 188.896C169.074 188.944 169.006 188.968 168.926 188.968H168.338ZM176.016 188.968C174.752 188.968 174.12 188.264 174.12 186.856V183.688H173.184C173.104 183.688 173.036 183.664 172.98 183.616C172.932 183.56 172.908 183.492 172.908 183.412V183.004C172.908 182.924 172.932 182.86 172.98 182.812C173.036 182.756 173.104 182.728 173.184 182.728H174.12V180.724C174.12 180.644 174.144 180.58 174.192 180.532C174.248 180.476 174.316 180.448 174.396 180.448H174.96C175.04 180.448 175.104 180.476 175.152 180.532C175.208 180.58 175.236 180.644 175.236 180.724V182.728H176.724C176.804 182.728 176.868 182.756 176.916 182.812C176.972 182.86 177 182.924 177 183.004V183.412C177 183.492 176.972 183.56 176.916 183.616C176.868 183.664 176.804 183.688 176.724 183.688H175.236V186.772C175.236 187.172 175.304 187.476 175.44 187.684C175.576 187.884 175.8 187.984 176.112 187.984H176.844C176.924 187.984 176.988 188.012 177.036 188.068C177.092 188.116 177.12 188.18 177.12 188.26V188.692C177.12 188.772 177.092 188.84 177.036 188.896C176.988 188.944 176.924 188.968 176.844 188.968H176.016ZM179.408 181.564C179.328 181.564 179.26 181.54 179.204 181.492C179.156 181.436 179.132 181.368 179.132 181.288V180.64C179.132 180.56 179.156 180.492 179.204 180.436C179.26 180.38 179.328 180.352 179.408 180.352H180.164C180.244 180.352 180.312 180.38 180.368 180.436C180.424 180.492 180.452 180.56 180.452 180.64V181.288C180.452 181.368 180.424 181.436 180.368 181.492C180.312 181.54 180.244 181.564 180.164 181.564H179.408ZM179.504 188.968C179.424 188.968 179.356 188.944 179.3 188.896C179.252 188.84 179.228 188.772 179.228 188.692V183.004C179.228 182.924 179.252 182.86 179.3 182.812C179.356 182.756 179.424 182.728 179.504 182.728H180.08C180.16 182.728 180.224 182.756 180.272 182.812C180.328 182.86 180.356 182.924 180.356 183.004V188.692C180.356 188.772 180.328 188.84 180.272 188.896C180.224 188.944 180.16 188.968 180.08 188.968H179.504ZM183.382 191.248C183.302 191.248 183.234 191.22 183.178 191.164C183.13 191.116 183.106 191.052 183.106 190.972V183.004C183.106 182.924 183.13 182.86 183.178 182.812C183.234 182.756 183.302 182.728 183.382 182.728H183.934C184.014 182.728 184.078 182.756 184.126 182.812C184.182 182.86 184.21 182.924 184.21 183.004V183.532C184.658 182.916 185.314 182.608 186.178 182.608C187.018 182.608 187.646 182.872 188.062 183.4C188.486 183.928 188.714 184.608 188.746 185.44C188.754 185.528 188.758 185.664 188.758 185.848C188.758 186.032 188.754 186.168 188.746 186.256C188.714 187.08 188.486 187.76 188.062 188.296C187.638 188.824 187.01 189.088 186.178 189.088C185.346 189.088 184.698 188.788 184.234 188.188V190.972C184.234 191.052 184.21 191.116 184.162 191.164C184.114 191.22 184.05 191.248 183.97 191.248H183.382ZM185.926 188.116C186.494 188.116 186.906 187.94 187.162 187.588C187.426 187.236 187.57 186.772 187.594 186.196C187.602 186.116 187.606 186 187.606 185.848C187.606 184.336 187.046 183.58 185.926 183.58C185.374 183.58 184.958 183.764 184.678 184.132C184.406 184.492 184.258 184.924 184.234 185.428L184.222 185.884L184.234 186.352C184.25 186.824 184.402 187.236 184.69 187.588C184.978 187.94 185.39 188.116 185.926 188.116ZM193.363 189.088C192.803 189.088 192.331 189 191.947 188.824C191.571 188.64 191.287 188.432 191.095 188.2C190.911 187.968 190.819 187.776 190.819 187.624C190.819 187.544 190.847 187.484 190.903 187.444C190.967 187.396 191.031 187.372 191.095 187.372H191.635C191.715 187.372 191.787 187.412 191.851 187.492C192.043 187.716 192.251 187.892 192.475 188.02C192.699 188.148 192.999 188.212 193.375 188.212C193.791 188.212 194.127 188.132 194.383 187.972C194.647 187.804 194.779 187.576 194.779 187.288C194.779 187.096 194.723 186.94 194.611 186.82C194.507 186.692 194.323 186.584 194.059 186.496C193.803 186.4 193.419 186.296 192.907 186.184C192.211 186.032 191.715 185.812 191.419 185.524C191.131 185.236 190.987 184.864 190.987 184.408C190.987 184.104 191.075 183.816 191.251 183.544C191.435 183.264 191.699 183.04 192.043 182.872C192.395 182.696 192.815 182.608 193.303 182.608C193.815 182.608 194.251 182.692 194.611 182.86C194.971 183.028 195.239 183.228 195.415 183.46C195.599 183.684 195.691 183.872 195.691 184.024C195.691 184.096 195.663 184.156 195.607 184.204C195.559 184.252 195.499 184.276 195.427 184.276H194.923C194.827 184.276 194.747 184.236 194.683 184.156C194.555 184.004 194.443 183.888 194.347 183.808C194.259 183.72 194.127 183.644 193.951 183.58C193.783 183.516 193.567 183.484 193.303 183.484C192.919 183.484 192.623 183.568 192.415 183.736C192.207 183.896 192.103 184.108 192.103 184.372C192.103 184.54 192.147 184.684 192.235 184.804C192.323 184.916 192.491 185.02 192.739 185.116C192.995 185.212 193.363 185.312 193.843 185.416C194.603 185.576 195.139 185.808 195.451 186.112C195.771 186.408 195.931 186.788 195.931 187.252C195.931 187.596 195.831 187.908 195.631 188.188C195.431 188.468 195.135 188.688 194.743 188.848C194.359 189.008 193.899 189.088 193.363 189.088ZM198.472 188.968C198.392 188.968 198.324 188.944 198.268 188.896C198.22 188.84 198.196 188.772 198.196 188.692V187.828C198.196 187.748 198.22 187.684 198.268 187.636C198.324 187.58 198.392 187.552 198.472 187.552H199.336C199.416 187.552 199.484 187.58 199.54 187.636C199.596 187.684 199.624 187.748 199.624 187.828V188.692C199.624 188.772 199.596 188.84 199.54 188.896C199.484 188.944 199.416 188.968 199.336 188.968H198.472Z" fill="#616161"/>
<path d="M70.6626 147.128C69.1372 147.128 67.9426 146.76 67.0786 146.024C66.2252 145.277 65.7719 144.2 65.7186 142.792C65.7079 142.504 65.7026 142.034 65.7026 141.384C65.7026 140.722 65.7079 140.242 65.7186 139.944C65.7719 138.557 66.2359 137.49 67.1106 136.744C67.9852 135.986 69.1692 135.608 70.6626 135.608C71.6012 135.608 72.4439 135.768 73.1906 136.088C73.9372 136.397 74.5239 136.845 74.9506 137.432C75.3879 138.008 75.6119 138.685 75.6226 139.464V139.496C75.6226 139.581 75.5852 139.656 75.5106 139.72C75.4466 139.773 75.3719 139.8 75.2866 139.8H73.1266C72.9879 139.8 72.8812 139.773 72.8066 139.72C72.7319 139.656 72.6679 139.544 72.6146 139.384C72.4652 138.84 72.2306 138.461 71.9106 138.248C71.5906 138.024 71.1692 137.912 70.6466 137.912C69.3879 137.912 68.7372 138.616 68.6946 140.024C68.6839 140.312 68.6786 140.754 68.6786 141.352C68.6786 141.949 68.6839 142.402 68.6946 142.712C68.7372 144.12 69.3879 144.824 70.6466 144.824C71.1692 144.824 71.5959 144.712 71.9266 144.488C72.2572 144.253 72.4866 143.874 72.6146 143.352C72.6572 143.192 72.7159 143.085 72.7906 143.032C72.8652 142.968 72.9772 142.936 73.1266 142.936H75.2866C75.3826 142.936 75.4626 142.968 75.5266 143.032C75.6012 143.096 75.6332 143.176 75.6226 143.272C75.6119 144.05 75.3879 144.733 74.9506 145.32C74.5239 145.896 73.9372 146.344 73.1906 146.664C72.4439 146.973 71.6012 147.128 70.6626 147.128ZM82.3449 147.128C81.0223 147.128 80.0036 146.813 79.2889 146.184C78.5743 145.554 78.1849 144.669 78.1209 143.528C78.1103 143.389 78.1049 143.149 78.1049 142.808C78.1049 142.466 78.1103 142.226 78.1209 142.088C78.1849 140.957 78.5849 140.077 79.3209 139.448C80.0569 138.808 81.0649 138.488 82.3449 138.488C83.6356 138.488 84.6489 138.808 85.3849 139.448C86.1209 140.077 86.5209 140.957 86.5849 142.088C86.5956 142.226 86.6009 142.466 86.6009 142.808C86.6009 143.149 86.5956 143.389 86.5849 143.528C86.5209 144.669 86.1316 145.554 85.4169 146.184C84.7023 146.813 83.6783 147.128 82.3449 147.128ZM82.3449 145.176C82.8143 145.176 83.1609 145.037 83.3849 144.76C83.6089 144.472 83.7369 144.034 83.7689 143.448C83.7796 143.341 83.7849 143.128 83.7849 142.808C83.7849 142.488 83.7796 142.274 83.7689 142.168C83.7369 141.592 83.6036 141.16 83.3689 140.872C83.1449 140.584 82.8036 140.44 82.3449 140.44C81.4596 140.44 80.9903 141.016 80.9369 142.168L80.9209 142.808L80.9369 143.448C80.9583 144.034 81.0809 144.472 81.3049 144.76C81.5396 145.037 81.8863 145.176 82.3449 145.176ZM89.8702 146.968C89.7529 146.968 89.6569 146.93 89.5822 146.856C89.5075 146.781 89.4702 146.685 89.4702 146.568V139.048C89.4702 138.93 89.5075 138.834 89.5822 138.76C89.6569 138.685 89.7529 138.648 89.8702 138.648H91.7102C91.8275 138.648 91.9235 138.685 91.9982 138.76C92.0835 138.834 92.1262 138.93 92.1262 139.048V139.656C92.4142 139.304 92.7822 139.021 93.2302 138.808C93.6889 138.594 94.2062 138.488 94.7822 138.488C95.7209 138.488 96.4835 138.808 97.0702 139.448C97.6569 140.077 97.9502 140.962 97.9502 142.104V146.568C97.9502 146.674 97.9129 146.77 97.8382 146.856C97.7635 146.93 97.6675 146.968 97.5502 146.968H95.5342C95.4275 146.968 95.3315 146.93 95.2462 146.856C95.1715 146.77 95.1342 146.674 95.1342 146.568V142.2C95.1342 141.698 95.0115 141.314 94.7662 141.048C94.5209 140.77 94.1689 140.632 93.7102 140.632C93.2622 140.632 92.9102 140.77 92.6542 141.048C92.3982 141.314 92.2702 141.698 92.2702 142.2V146.568C92.2702 146.674 92.2329 146.77 92.1582 146.856C92.0835 146.93 91.9875 146.968 91.8702 146.968H89.8702ZM104.135 147.128C103.09 147.128 102.274 146.802 101.687 146.152C101.111 145.49 100.797 144.562 100.743 143.368L100.727 142.808L100.743 142.232C100.786 141.08 101.101 140.168 101.687 139.496C102.285 138.824 103.101 138.488 104.135 138.488C105.106 138.488 105.89 138.802 106.487 139.432V136.008C106.487 135.89 106.525 135.794 106.599 135.72C106.674 135.645 106.77 135.608 106.887 135.608H108.839C108.957 135.608 109.053 135.645 109.127 135.72C109.202 135.794 109.239 135.89 109.239 136.008V146.568C109.239 146.674 109.202 146.77 109.127 146.856C109.053 146.93 108.957 146.968 108.839 146.968H107.031C106.925 146.968 106.829 146.93 106.743 146.856C106.669 146.77 106.631 146.674 106.631 146.568V146.056C106.045 146.77 105.213 147.128 104.135 147.128ZM105.015 144.984C105.495 144.984 105.853 144.834 106.087 144.536C106.322 144.226 106.455 143.832 106.487 143.352C106.498 143.213 106.503 143.01 106.503 142.744C106.503 142.488 106.498 142.29 106.487 142.152C106.466 141.714 106.333 141.352 106.087 141.064C105.842 140.776 105.485 140.632 105.015 140.632C104.514 140.632 104.151 140.781 103.927 141.08C103.714 141.378 103.591 141.789 103.559 142.312C103.549 142.418 103.543 142.584 103.543 142.808C103.543 143.032 103.549 143.197 103.559 143.304C103.591 143.826 103.714 144.237 103.927 144.536C104.151 144.834 104.514 144.984 105.015 144.984ZM112.789 137.448C112.672 137.448 112.576 137.41 112.501 137.336C112.427 137.261 112.389 137.165 112.389 137.048V135.608C112.389 135.49 112.427 135.394 112.501 135.32C112.576 135.245 112.672 135.208 112.789 135.208H114.709C114.827 135.208 114.923 135.245 114.997 135.32C115.072 135.394 115.109 135.49 115.109 135.608V137.048C115.109 137.165 115.072 137.261 114.997 137.336C114.923 137.41 114.827 137.448 114.709 137.448H112.789ZM112.805 146.968C112.688 146.968 112.592 146.93 112.517 146.856C112.443 146.781 112.405 146.685 112.405 146.568V139.048C112.405 138.93 112.443 138.834 112.517 138.76C112.592 138.685 112.688 138.648 112.805 138.648H114.693C114.811 138.648 114.907 138.685 114.981 138.76C115.056 138.834 115.093 138.93 115.093 139.048V146.568C115.093 146.674 115.056 146.77 114.981 146.856C114.907 146.93 114.811 146.968 114.693 146.968H112.805ZM122.519 146.968C120.311 146.968 119.207 145.917 119.207 143.816V140.744H117.959C117.842 140.744 117.741 140.706 117.655 140.632C117.581 140.557 117.543 140.461 117.543 140.344V139.048C117.543 138.93 117.581 138.834 117.655 138.76C117.741 138.685 117.842 138.648 117.959 138.648H119.207V136.008C119.207 135.89 119.245 135.794 119.319 135.72C119.405 135.645 119.501 135.608 119.607 135.608H121.463C121.581 135.608 121.677 135.645 121.751 135.72C121.826 135.794 121.863 135.89 121.863 136.008V138.648H123.863C123.981 138.648 124.077 138.685 124.151 138.76C124.237 138.834 124.279 138.93 124.279 139.048V140.344C124.279 140.461 124.237 140.557 124.151 140.632C124.077 140.706 123.981 140.744 123.863 140.744H121.863V143.592C121.863 144.381 122.167 144.776 122.775 144.776H124.007C124.125 144.776 124.221 144.813 124.295 144.888C124.37 144.962 124.407 145.058 124.407 145.176V146.568C124.407 146.674 124.37 146.77 124.295 146.856C124.221 146.93 124.125 146.968 124.007 146.968H122.519ZM127.396 137.448C127.279 137.448 127.183 137.41 127.108 137.336C127.033 137.261 126.996 137.165 126.996 137.048V135.608C126.996 135.49 127.033 135.394 127.108 135.32C127.183 135.245 127.279 135.208 127.396 135.208H129.316C129.433 135.208 129.529 135.245 129.604 135.32C129.679 135.394 129.716 135.49 129.716 135.608V137.048C129.716 137.165 129.679 137.261 129.604 137.336C129.529 137.41 129.433 137.448 129.316 137.448H127.396ZM127.412 146.968C127.295 146.968 127.199 146.93 127.124 146.856C127.049 146.781 127.012 146.685 127.012 146.568V139.048C127.012 138.93 127.049 138.834 127.124 138.76C127.199 138.685 127.295 138.648 127.412 138.648H129.3C129.417 138.648 129.513 138.685 129.588 138.76C129.663 138.834 129.7 138.93 129.7 139.048V146.568C129.7 146.674 129.663 146.77 129.588 146.856C129.513 146.93 129.417 146.968 129.3 146.968H127.412ZM136.806 147.128C135.484 147.128 134.465 146.813 133.75 146.184C133.036 145.554 132.646 144.669 132.582 143.528C132.572 143.389 132.566 143.149 132.566 142.808C132.566 142.466 132.572 142.226 132.582 142.088C132.646 140.957 133.046 140.077 133.782 139.448C134.518 138.808 135.526 138.488 136.806 138.488C138.097 138.488 139.11 138.808 139.846 139.448C140.582 140.077 140.982 140.957 141.046 142.088C141.057 142.226 141.062 142.466 141.062 142.808C141.062 143.149 141.057 143.389 141.046 143.528C140.982 144.669 140.593 145.554 139.878 146.184C139.164 146.813 138.14 147.128 136.806 147.128ZM136.806 145.176C137.276 145.176 137.622 145.037 137.846 144.76C138.07 144.472 138.198 144.034 138.23 143.448C138.241 143.341 138.246 143.128 138.246 142.808C138.246 142.488 138.241 142.274 138.23 142.168C138.198 141.592 138.065 141.16 137.83 140.872C137.606 140.584 137.265 140.44 136.806 140.44C135.921 140.44 135.452 141.016 135.398 142.168L135.382 142.808L135.398 143.448C135.42 144.034 135.542 144.472 135.766 144.76C136.001 145.037 136.348 145.176 136.806 145.176ZM144.331 146.968C144.214 146.968 144.118 146.93 144.043 146.856C143.969 146.781 143.931 146.685 143.931 146.568V139.048C143.931 138.93 143.969 138.834 144.043 138.76C144.118 138.685 144.214 138.648 144.331 138.648H146.171C146.289 138.648 146.385 138.685 146.459 138.76C146.545 138.834 146.587 138.93 146.587 139.048V139.656C146.875 139.304 147.243 139.021 147.691 138.808C148.15 138.594 148.667 138.488 149.243 138.488C150.182 138.488 150.945 138.808 151.531 139.448C152.118 140.077 152.411 140.962 152.411 142.104V146.568C152.411 146.674 152.374 146.77 152.299 146.856C152.225 146.93 152.129 146.968 152.011 146.968H149.995C149.889 146.968 149.793 146.93 149.707 146.856C149.633 146.77 149.595 146.674 149.595 146.568V142.2C149.595 141.698 149.473 141.314 149.227 141.048C148.982 140.77 148.63 140.632 148.171 140.632C147.723 140.632 147.371 140.77 147.115 141.048C146.859 141.314 146.731 141.698 146.731 142.2V146.568C146.731 146.674 146.694 146.77 146.619 146.856C146.545 146.93 146.449 146.968 146.331 146.968H144.331ZM158.917 147.128C158.053 147.128 157.327 147.005 156.741 146.76C156.165 146.514 155.738 146.221 155.461 145.88C155.183 145.538 155.045 145.234 155.045 144.968C155.045 144.861 155.082 144.776 155.157 144.712C155.242 144.637 155.333 144.6 155.429 144.6H157.253C157.317 144.6 157.375 144.626 157.429 144.68C157.557 144.765 157.653 144.834 157.717 144.888C157.951 145.058 158.154 145.186 158.325 145.272C158.506 145.346 158.725 145.384 158.981 145.384C159.29 145.384 159.541 145.325 159.733 145.208C159.935 145.08 160.037 144.904 160.037 144.68C160.037 144.498 159.983 144.354 159.877 144.248C159.781 144.141 159.589 144.04 159.301 143.944C159.013 143.837 158.575 143.725 157.989 143.608C157.103 143.426 156.421 143.133 155.941 142.728C155.471 142.312 155.237 141.757 155.237 141.064C155.237 140.626 155.375 140.21 155.653 139.816C155.93 139.421 156.341 139.101 156.885 138.856C157.439 138.61 158.095 138.488 158.853 138.488C159.61 138.488 160.271 138.605 160.837 138.84C161.402 139.074 161.829 139.362 162.117 139.704C162.415 140.034 162.565 140.338 162.565 140.616C162.565 140.712 162.527 140.797 162.453 140.872C162.389 140.946 162.309 140.984 162.213 140.984H160.549C160.463 140.984 160.383 140.957 160.309 140.904C160.17 140.829 160.047 140.749 159.941 140.664C159.759 140.525 159.589 140.418 159.429 140.344C159.269 140.269 159.071 140.232 158.837 140.232C158.559 140.232 158.335 140.296 158.165 140.424C158.005 140.552 157.925 140.717 157.925 140.92C157.925 141.08 157.967 141.213 158.053 141.32C158.149 141.426 158.341 141.533 158.629 141.64C158.927 141.736 159.365 141.837 159.941 141.944C160.975 142.125 161.727 142.445 162.197 142.904C162.677 143.362 162.917 143.901 162.917 144.52C162.917 145.309 162.565 145.944 161.861 146.424C161.157 146.893 160.175 147.128 158.917 147.128Z" fill="black"/>
<path d="M94.5815 0.967773C88.2049 0.967773 82.0895 3.4698 77.5806 7.92344C73.0717 12.3771 70.5386 18.4175 70.5386 24.7159C70.5386 26.8748 70.9321 29.0337 71.5003 31.1927H89.3358L94.8875 16.6415C96.1989 13.1873 101.357 12.8418 103.018 16.6415L112.067 39.8283L114.646 33.697C115.215 32.2721 116.745 31.1927 118.624 31.1927H157.005C157.574 29.0337 157.967 26.8748 157.967 24.7159C157.967 18.4175 155.434 12.3771 150.925 7.92344C146.416 3.4698 140.301 0.967773 133.924 0.967773C125.793 0.967773 118.624 4.98337 114.253 11.0715C109.881 4.98337 102.712 0.967773 94.5815 0.967773ZM74.9101 37.6694C73.7507 37.6694 72.6388 38.1243 71.819 38.9341C70.9992 39.7438 70.5386 40.8421 70.5386 41.9873C70.5386 43.1324 70.9992 44.2307 71.819 45.0404C72.6388 45.8502 73.7507 46.3051 74.9101 46.3051H85.5763L109.881 70.0532C114.253 73.9393 114.253 73.9393 118.624 70.0532L142.929 46.3051H153.596C154.755 46.3051 155.867 45.8502 156.687 45.0404C157.507 44.2307 157.967 43.1324 157.967 41.9873C157.967 40.8421 157.507 39.7438 156.687 38.9341C155.867 38.1243 154.755 37.6694 153.596 37.6694H120.373L116.307 47.6005C114.559 51.9615 109.532 51.357 107.914 47.73L98.9529 24.7159L94.7563 34.7765C94.1006 36.4172 92.6143 37.6694 90.6472 37.6694H74.9101Z" fill="#EC5863"/>
</svg>
