<svg width="228" height="204" viewBox="0 0 228 204" fill="none" xmlns="http://www.w3.org/2000/svg">
<path d="M26.3873 171.758C25.3153 171.758 24.4993 171.47 23.9393 170.894C23.3873 170.318 23.0913 169.522 23.0513 168.506C23.0433 168.29 23.0393 167.938 23.0393 167.45C23.0393 166.954 23.0433 166.594 23.0513 166.37C23.0913 165.362 23.3913 164.57 23.9513 163.994C24.5113 163.41 25.3233 163.118 26.3873 163.118C27.0993 163.118 27.7033 163.246 28.1993 163.502C28.6953 163.75 29.0713 164.078 29.3273 164.486C29.5833 164.894 29.7233 165.33 29.7473 165.794V165.818C29.7473 165.882 29.7193 165.938 29.6633 165.986C29.6153 166.026 29.5593 166.046 29.4953 166.046H28.8353C28.6753 166.046 28.5753 165.954 28.5353 165.77C28.3993 165.17 28.1553 164.75 27.8033 164.51C27.4513 164.262 26.9793 164.138 26.3873 164.138C25.0113 164.138 24.2993 164.902 24.2513 166.43C24.2433 166.646 24.2393 166.978 24.2393 167.426C24.2393 167.874 24.2433 168.214 24.2513 168.446C24.2993 169.974 25.0113 170.738 26.3873 170.738C26.9793 170.738 27.4513 170.618 27.8033 170.378C28.1633 170.13 28.4073 169.706 28.5353 169.106C28.5593 169.002 28.5953 168.93 28.6433 168.89C28.6913 168.85 28.7553 168.83 28.8353 168.83H29.4953C29.5673 168.83 29.6273 168.854 29.6753 168.902C29.7313 168.942 29.7553 168.998 29.7473 169.07C29.7233 169.542 29.5833 169.982 29.3273 170.39C29.0713 170.798 28.6953 171.13 28.1993 171.386C27.7033 171.634 27.0993 171.758 26.3873 171.758ZM34.7155 171.758C33.8355 171.758 33.1515 171.51 32.6635 171.014C32.1835 170.518 31.9275 169.858 31.8955 169.034L31.8835 168.518L31.8955 168.002C31.9275 167.186 32.1875 166.53 32.6755 166.034C33.1635 165.53 33.8435 165.278 34.7155 165.278C35.5875 165.278 36.2675 165.53 36.7555 166.034C37.2435 166.53 37.5035 167.186 37.5355 168.002C37.5435 168.09 37.5475 168.262 37.5475 168.518C37.5475 168.774 37.5435 168.946 37.5355 169.034C37.5035 169.858 37.2435 170.518 36.7555 171.014C36.2755 171.51 35.5955 171.758 34.7155 171.758ZM34.7155 170.834C35.2195 170.834 35.6155 170.674 35.9035 170.354C36.1995 170.034 36.3595 169.574 36.3835 168.974C36.3915 168.894 36.3955 168.742 36.3955 168.518C36.3955 168.294 36.3915 168.142 36.3835 168.062C36.3595 167.462 36.1995 167.002 35.9035 166.682C35.6155 166.362 35.2195 166.202 34.7155 166.202C34.2115 166.202 33.8115 166.362 33.5155 166.682C33.2195 167.002 33.0635 167.462 33.0475 168.062L33.0355 168.518L33.0475 168.974C33.0635 169.574 33.2195 170.034 33.5155 170.354C33.8115 170.674 34.2115 170.834 34.7155 170.834ZM40.2861 171.638C40.2061 171.638 40.1381 171.614 40.0821 171.566C40.0341 171.51 40.0101 171.442 40.0101 171.362V165.674C40.0101 165.594 40.0341 165.53 40.0821 165.482C40.1381 165.426 40.2061 165.398 40.2861 165.398H40.8501C40.9301 165.398 40.9941 165.426 41.0421 165.482C41.0981 165.53 41.1261 165.594 41.1261 165.674V166.202C41.3581 165.906 41.6301 165.678 41.9421 165.518C42.2621 165.358 42.6581 165.278 43.1301 165.278C43.8981 165.278 44.4941 165.526 44.9181 166.022C45.3501 166.51 45.5661 167.162 45.5661 167.978V171.362C45.5661 171.442 45.5381 171.51 45.4821 171.566C45.4341 171.614 45.3701 171.638 45.2901 171.638H44.6901C44.6101 171.638 44.5421 171.614 44.4861 171.566C44.4381 171.51 44.4141 171.442 44.4141 171.362V168.038C44.4141 167.47 44.2741 167.03 43.9941 166.718C43.7221 166.406 43.3261 166.25 42.8061 166.25C42.3021 166.25 41.9021 166.41 41.6061 166.73C41.3101 167.042 41.1621 167.478 41.1621 168.038V171.362C41.1621 171.442 41.1341 171.51 41.0781 171.566C41.0301 171.614 40.9661 171.638 40.8861 171.638H40.2861ZM50.4074 171.758C49.8474 171.758 49.3754 171.67 48.9914 171.494C48.6154 171.31 48.3314 171.102 48.1394 170.87C47.9554 170.638 47.8634 170.446 47.8634 170.294C47.8634 170.214 47.8914 170.154 47.9474 170.114C48.0114 170.066 48.0754 170.042 48.1394 170.042H48.6794C48.7594 170.042 48.8314 170.082 48.8954 170.162C49.0874 170.386 49.2954 170.562 49.5194 170.69C49.7434 170.818 50.0434 170.882 50.4194 170.882C50.8354 170.882 51.1714 170.802 51.4274 170.642C51.6914 170.474 51.8234 170.246 51.8234 169.958C51.8234 169.766 51.7674 169.61 51.6554 169.49C51.5514 169.362 51.3674 169.254 51.1034 169.166C50.8474 169.07 50.4634 168.966 49.9514 168.854C49.2554 168.702 48.7594 168.482 48.4634 168.194C48.1754 167.906 48.0314 167.534 48.0314 167.078C48.0314 166.774 48.1194 166.486 48.2954 166.214C48.4794 165.934 48.7434 165.71 49.0874 165.542C49.4394 165.366 49.8594 165.278 50.3474 165.278C50.8594 165.278 51.2954 165.362 51.6554 165.53C52.0154 165.698 52.2834 165.898 52.4594 166.13C52.6434 166.354 52.7354 166.542 52.7354 166.694C52.7354 166.766 52.7074 166.826 52.6514 166.874C52.6034 166.922 52.5434 166.946 52.4714 166.946H51.9674C51.8714 166.946 51.7914 166.906 51.7274 166.826C51.5994 166.674 51.4874 166.558 51.3914 166.478C51.3034 166.39 51.1714 166.314 50.9954 166.25C50.8274 166.186 50.6114 166.154 50.3474 166.154C49.9634 166.154 49.6674 166.238 49.4594 166.406C49.2514 166.566 49.1474 166.778 49.1474 167.042C49.1474 167.21 49.1914 167.354 49.2794 167.474C49.3674 167.586 49.5354 167.69 49.7834 167.786C50.0394 167.882 50.4074 167.982 50.8874 168.086C51.6474 168.246 52.1834 168.478 52.4954 168.782C52.8154 169.078 52.9754 169.458 52.9754 169.922C52.9754 170.266 52.8754 170.578 52.6754 170.858C52.4754 171.138 52.1794 171.358 51.7874 171.518C51.4034 171.678 50.9434 171.758 50.4074 171.758ZM57.6526 171.758C56.8926 171.758 56.3046 171.514 55.8886 171.026C55.4726 170.53 55.2646 169.874 55.2646 169.058V165.674C55.2646 165.594 55.2886 165.53 55.3366 165.482C55.3926 165.426 55.4606 165.398 55.5406 165.398H56.1406C56.2206 165.398 56.2846 165.426 56.3326 165.482C56.3886 165.53 56.4166 165.594 56.4166 165.674V168.998C56.4166 170.19 56.9366 170.786 57.9766 170.786C58.4806 170.786 58.8806 170.63 59.1766 170.318C59.4726 169.998 59.6206 169.558 59.6206 168.998V165.674C59.6206 165.594 59.6446 165.53 59.6926 165.482C59.7486 165.426 59.8166 165.398 59.8966 165.398H60.4966C60.5766 165.398 60.6406 165.426 60.6886 165.482C60.7366 165.53 60.7606 165.594 60.7606 165.674V171.362C60.7606 171.442 60.7366 171.51 60.6886 171.566C60.6406 171.614 60.5766 171.638 60.4966 171.638H59.9326C59.8526 171.638 59.7846 171.614 59.7286 171.566C59.6806 171.51 59.6566 171.442 59.6566 171.362V170.834C59.4326 171.138 59.1606 171.37 58.8406 171.53C58.5206 171.682 58.1246 171.758 57.6526 171.758ZM63.7914 171.638C63.7114 171.638 63.6434 171.614 63.5874 171.566C63.5394 171.51 63.5154 171.442 63.5154 171.362V163.394C63.5154 163.314 63.5394 163.25 63.5874 163.202C63.6434 163.146 63.7114 163.118 63.7914 163.118H64.3554C64.4354 163.118 64.4994 163.146 64.5474 163.202C64.6034 163.25 64.6314 163.314 64.6314 163.394V171.362C64.6314 171.442 64.6034 171.51 64.5474 171.566C64.4994 171.614 64.4354 171.638 64.3554 171.638H63.7914ZM69.8173 171.638C68.5533 171.638 67.9213 170.934 67.9213 169.526V166.358H66.9853C66.9053 166.358 66.8373 166.334 66.7813 166.286C66.7333 166.23 66.7093 166.162 66.7093 166.082V165.674C66.7093 165.594 66.7333 165.53 66.7813 165.482C66.8373 165.426 66.9053 165.398 66.9853 165.398H67.9213V163.394C67.9213 163.314 67.9453 163.25 67.9933 163.202C68.0493 163.146 68.1173 163.118 68.1973 163.118H68.7613C68.8413 163.118 68.9053 163.146 68.9533 163.202C69.0093 163.25 69.0373 163.314 69.0373 163.394V165.398H70.5253C70.6053 165.398 70.6693 165.426 70.7173 165.482C70.7733 165.53 70.8013 165.594 70.8013 165.674V166.082C70.8013 166.162 70.7733 166.23 70.7173 166.286C70.6693 166.334 70.6053 166.358 70.5253 166.358H69.0373V169.442C69.0373 169.842 69.1053 170.146 69.2413 170.354C69.3773 170.554 69.6013 170.654 69.9133 170.654H70.6453C70.7253 170.654 70.7893 170.682 70.8373 170.738C70.8933 170.786 70.9213 170.85 70.9213 170.93V171.362C70.9213 171.442 70.8933 171.51 70.8373 171.566C70.7893 171.614 70.7253 171.638 70.6453 171.638H69.8173ZM78.305 171.638C78.201 171.638 78.121 171.614 78.065 171.566C78.009 171.518 77.961 171.442 77.921 171.338L76.217 165.77L76.193 165.65C76.193 165.578 76.217 165.518 76.265 165.47C76.321 165.422 76.381 165.398 76.445 165.398H76.973C77.053 165.398 77.117 165.422 77.165 165.47C77.221 165.51 77.257 165.554 77.273 165.602L78.605 170.126L80.033 165.65C80.049 165.586 80.085 165.53 80.141 165.482C80.197 165.426 80.273 165.398 80.369 165.398H80.777C80.873 165.398 80.949 165.426 81.005 165.482C81.061 165.53 81.097 165.586 81.113 165.65L82.541 170.126L83.873 165.602C83.881 165.562 83.909 165.518 83.957 165.47C84.013 165.422 84.081 165.398 84.161 165.398H84.701C84.765 165.398 84.821 165.422 84.869 165.47C84.917 165.518 84.941 165.578 84.941 165.65L84.917 165.77L83.225 171.338C83.185 171.442 83.137 171.518 83.081 171.566C83.025 171.614 82.941 171.638 82.829 171.638H82.361C82.145 171.638 82.013 171.538 81.965 171.338L80.573 167.042L79.181 171.338C79.117 171.538 78.981 171.638 78.773 171.638H78.305ZM87.4101 164.234C87.3301 164.234 87.2621 164.21 87.2061 164.162C87.1581 164.106 87.1341 164.038 87.1341 163.958V163.31C87.1341 163.23 87.1581 163.162 87.2061 163.106C87.2621 163.05 87.3301 163.022 87.4101 163.022H88.1661C88.2461 163.022 88.3141 163.05 88.3701 163.106C88.4261 163.162 88.4541 163.23 88.4541 163.31V163.958C88.4541 164.038 88.4261 164.106 88.3701 164.162C88.3141 164.21 88.2461 164.234 88.1661 164.234H87.4101ZM87.5061 171.638C87.4261 171.638 87.3581 171.614 87.3021 171.566C87.2541 171.51 87.2301 171.442 87.2301 171.362V165.674C87.2301 165.594 87.2541 165.53 87.3021 165.482C87.3581 165.426 87.4261 165.398 87.5061 165.398H88.0821C88.1621 165.398 88.2261 165.426 88.2741 165.482C88.3301 165.53 88.3581 165.594 88.3581 165.674V171.362C88.3581 171.442 88.3301 171.51 88.2741 171.566C88.2261 171.614 88.1621 171.638 88.0821 171.638H87.5061ZM93.5323 171.638C92.2683 171.638 91.6363 170.934 91.6363 169.526V166.358H90.7003C90.6203 166.358 90.5523 166.334 90.4963 166.286C90.4483 166.23 90.4243 166.162 90.4243 166.082V165.674C90.4243 165.594 90.4483 165.53 90.4963 165.482C90.5523 165.426 90.6203 165.398 90.7003 165.398H91.6363V163.394C91.6363 163.314 91.6603 163.25 91.7083 163.202C91.7643 163.146 91.8323 163.118 91.9123 163.118H92.4763C92.5563 163.118 92.6203 163.146 92.6683 163.202C92.7243 163.25 92.7523 163.314 92.7523 163.394V165.398H94.2403C94.3203 165.398 94.3843 165.426 94.4323 165.482C94.4883 165.53 94.5163 165.594 94.5163 165.674V166.082C94.5163 166.162 94.4883 166.23 94.4323 166.286C94.3843 166.334 94.3203 166.358 94.2403 166.358H92.7523V169.442C92.7523 169.842 92.8203 170.146 92.9563 170.354C93.0923 170.554 93.3163 170.654 93.6283 170.654H94.3603C94.4403 170.654 94.5043 170.682 94.5523 170.738C94.6083 170.786 94.6363 170.85 94.6363 170.93V171.362C94.6363 171.442 94.6083 171.51 94.5523 171.566C94.5043 171.614 94.4403 171.638 94.3603 171.638H93.5323ZM97.0318 171.638C96.9518 171.638 96.8838 171.614 96.8278 171.566C96.7798 171.51 96.7558 171.442 96.7558 171.362V163.394C96.7558 163.314 96.7798 163.25 96.8278 163.202C96.8838 163.146 96.9518 163.118 97.0318 163.118H97.6318C97.7118 163.118 97.7758 163.146 97.8238 163.202C97.8798 163.25 97.9078 163.314 97.9078 163.394V166.19C98.1398 165.894 98.4118 165.67 98.7238 165.518C99.0358 165.358 99.4238 165.278 99.8878 165.278C100.656 165.278 101.252 165.526 101.676 166.022C102.108 166.51 102.324 167.162 102.324 167.978V171.362C102.324 171.442 102.296 171.51 102.24 171.566C102.192 171.614 102.128 171.638 102.048 171.638H101.448C101.368 171.638 101.3 171.614 101.244 171.566C101.196 171.51 101.172 171.442 101.172 171.362V168.038C101.172 167.47 101.032 167.03 100.752 166.718C100.48 166.406 100.084 166.25 99.5638 166.25C99.0598 166.25 98.6558 166.41 98.3518 166.73C98.0558 167.042 97.9078 167.478 97.9078 168.038V171.362C97.9078 171.442 97.8798 171.51 97.8238 171.566C97.7758 171.614 97.7118 171.638 97.6318 171.638H97.0318ZM111.342 171.638C111.262 171.638 111.194 171.614 111.138 171.566C111.09 171.51 111.066 171.442 111.066 171.362V164.642L109.074 166.178C109.018 166.226 108.958 166.25 108.894 166.25C108.822 166.25 108.754 166.21 108.69 166.13L108.378 165.734C108.338 165.678 108.318 165.622 108.318 165.566C108.318 165.47 108.358 165.394 108.438 165.338L111.054 163.322C111.142 163.266 111.246 163.238 111.366 163.238H111.978C112.058 163.238 112.122 163.266 112.17 163.322C112.226 163.37 112.254 163.434 112.254 163.514V171.362C112.254 171.442 112.226 171.51 112.17 171.566C112.122 171.614 112.058 171.638 111.978 171.638H111.342ZM117.927 171.758C116.895 171.758 116.139 171.458 115.659 170.858C115.179 170.258 114.923 169.47 114.891 168.494C114.883 168.278 114.879 167.93 114.879 167.45C114.879 166.954 114.883 166.594 114.891 166.37C114.915 165.41 115.171 164.63 115.659 164.03C116.147 163.422 116.903 163.118 117.927 163.118C118.959 163.118 119.719 163.422 120.207 164.03C120.695 164.63 120.951 165.41 120.975 166.37C120.991 166.818 120.999 167.178 120.999 167.45C120.999 167.714 120.991 168.062 120.975 168.494C120.943 169.47 120.687 170.258 120.207 170.858C119.727 171.458 118.967 171.758 117.927 171.758ZM117.927 170.726C118.527 170.726 118.979 170.526 119.283 170.126C119.595 169.726 119.759 169.162 119.775 168.434C119.791 167.97 119.799 167.634 119.799 167.426C119.799 167.202 119.791 166.874 119.775 166.442C119.759 165.722 119.599 165.158 119.295 164.75C118.991 164.342 118.535 164.138 117.927 164.138C117.327 164.138 116.871 164.342 116.559 164.75C116.255 165.158 116.095 165.722 116.079 166.442L116.067 167.426L116.079 168.434C116.095 169.162 116.255 169.726 116.559 170.126C116.871 170.526 117.327 170.726 117.927 170.726ZM123.328 172.538C123.264 172.538 123.212 172.514 123.172 172.466C123.14 172.418 123.128 172.358 123.136 172.286L123.412 170.57C123.444 170.338 123.556 170.222 123.748 170.222H124.552C124.608 170.222 124.652 170.242 124.684 170.282C124.724 170.322 124.744 170.37 124.744 170.426C124.744 170.466 124.732 170.53 124.708 170.618L124.072 172.262C124.032 172.358 123.988 172.426 123.94 172.466C123.892 172.514 123.82 172.538 123.724 172.538H123.328ZM130.1 171.758C129.068 171.758 128.312 171.458 127.832 170.858C127.352 170.258 127.096 169.47 127.064 168.494C127.056 168.278 127.052 167.93 127.052 167.45C127.052 166.954 127.056 166.594 127.064 166.37C127.088 165.41 127.344 164.63 127.832 164.03C128.32 163.422 129.076 163.118 130.1 163.118C131.132 163.118 131.892 163.422 132.38 164.03C132.868 164.63 133.124 165.41 133.148 166.37C133.164 166.818 133.172 167.178 133.172 167.45C133.172 167.714 133.164 168.062 133.148 168.494C133.116 169.47 132.86 170.258 132.38 170.858C131.9 171.458 131.14 171.758 130.1 171.758ZM130.1 170.726C130.7 170.726 131.152 170.526 131.456 170.126C131.768 169.726 131.932 169.162 131.948 168.434C131.964 167.97 131.972 167.634 131.972 167.426C131.972 167.202 131.964 166.874 131.948 166.442C131.932 165.722 131.772 165.158 131.468 164.75C131.164 164.342 130.708 164.138 130.1 164.138C129.5 164.138 129.044 164.342 128.732 164.75C128.428 165.158 128.268 165.722 128.252 166.442L128.24 167.426L128.252 168.434C128.268 169.162 128.428 169.726 128.732 170.126C129.044 170.526 129.5 170.726 130.1 170.726ZM138.678 171.758C137.646 171.758 136.89 171.458 136.41 170.858C135.93 170.258 135.674 169.47 135.642 168.494C135.634 168.278 135.63 167.93 135.63 167.45C135.63 166.954 135.634 166.594 135.642 166.37C135.666 165.41 135.922 164.63 136.41 164.03C136.898 163.422 137.654 163.118 138.678 163.118C139.71 163.118 140.47 163.422 140.958 164.03C141.446 164.63 141.702 165.41 141.726 166.37C141.742 166.818 141.75 167.178 141.75 167.45C141.75 167.714 141.742 168.062 141.726 168.494C141.694 169.47 141.438 170.258 140.958 170.858C140.478 171.458 139.718 171.758 138.678 171.758ZM138.678 170.726C139.278 170.726 139.73 170.526 140.034 170.126C140.346 169.726 140.51 169.162 140.526 168.434C140.542 167.97 140.55 167.634 140.55 167.426C140.55 167.202 140.542 166.874 140.526 166.442C140.51 165.722 140.35 165.158 140.046 164.75C139.742 164.342 139.286 164.138 138.678 164.138C138.078 164.138 137.622 164.342 137.31 164.75C137.006 165.158 136.846 165.722 136.83 166.442L136.818 167.426L136.83 168.434C136.846 169.162 137.006 169.726 137.31 170.126C137.622 170.526 138.078 170.726 138.678 170.726ZM147.255 171.758C146.223 171.758 145.467 171.458 144.987 170.858C144.507 170.258 144.251 169.47 144.219 168.494C144.211 168.278 144.207 167.93 144.207 167.45C144.207 166.954 144.211 166.594 144.219 166.37C144.243 165.41 144.499 164.63 144.987 164.03C145.475 163.422 146.231 163.118 147.255 163.118C148.287 163.118 149.047 163.422 149.535 164.03C150.023 164.63 150.279 165.41 150.303 166.37C150.319 166.818 150.327 167.178 150.327 167.45C150.327 167.714 150.319 168.062 150.303 168.494C150.271 169.47 150.015 170.258 149.535 170.858C149.055 171.458 148.295 171.758 147.255 171.758ZM147.255 170.726C147.855 170.726 148.307 170.526 148.611 170.126C148.923 169.726 149.087 169.162 149.103 168.434C149.119 167.97 149.127 167.634 149.127 167.426C149.127 167.202 149.119 166.874 149.103 166.442C149.087 165.722 148.927 165.158 148.623 164.75C148.319 164.342 147.863 164.138 147.255 164.138C146.655 164.138 146.199 164.342 145.887 164.75C145.583 165.158 145.423 165.722 145.407 166.442L145.395 167.426L145.407 168.434C145.423 169.162 145.583 169.726 145.887 170.126C146.199 170.526 146.655 170.726 147.255 170.726ZM155.544 171.242C155.464 171.242 155.396 171.218 155.34 171.17C155.292 171.114 155.268 171.046 155.268 170.966V168.47H152.808C152.728 168.47 152.66 168.446 152.604 168.398C152.556 168.342 152.532 168.274 152.532 168.194V167.81C152.532 167.73 152.556 167.666 152.604 167.618C152.66 167.562 152.728 167.534 152.808 167.534H155.268V165.11C155.268 165.03 155.292 164.966 155.34 164.918C155.396 164.862 155.464 164.834 155.544 164.834H155.964C156.044 164.834 156.108 164.862 156.156 164.918C156.212 164.966 156.24 165.03 156.24 165.11V167.534H158.712C158.792 167.534 158.856 167.562 158.904 167.618C158.96 167.666 158.988 167.73 158.988 167.81V168.194C158.988 168.274 158.96 168.342 158.904 168.398C158.856 168.446 158.792 168.47 158.712 168.47H156.24V170.966C156.24 171.046 156.212 171.114 156.156 171.17C156.108 171.218 156.044 171.242 155.964 171.242H155.544ZM165.53 171.638C165.45 171.638 165.382 171.614 165.326 171.566C165.278 171.51 165.254 171.442 165.254 171.362V163.394C165.254 163.314 165.278 163.25 165.326 163.202C165.382 163.146 165.45 163.118 165.53 163.118H166.13C166.21 163.118 166.274 163.146 166.322 163.202C166.378 163.25 166.406 163.314 166.406 163.394V166.19C166.638 165.894 166.91 165.67 167.222 165.518C167.534 165.358 167.922 165.278 168.386 165.278C169.154 165.278 169.75 165.526 170.174 166.022C170.606 166.51 170.822 167.162 170.822 167.978V171.362C170.822 171.442 170.794 171.51 170.738 171.566C170.69 171.614 170.626 171.638 170.546 171.638H169.946C169.866 171.638 169.798 171.614 169.742 171.566C169.694 171.51 169.67 171.442 169.67 171.362V168.038C169.67 167.47 169.53 167.03 169.25 166.718C168.978 166.406 168.582 166.25 168.062 166.25C167.558 166.25 167.154 166.41 166.85 166.73C166.554 167.042 166.406 167.478 166.406 168.038V171.362C166.406 171.442 166.378 171.51 166.322 171.566C166.274 171.614 166.21 171.638 166.13 171.638H165.53ZM176.011 171.758C175.187 171.758 174.527 171.506 174.031 171.002C173.543 170.49 173.275 169.794 173.227 168.914L173.215 168.506L173.227 168.11C173.283 167.246 173.555 166.558 174.043 166.046C174.539 165.534 175.191 165.278 175.999 165.278C176.887 165.278 177.575 165.562 178.063 166.13C178.551 166.69 178.795 167.45 178.795 168.41V168.614C178.795 168.694 178.767 168.762 178.711 168.818C178.663 168.866 178.599 168.89 178.519 168.89H174.367V168.998C174.391 169.518 174.547 169.962 174.835 170.33C175.131 170.69 175.519 170.87 175.999 170.87C176.367 170.87 176.667 170.798 176.899 170.654C177.139 170.502 177.315 170.346 177.427 170.186C177.499 170.09 177.551 170.034 177.583 170.018C177.623 169.994 177.691 169.982 177.787 169.982H178.375C178.447 169.982 178.507 170.002 178.555 170.042C178.603 170.082 178.627 170.138 178.627 170.21C178.627 170.386 178.515 170.598 178.291 170.846C178.075 171.094 177.767 171.31 177.367 171.494C176.975 171.67 176.523 171.758 176.011 171.758ZM177.655 168.062V168.026C177.655 167.474 177.503 167.026 177.199 166.682C176.903 166.33 176.503 166.154 175.999 166.154C175.495 166.154 175.095 166.33 174.799 166.682C174.511 167.026 174.367 167.474 174.367 168.026V168.062H177.655ZM182.93 171.758C182.538 171.758 182.174 171.678 181.838 171.518C181.502 171.358 181.234 171.142 181.034 170.87C180.842 170.59 180.746 170.282 180.746 169.946C180.746 169.418 180.962 168.986 181.394 168.65C181.834 168.306 182.426 168.082 183.17 167.978L184.958 167.726V167.378C184.958 166.562 184.49 166.154 183.554 166.154C183.202 166.154 182.914 166.23 182.69 166.382C182.466 166.526 182.298 166.698 182.186 166.898C182.162 166.97 182.13 167.022 182.09 167.054C182.058 167.086 182.01 167.102 181.946 167.102H181.43C181.358 167.102 181.294 167.078 181.238 167.03C181.19 166.974 181.166 166.91 181.166 166.838C181.174 166.646 181.262 166.43 181.43 166.19C181.606 165.942 181.874 165.73 182.234 165.554C182.594 165.37 183.038 165.278 183.566 165.278C184.462 165.278 185.106 165.49 185.498 165.914C185.89 166.33 186.086 166.85 186.086 167.474V171.362C186.086 171.442 186.058 171.51 186.002 171.566C185.954 171.614 185.89 171.638 185.81 171.638H185.258C185.178 171.638 185.11 171.614 185.054 171.566C185.006 171.51 184.982 171.442 184.982 171.362V170.846C184.806 171.102 184.55 171.318 184.214 171.494C183.878 171.67 183.45 171.758 182.93 171.758ZM183.182 170.858C183.702 170.858 184.126 170.69 184.454 170.354C184.79 170.01 184.958 169.518 184.958 168.878V168.542L183.566 168.746C182.998 168.826 182.57 168.962 182.282 169.154C181.994 169.338 181.85 169.574 181.85 169.862C181.85 170.182 181.982 170.43 182.246 170.606C182.51 170.774 182.822 170.858 183.182 170.858ZM189.059 171.638C188.979 171.638 188.911 171.614 188.855 171.566C188.807 171.51 188.783 171.442 188.783 171.362V163.394C188.783 163.314 188.807 163.25 188.855 163.202C188.911 163.146 188.979 163.118 189.059 163.118H189.623C189.703 163.118 189.767 163.146 189.815 163.202C189.871 163.25 189.899 163.314 189.899 163.394V171.362C189.899 171.442 189.871 171.51 189.815 171.566C189.767 171.614 189.703 171.638 189.623 171.638H189.059ZM195.085 171.638C193.821 171.638 193.189 170.934 193.189 169.526V166.358H192.253C192.173 166.358 192.105 166.334 192.049 166.286C192.001 166.23 191.977 166.162 191.977 166.082V165.674C191.977 165.594 192.001 165.53 192.049 165.482C192.105 165.426 192.173 165.398 192.253 165.398H193.189V163.394C193.189 163.314 193.213 163.25 193.261 163.202C193.317 163.146 193.385 163.118 193.465 163.118H194.029C194.109 163.118 194.173 163.146 194.221 163.202C194.277 163.25 194.305 163.314 194.305 163.394V165.398H195.793C195.873 165.398 195.937 165.426 195.985 165.482C196.041 165.53 196.069 165.594 196.069 165.674V166.082C196.069 166.162 196.041 166.23 195.985 166.286C195.937 166.334 195.873 166.358 195.793 166.358H194.305V169.442C194.305 169.842 194.373 170.146 194.509 170.354C194.645 170.554 194.869 170.654 195.181 170.654H195.913C195.993 170.654 196.057 170.682 196.105 170.738C196.161 170.786 196.189 170.85 196.189 170.93V171.362C196.189 171.442 196.161 171.51 196.105 171.566C196.057 171.614 195.993 171.638 195.913 171.638H195.085ZM198.584 171.638C198.504 171.638 198.436 171.614 198.38 171.566C198.332 171.51 198.308 171.442 198.308 171.362V163.394C198.308 163.314 198.332 163.25 198.38 163.202C198.436 163.146 198.504 163.118 198.584 163.118H199.184C199.264 163.118 199.328 163.146 199.376 163.202C199.432 163.25 199.46 163.314 199.46 163.394V166.19C199.692 165.894 199.964 165.67 200.276 165.518C200.588 165.358 200.976 165.278 201.44 165.278C202.208 165.278 202.804 165.526 203.228 166.022C203.66 166.51 203.876 167.162 203.876 167.978V171.362C203.876 171.442 203.848 171.51 203.792 171.566C203.744 171.614 203.68 171.638 203.6 171.638H203C202.92 171.638 202.852 171.614 202.796 171.566C202.748 171.51 202.724 171.442 202.724 171.362V168.038C202.724 167.47 202.584 167.03 202.304 166.718C202.032 166.406 201.636 166.25 201.116 166.25C200.612 166.25 200.208 166.41 199.904 166.73C199.608 167.042 199.46 167.478 199.46 168.038V171.362C199.46 171.442 199.432 171.51 199.376 171.566C199.328 171.614 199.264 171.638 199.184 171.638H198.584ZM21.0137 188.638C20.9097 188.638 20.8297 188.614 20.7737 188.566C20.7177 188.518 20.6697 188.442 20.6297 188.338L18.9257 182.77L18.9017 182.65C18.9017 182.578 18.9257 182.518 18.9737 182.47C19.0297 182.422 19.0897 182.398 19.1537 182.398H19.6817C19.7617 182.398 19.8257 182.422 19.8737 182.47C19.9297 182.51 19.9657 182.554 19.9817 182.602L21.3137 187.126L22.7417 182.65C22.7577 182.586 22.7937 182.53 22.8497 182.482C22.9057 182.426 22.9817 182.398 23.0777 182.398H23.4857C23.5817 182.398 23.6577 182.426 23.7137 182.482C23.7697 182.53 23.8057 182.586 23.8217 182.65L25.2497 187.126L26.5817 182.602C26.5897 182.562 26.6177 182.518 26.6657 182.47C26.7217 182.422 26.7897 182.398 26.8697 182.398H27.4097C27.4737 182.398 27.5297 182.422 27.5777 182.47C27.6257 182.518 27.6497 182.578 27.6497 182.65L27.6257 182.77L25.9337 188.338C25.8937 188.442 25.8457 188.518 25.7897 188.566C25.7337 188.614 25.6497 188.638 25.5377 188.638H25.0697C24.8537 188.638 24.7217 188.538 24.6737 188.338L23.2817 184.042L21.8897 188.338C21.8257 188.538 21.6897 188.638 21.4817 188.638H21.0137ZM32.3307 188.758C31.4507 188.758 30.7667 188.51 30.2787 188.014C29.7987 187.518 29.5427 186.858 29.5107 186.034L29.4987 185.518L29.5107 185.002C29.5427 184.186 29.8027 183.53 30.2907 183.034C30.7787 182.53 31.4587 182.278 32.3307 182.278C33.2027 182.278 33.8827 182.53 34.3707 183.034C34.8587 183.53 35.1187 184.186 35.1507 185.002C35.1587 185.09 35.1627 185.262 35.1627 185.518C35.1627 185.774 35.1587 185.946 35.1507 186.034C35.1187 186.858 34.8587 187.518 34.3707 188.014C33.8907 188.51 33.2107 188.758 32.3307 188.758ZM32.3307 187.834C32.8347 187.834 33.2307 187.674 33.5187 187.354C33.8147 187.034 33.9747 186.574 33.9987 185.974C34.0067 185.894 34.0107 185.742 34.0107 185.518C34.0107 185.294 34.0067 185.142 33.9987 185.062C33.9747 184.462 33.8147 184.002 33.5187 183.682C33.2307 183.362 32.8347 183.202 32.3307 183.202C31.8267 183.202 31.4267 183.362 31.1307 183.682C30.8347 184.002 30.6787 184.462 30.6627 185.062L30.6507 185.518L30.6627 185.974C30.6787 186.574 30.8347 187.034 31.1307 187.354C31.4267 187.674 31.8267 187.834 32.3307 187.834ZM37.9013 188.638C37.8213 188.638 37.7533 188.614 37.6973 188.566C37.6493 188.51 37.6253 188.442 37.6253 188.362V182.686C37.6253 182.606 37.6493 182.538 37.6973 182.482C37.7533 182.426 37.8213 182.398 37.9013 182.398H38.4533C38.5333 182.398 38.6013 182.426 38.6573 182.482C38.7133 182.538 38.7413 182.606 38.7413 182.686V183.214C39.0693 182.67 39.6293 182.398 40.4213 182.398H40.8893C40.9693 182.398 41.0333 182.426 41.0813 182.482C41.1373 182.53 41.1653 182.594 41.1653 182.674V183.166C41.1653 183.246 41.1373 183.31 41.0813 183.358C41.0333 183.406 40.9693 183.43 40.8893 183.43H40.1693C39.7373 183.43 39.3973 183.558 39.1493 183.814C38.9013 184.062 38.7773 184.402 38.7773 184.834V188.362C38.7773 188.442 38.7493 188.51 38.6933 188.566C38.6373 188.614 38.5693 188.638 38.4893 188.638H37.9013ZM43.4319 188.638C43.3519 188.638 43.2839 188.614 43.2279 188.566C43.1799 188.51 43.1559 188.442 43.1559 188.362V180.394C43.1559 180.314 43.1799 180.25 43.2279 180.202C43.2839 180.146 43.3519 180.118 43.4319 180.118H43.9959C44.0759 180.118 44.1399 180.146 44.1879 180.202C44.2439 180.25 44.2719 180.314 44.2719 180.394V184.57L46.6359 182.602C46.6599 182.586 46.6999 182.554 46.7559 182.506C46.8119 182.466 46.8639 182.438 46.9119 182.422C46.9679 182.406 47.0359 182.398 47.1159 182.398H47.7519C47.8239 182.398 47.8839 182.422 47.9319 182.47C47.9799 182.518 48.0039 182.578 48.0039 182.65C48.0039 182.738 47.9559 182.814 47.8599 182.878L45.0879 185.182L48.1599 188.17C48.2559 188.25 48.3039 188.322 48.3039 188.386C48.3039 188.458 48.2799 188.518 48.2319 188.566C48.1839 188.614 48.1239 188.638 48.0519 188.638H47.4279C47.3079 188.638 47.2199 188.626 47.1639 188.602C47.1159 188.578 47.0439 188.522 46.9479 188.434L44.2719 185.878V188.362C44.2719 188.442 44.2439 188.51 44.1879 188.566C44.1399 188.614 44.0759 188.638 43.9959 188.638H43.4319ZM52.4945 188.758C51.6705 188.758 51.0105 188.506 50.5145 188.002C50.0265 187.49 49.7585 186.794 49.7105 185.914L49.6985 185.506L49.7105 185.11C49.7665 184.246 50.0385 183.558 50.5265 183.046C51.0225 182.534 51.6745 182.278 52.4825 182.278C53.3705 182.278 54.0585 182.562 54.5465 183.13C55.0345 183.69 55.2785 184.45 55.2785 185.41V185.614C55.2785 185.694 55.2505 185.762 55.1945 185.818C55.1465 185.866 55.0825 185.89 55.0025 185.89H50.8505V185.998C50.8745 186.518 51.0305 186.962 51.3185 187.33C51.6145 187.69 52.0025 187.87 52.4825 187.87C52.8505 187.87 53.1505 187.798 53.3825 187.654C53.6225 187.502 53.7985 187.346 53.9105 187.186C53.9825 187.09 54.0345 187.034 54.0665 187.018C54.1065 186.994 54.1745 186.982 54.2705 186.982H54.8585C54.9305 186.982 54.9905 187.002 55.0385 187.042C55.0865 187.082 55.1105 187.138 55.1105 187.21C55.1105 187.386 54.9985 187.598 54.7745 187.846C54.5585 188.094 54.2505 188.31 53.8505 188.494C53.4585 188.67 53.0065 188.758 52.4945 188.758ZM54.1385 185.062V185.026C54.1385 184.474 53.9865 184.026 53.6825 183.682C53.3865 183.33 52.9865 183.154 52.4825 183.154C51.9785 183.154 51.5785 183.33 51.2825 183.682C50.9945 184.026 50.8505 184.474 50.8505 185.026V185.062H54.1385ZM57.9493 188.638C57.8693 188.638 57.8013 188.614 57.7453 188.566C57.6973 188.51 57.6733 188.442 57.6733 188.362V182.686C57.6733 182.606 57.6973 182.538 57.7453 182.482C57.8013 182.426 57.8693 182.398 57.9493 182.398H58.5013C58.5813 182.398 58.6493 182.426 58.7053 182.482C58.7613 182.538 58.7893 182.606 58.7893 182.686V183.214C59.1173 182.67 59.6773 182.398 60.4693 182.398H60.9373C61.0173 182.398 61.0813 182.426 61.1293 182.482C61.1853 182.53 61.2133 182.594 61.2133 182.674V183.166C61.2133 183.246 61.1853 183.31 61.1293 183.358C61.0813 183.406 61.0173 183.43 60.9373 183.43H60.2173C59.7853 183.43 59.4453 183.558 59.1973 183.814C58.9493 184.062 58.8253 184.402 58.8253 184.834V188.362C58.8253 188.442 58.7973 188.51 58.7413 188.566C58.6853 188.614 58.6173 188.638 58.5373 188.638H57.9493ZM65.3519 188.758C64.7919 188.758 64.3199 188.67 63.9359 188.494C63.5599 188.31 63.2759 188.102 63.0839 187.87C62.8999 187.638 62.8079 187.446 62.8079 187.294C62.8079 187.214 62.8359 187.154 62.8919 187.114C62.9559 187.066 63.0199 187.042 63.0839 187.042H63.6239C63.7039 187.042 63.7759 187.082 63.8399 187.162C64.0319 187.386 64.2399 187.562 64.4639 187.69C64.6879 187.818 64.9879 187.882 65.3639 187.882C65.7799 187.882 66.1159 187.802 66.3719 187.642C66.6359 187.474 66.7679 187.246 66.7679 186.958C66.7679 186.766 66.7119 186.61 66.5999 186.49C66.4959 186.362 66.3119 186.254 66.0479 186.166C65.7919 186.07 65.4079 185.966 64.8959 185.854C64.1999 185.702 63.7039 185.482 63.4079 185.194C63.1199 184.906 62.9759 184.534 62.9759 184.078C62.9759 183.774 63.0639 183.486 63.2399 183.214C63.4239 182.934 63.6879 182.71 64.0319 182.542C64.3839 182.366 64.8039 182.278 65.2919 182.278C65.8039 182.278 66.2399 182.362 66.5999 182.53C66.9599 182.698 67.2279 182.898 67.4039 183.13C67.5879 183.354 67.6799 183.542 67.6799 183.694C67.6799 183.766 67.6519 183.826 67.5959 183.874C67.5479 183.922 67.4879 183.946 67.4159 183.946H66.9119C66.8159 183.946 66.7359 183.906 66.6719 183.826C66.5439 183.674 66.4319 183.558 66.3359 183.478C66.2479 183.39 66.1159 183.314 65.9399 183.25C65.7719 183.186 65.5559 183.154 65.2919 183.154C64.9079 183.154 64.6119 183.238 64.4039 183.406C64.1959 183.566 64.0919 183.778 64.0919 184.042C64.0919 184.21 64.1359 184.354 64.2239 184.474C64.3119 184.586 64.4799 184.69 64.7279 184.786C64.9839 184.882 65.3519 184.982 65.8319 185.086C66.5919 185.246 67.1279 185.478 67.4399 185.782C67.7599 186.078 67.9199 186.458 67.9199 186.922C67.9199 187.266 67.8199 187.578 67.6199 187.858C67.4199 188.138 67.1239 188.358 66.7319 188.518C66.3479 188.678 65.8879 188.758 65.3519 188.758ZM75.9105 188.758C75.5185 188.758 75.1545 188.678 74.8185 188.518C74.4825 188.358 74.2145 188.142 74.0145 187.87C73.8225 187.59 73.7265 187.282 73.7265 186.946C73.7265 186.418 73.9425 185.986 74.3745 185.65C74.8145 185.306 75.4065 185.082 76.1505 184.978L77.9385 184.726V184.378C77.9385 183.562 77.4705 183.154 76.5345 183.154C76.1825 183.154 75.8945 183.23 75.6705 183.382C75.4465 183.526 75.2785 183.698 75.1665 183.898C75.1425 183.97 75.1105 184.022 75.0705 184.054C75.0385 184.086 74.9905 184.102 74.9265 184.102H74.4105C74.3385 184.102 74.2745 184.078 74.2185 184.03C74.1705 183.974 74.1465 183.91 74.1465 183.838C74.1545 183.646 74.2425 183.43 74.4105 183.19C74.5865 182.942 74.8545 182.73 75.2145 182.554C75.5745 182.37 76.0185 182.278 76.5465 182.278C77.4425 182.278 78.0865 182.49 78.4785 182.914C78.8705 183.33 79.0665 183.85 79.0665 184.474V188.362C79.0665 188.442 79.0385 188.51 78.9825 188.566C78.9345 188.614 78.8705 188.638 78.7905 188.638H78.2385C78.1585 188.638 78.0905 188.614 78.0345 188.566C77.9865 188.51 77.9625 188.442 77.9625 188.362V187.846C77.7865 188.102 77.5305 188.318 77.1945 188.494C76.8585 188.67 76.4305 188.758 75.9105 188.758ZM76.1625 187.858C76.6825 187.858 77.1065 187.69 77.4345 187.354C77.7705 187.01 77.9385 186.518 77.9385 185.878V185.542L76.5465 185.746C75.9785 185.826 75.5505 185.962 75.2625 186.154C74.9745 186.338 74.8305 186.574 74.8305 186.862C74.8305 187.182 74.9625 187.43 75.2265 187.606C75.4905 187.774 75.8025 187.858 76.1625 187.858ZM84.8356 188.758C83.9716 188.758 83.3156 188.458 82.8676 187.858V188.362C82.8676 188.442 82.8396 188.51 82.7836 188.566C82.7356 188.614 82.6716 188.638 82.5916 188.638H82.0396C81.9596 188.638 81.8916 188.614 81.8356 188.566C81.7876 188.51 81.7636 188.442 81.7636 188.362V180.394C81.7636 180.314 81.7876 180.25 81.8356 180.202C81.8916 180.146 81.9596 180.118 82.0396 180.118H82.6276C82.7076 180.118 82.7716 180.146 82.8196 180.202C82.8676 180.25 82.8916 180.314 82.8916 180.394V183.154C83.3636 182.57 84.0116 182.278 84.8356 182.278C85.6676 182.278 86.2956 182.554 86.7196 183.106C87.1436 183.65 87.3716 184.334 87.4036 185.158C87.4116 185.246 87.4156 185.366 87.4156 185.518C87.4156 185.67 87.4116 185.79 87.4036 185.878C87.3716 186.71 87.1436 187.398 86.7196 187.942C86.2956 188.486 85.6676 188.758 84.8356 188.758ZM84.5836 187.786C85.1516 187.786 85.5636 187.61 85.8196 187.258C86.0836 186.906 86.2276 186.442 86.2516 185.866C86.2596 185.786 86.2636 185.67 86.2636 185.518C86.2636 184.006 85.7036 183.25 84.5836 183.25C84.0476 183.25 83.6356 183.426 83.3476 183.778C83.0596 184.13 82.9076 184.542 82.8916 185.014L82.8796 185.482L82.8916 185.938C82.9156 186.442 83.0636 186.878 83.3356 187.246C83.6156 187.606 84.0316 187.786 84.5836 187.786ZM92.4043 188.758C91.5243 188.758 90.8403 188.51 90.3523 188.014C89.8723 187.518 89.6163 186.858 89.5843 186.034L89.5723 185.518L89.5843 185.002C89.6163 184.186 89.8763 183.53 90.3643 183.034C90.8523 182.53 91.5323 182.278 92.4043 182.278C93.2763 182.278 93.9563 182.53 94.4443 183.034C94.9323 183.53 95.1923 184.186 95.2243 185.002C95.2323 185.09 95.2363 185.262 95.2363 185.518C95.2363 185.774 95.2323 185.946 95.2243 186.034C95.1923 186.858 94.9323 187.518 94.4443 188.014C93.9643 188.51 93.2843 188.758 92.4043 188.758ZM92.4043 187.834C92.9083 187.834 93.3043 187.674 93.5923 187.354C93.8883 187.034 94.0483 186.574 94.0723 185.974C94.0803 185.894 94.0843 185.742 94.0843 185.518C94.0843 185.294 94.0803 185.142 94.0723 185.062C94.0483 184.462 93.8883 184.002 93.5923 183.682C93.3043 183.362 92.9083 183.202 92.4043 183.202C91.9003 183.202 91.5003 183.362 91.2043 183.682C90.9083 184.002 90.7523 184.462 90.7363 185.062L90.7243 185.518L90.7363 185.974C90.7523 186.574 90.9083 187.034 91.2043 187.354C91.5003 187.674 91.9003 187.834 92.4043 187.834ZM100.027 188.758C99.2669 188.758 98.6789 188.514 98.2629 188.026C97.8469 187.53 97.6389 186.874 97.6389 186.058V182.674C97.6389 182.594 97.6629 182.53 97.7109 182.482C97.7669 182.426 97.8349 182.398 97.9149 182.398H98.5149C98.5949 182.398 98.6589 182.426 98.7069 182.482C98.7629 182.53 98.7909 182.594 98.7909 182.674V185.998C98.7909 187.19 99.3109 187.786 100.351 187.786C100.855 187.786 101.255 187.63 101.551 187.318C101.847 186.998 101.995 186.558 101.995 185.998V182.674C101.995 182.594 102.019 182.53 102.067 182.482C102.123 182.426 102.191 182.398 102.271 182.398H102.871C102.951 182.398 103.015 182.426 103.063 182.482C103.111 182.53 103.135 182.594 103.135 182.674V188.362C103.135 188.442 103.111 188.51 103.063 188.566C103.015 188.614 102.951 188.638 102.871 188.638H102.307C102.227 188.638 102.159 188.614 102.103 188.566C102.055 188.51 102.031 188.442 102.031 188.362V187.834C101.807 188.138 101.535 188.37 101.215 188.53C100.895 188.682 100.499 188.758 100.027 188.758ZM108.314 188.638C107.05 188.638 106.418 187.934 106.418 186.526V183.358H105.482C105.402 183.358 105.334 183.334 105.278 183.286C105.23 183.23 105.206 183.162 105.206 183.082V182.674C105.206 182.594 105.23 182.53 105.278 182.482C105.334 182.426 105.402 182.398 105.482 182.398H106.418V180.394C106.418 180.314 106.442 180.25 106.49 180.202C106.546 180.146 106.614 180.118 106.694 180.118H107.258C107.338 180.118 107.402 180.146 107.45 180.202C107.506 180.25 107.534 180.314 107.534 180.394V182.398H109.022C109.102 182.398 109.166 182.426 109.214 182.482C109.27 182.53 109.298 182.594 109.298 182.674V183.082C109.298 183.162 109.27 183.23 109.214 183.286C109.166 183.334 109.102 183.358 109.022 183.358H107.534V186.442C107.534 186.842 107.602 187.146 107.738 187.354C107.874 187.554 108.098 187.654 108.41 187.654H109.142C109.222 187.654 109.286 187.682 109.334 187.738C109.39 187.786 109.418 187.85 109.418 187.93V188.362C109.418 188.442 109.39 188.51 109.334 188.566C109.286 188.614 109.222 188.638 109.142 188.638H108.314ZM116.19 190.918C116.126 190.918 116.07 190.894 116.022 190.846C115.974 190.798 115.95 190.742 115.95 190.678C115.95 190.622 115.97 190.55 116.01 190.462L116.934 188.266L114.642 182.854C114.602 182.75 114.582 182.682 114.582 182.65C114.582 182.578 114.606 182.518 114.654 182.47C114.702 182.422 114.762 182.398 114.834 182.398H115.422C115.55 182.398 115.646 182.466 115.71 182.602L117.534 186.97L119.406 182.602C119.47 182.466 119.57 182.398 119.706 182.398H120.27C120.342 182.398 120.402 182.422 120.45 182.47C120.498 182.518 120.522 182.574 120.522 182.638C120.522 182.662 120.502 182.734 120.462 182.854L117.054 190.714C116.99 190.85 116.89 190.918 116.754 190.918H116.19ZM125.025 188.758C124.145 188.758 123.461 188.51 122.973 188.014C122.493 187.518 122.237 186.858 122.205 186.034L122.193 185.518L122.205 185.002C122.237 184.186 122.497 183.53 122.985 183.034C123.473 182.53 124.153 182.278 125.025 182.278C125.897 182.278 126.577 182.53 127.065 183.034C127.553 183.53 127.813 184.186 127.845 185.002C127.853 185.09 127.857 185.262 127.857 185.518C127.857 185.774 127.853 185.946 127.845 186.034C127.813 186.858 127.553 187.518 127.065 188.014C126.585 188.51 125.905 188.758 125.025 188.758ZM125.025 187.834C125.529 187.834 125.925 187.674 126.213 187.354C126.509 187.034 126.669 186.574 126.693 185.974C126.701 185.894 126.705 185.742 126.705 185.518C126.705 185.294 126.701 185.142 126.693 185.062C126.669 184.462 126.509 184.002 126.213 183.682C125.925 183.362 125.529 183.202 125.025 183.202C124.521 183.202 124.121 183.362 123.825 183.682C123.529 184.002 123.373 184.462 123.357 185.062L123.345 185.518L123.357 185.974C123.373 186.574 123.529 187.034 123.825 187.354C124.121 187.674 124.521 187.834 125.025 187.834ZM132.647 188.758C131.887 188.758 131.299 188.514 130.883 188.026C130.467 187.53 130.259 186.874 130.259 186.058V182.674C130.259 182.594 130.283 182.53 130.331 182.482C130.387 182.426 130.455 182.398 130.535 182.398H131.135C131.215 182.398 131.279 182.426 131.327 182.482C131.383 182.53 131.411 182.594 131.411 182.674V185.998C131.411 187.19 131.931 187.786 132.971 187.786C133.475 187.786 133.875 187.63 134.171 187.318C134.467 186.998 134.615 186.558 134.615 185.998V182.674C134.615 182.594 134.639 182.53 134.687 182.482C134.743 182.426 134.811 182.398 134.891 182.398H135.491C135.571 182.398 135.635 182.426 135.683 182.482C135.731 182.53 135.755 182.594 135.755 182.674V188.362C135.755 188.442 135.731 188.51 135.683 188.566C135.635 188.614 135.571 188.638 135.491 188.638H134.927C134.847 188.638 134.779 188.614 134.723 188.566C134.675 188.51 134.651 188.442 134.651 188.362V187.834C134.427 188.138 134.155 188.37 133.835 188.53C133.515 188.682 133.119 188.758 132.647 188.758ZM138.774 188.638C138.694 188.638 138.626 188.614 138.57 188.566C138.522 188.51 138.498 188.442 138.498 188.362V182.686C138.498 182.606 138.522 182.538 138.57 182.482C138.626 182.426 138.694 182.398 138.774 182.398H139.326C139.406 182.398 139.474 182.426 139.53 182.482C139.586 182.538 139.614 182.606 139.614 182.686V183.214C139.942 182.67 140.502 182.398 141.294 182.398H141.762C141.842 182.398 141.906 182.426 141.954 182.482C142.01 182.53 142.038 182.594 142.038 182.674V183.166C142.038 183.246 142.01 183.31 141.954 183.358C141.906 183.406 141.842 183.43 141.762 183.43H141.042C140.61 183.43 140.27 183.558 140.022 183.814C139.774 184.062 139.65 184.402 139.65 184.834V188.362C139.65 188.442 139.622 188.51 139.566 188.566C139.51 188.614 139.442 188.638 139.362 188.638H138.774ZM150.157 188.758C149.301 188.758 148.629 188.518 148.141 188.038C147.661 187.55 147.405 186.87 147.373 185.998L147.361 185.518L147.373 185.038C147.405 184.166 147.661 183.49 148.141 183.01C148.629 182.522 149.301 182.278 150.157 182.278C150.733 182.278 151.221 182.382 151.621 182.59C152.021 182.798 152.317 183.054 152.509 183.358C152.709 183.662 152.817 183.966 152.833 184.27C152.841 184.35 152.817 184.414 152.761 184.462C152.705 184.51 152.637 184.534 152.557 184.534H151.981C151.901 184.534 151.841 184.518 151.801 184.486C151.761 184.454 151.721 184.39 151.681 184.294C151.545 183.91 151.353 183.638 151.105 183.478C150.857 183.31 150.545 183.226 150.169 183.226C149.673 183.226 149.277 183.382 148.981 183.694C148.693 183.998 148.537 184.466 148.513 185.098L148.501 185.53L148.513 185.938C148.537 186.578 148.693 187.05 148.981 187.354C149.269 187.658 149.665 187.81 150.169 187.81C150.545 187.81 150.857 187.73 151.105 187.57C151.353 187.402 151.545 187.126 151.681 186.742C151.721 186.646 151.761 186.582 151.801 186.55C151.841 186.51 151.901 186.49 151.981 186.49H152.557C152.637 186.49 152.705 186.518 152.761 186.574C152.817 186.622 152.841 186.686 152.833 186.766C152.817 187.062 152.709 187.366 152.509 187.678C152.317 187.982 152.021 188.238 151.621 188.446C151.229 188.654 150.741 188.758 150.157 188.758ZM157.774 188.758C156.894 188.758 156.21 188.51 155.722 188.014C155.242 187.518 154.986 186.858 154.954 186.034L154.942 185.518L154.954 185.002C154.986 184.186 155.246 183.53 155.734 183.034C156.222 182.53 156.902 182.278 157.774 182.278C158.646 182.278 159.326 182.53 159.814 183.034C160.302 183.53 160.562 184.186 160.594 185.002C160.602 185.09 160.606 185.262 160.606 185.518C160.606 185.774 160.602 185.946 160.594 186.034C160.562 186.858 160.302 187.518 159.814 188.014C159.334 188.51 158.654 188.758 157.774 188.758ZM157.774 187.834C158.278 187.834 158.674 187.674 158.962 187.354C159.258 187.034 159.418 186.574 159.442 185.974C159.45 185.894 159.454 185.742 159.454 185.518C159.454 185.294 159.45 185.142 159.442 185.062C159.418 184.462 159.258 184.002 158.962 183.682C158.674 183.362 158.278 183.202 157.774 183.202C157.27 183.202 156.87 183.362 156.574 183.682C156.278 184.002 156.122 184.462 156.106 185.062L156.094 185.518L156.106 185.974C156.122 186.574 156.278 187.034 156.574 187.354C156.87 187.674 157.27 187.834 157.774 187.834ZM163.344 188.638C163.264 188.638 163.196 188.614 163.14 188.566C163.092 188.51 163.068 188.442 163.068 188.362V182.674C163.068 182.594 163.092 182.53 163.14 182.482C163.196 182.426 163.264 182.398 163.344 182.398H163.908C163.988 182.398 164.052 182.426 164.1 182.482C164.156 182.53 164.184 182.594 164.184 182.674V183.202C164.416 182.906 164.688 182.678 165 182.518C165.32 182.358 165.716 182.278 166.188 182.278C166.956 182.278 167.552 182.526 167.976 183.022C168.408 183.51 168.624 184.162 168.624 184.978V188.362C168.624 188.442 168.596 188.51 168.54 188.566C168.492 188.614 168.428 188.638 168.348 188.638H167.748C167.668 188.638 167.6 188.614 167.544 188.566C167.496 188.51 167.472 188.442 167.472 188.362V185.038C167.472 184.47 167.332 184.03 167.052 183.718C166.78 183.406 166.384 183.25 165.864 183.25C165.36 183.25 164.96 183.41 164.664 183.73C164.368 184.042 164.22 184.478 164.22 185.038V188.362C164.22 188.442 164.192 188.51 164.136 188.566C164.088 188.614 164.024 188.638 163.944 188.638H163.344ZM173.826 188.758C172.97 188.758 172.298 188.518 171.81 188.038C171.33 187.55 171.074 186.87 171.042 185.998L171.03 185.518L171.042 185.038C171.074 184.166 171.33 183.49 171.81 183.01C172.298 182.522 172.97 182.278 173.826 182.278C174.402 182.278 174.89 182.382 175.29 182.59C175.69 182.798 175.986 183.054 176.178 183.358C176.378 183.662 176.486 183.966 176.502 184.27C176.51 184.35 176.486 184.414 176.43 184.462C176.374 184.51 176.306 184.534 176.226 184.534H175.65C175.57 184.534 175.51 184.518 175.47 184.486C175.43 184.454 175.39 184.39 175.35 184.294C175.214 183.91 175.022 183.638 174.774 183.478C174.526 183.31 174.214 183.226 173.838 183.226C173.342 183.226 172.946 183.382 172.65 183.694C172.362 183.998 172.206 184.466 172.182 185.098L172.17 185.53L172.182 185.938C172.206 186.578 172.362 187.05 172.65 187.354C172.938 187.658 173.334 187.81 173.838 187.81C174.214 187.81 174.526 187.73 174.774 187.57C175.022 187.402 175.214 187.126 175.35 186.742C175.39 186.646 175.43 186.582 175.47 186.55C175.51 186.51 175.57 186.49 175.65 186.49H176.226C176.306 186.49 176.374 186.518 176.43 186.574C176.486 186.622 176.51 186.686 176.502 186.766C176.486 187.062 176.378 187.366 176.178 187.678C175.986 187.982 175.69 188.238 175.29 188.446C174.898 188.654 174.41 188.758 173.826 188.758ZM181.383 188.758C180.559 188.758 179.899 188.506 179.403 188.002C178.915 187.49 178.647 186.794 178.599 185.914L178.587 185.506L178.599 185.11C178.655 184.246 178.927 183.558 179.415 183.046C179.911 182.534 180.563 182.278 181.371 182.278C182.259 182.278 182.947 182.562 183.435 183.13C183.923 183.69 184.167 184.45 184.167 185.41V185.614C184.167 185.694 184.139 185.762 184.083 185.818C184.035 185.866 183.971 185.89 183.891 185.89H179.739V185.998C179.763 186.518 179.919 186.962 180.207 187.33C180.503 187.69 180.891 187.87 181.371 187.87C181.739 187.87 182.039 187.798 182.271 187.654C182.511 187.502 182.687 187.346 182.799 187.186C182.871 187.09 182.923 187.034 182.955 187.018C182.995 186.994 183.063 186.982 183.159 186.982H183.747C183.819 186.982 183.879 187.002 183.927 187.042C183.975 187.082 183.999 187.138 183.999 187.21C183.999 187.386 183.887 187.598 183.663 187.846C183.447 188.094 183.139 188.31 182.739 188.494C182.347 188.67 181.895 188.758 181.383 188.758ZM183.027 185.062V185.026C183.027 184.474 182.875 184.026 182.571 183.682C182.275 183.33 181.875 183.154 181.371 183.154C180.867 183.154 180.467 183.33 180.171 183.682C179.883 184.026 179.739 184.474 179.739 185.026V185.062H183.027ZM186.838 188.638C186.758 188.638 186.69 188.614 186.634 188.566C186.586 188.51 186.562 188.442 186.562 188.362V182.686C186.562 182.606 186.586 182.538 186.634 182.482C186.69 182.426 186.758 182.398 186.838 182.398H187.39C187.47 182.398 187.538 182.426 187.594 182.482C187.65 182.538 187.678 182.606 187.678 182.686V183.214C188.006 182.67 188.566 182.398 189.358 182.398H189.826C189.906 182.398 189.97 182.426 190.018 182.482C190.074 182.53 190.102 182.594 190.102 182.674V183.166C190.102 183.246 190.074 183.31 190.018 183.358C189.97 183.406 189.906 183.43 189.826 183.43H189.106C188.674 183.43 188.334 183.558 188.086 183.814C187.838 184.062 187.714 184.402 187.714 184.834V188.362C187.714 188.442 187.686 188.51 187.63 188.566C187.574 188.614 187.506 188.638 187.426 188.638H186.838ZM192.356 188.638C192.276 188.638 192.208 188.614 192.152 188.566C192.104 188.51 192.08 188.442 192.08 188.362V182.674C192.08 182.594 192.104 182.53 192.152 182.482C192.208 182.426 192.276 182.398 192.356 182.398H192.92C193 182.398 193.064 182.426 193.112 182.482C193.168 182.53 193.196 182.594 193.196 182.674V183.202C193.428 182.906 193.7 182.678 194.012 182.518C194.332 182.358 194.728 182.278 195.2 182.278C195.968 182.278 196.564 182.526 196.988 183.022C197.42 183.51 197.636 184.162 197.636 184.978V188.362C197.636 188.442 197.608 188.51 197.552 188.566C197.504 188.614 197.44 188.638 197.36 188.638H196.76C196.68 188.638 196.612 188.614 196.556 188.566C196.508 188.51 196.484 188.442 196.484 188.362V185.038C196.484 184.47 196.344 184.03 196.064 183.718C195.792 183.406 195.396 183.25 194.876 183.25C194.372 183.25 193.972 183.41 193.676 183.73C193.38 184.042 193.232 184.478 193.232 185.038V188.362C193.232 188.442 193.204 188.51 193.148 188.566C193.1 188.614 193.036 188.638 192.956 188.638H192.356ZM202.478 188.758C201.918 188.758 201.446 188.67 201.062 188.494C200.686 188.31 200.402 188.102 200.21 187.87C200.026 187.638 199.934 187.446 199.934 187.294C199.934 187.214 199.962 187.154 200.018 187.114C200.082 187.066 200.146 187.042 200.21 187.042H200.75C200.83 187.042 200.902 187.082 200.966 187.162C201.158 187.386 201.366 187.562 201.59 187.69C201.814 187.818 202.114 187.882 202.49 187.882C202.906 187.882 203.242 187.802 203.498 187.642C203.762 187.474 203.894 187.246 203.894 186.958C203.894 186.766 203.838 186.61 203.726 186.49C203.622 186.362 203.438 186.254 203.174 186.166C202.918 186.07 202.534 185.966 202.022 185.854C201.326 185.702 200.83 185.482 200.534 185.194C200.246 184.906 200.102 184.534 200.102 184.078C200.102 183.774 200.19 183.486 200.366 183.214C200.55 182.934 200.814 182.71 201.158 182.542C201.51 182.366 201.93 182.278 202.418 182.278C202.93 182.278 203.366 182.362 203.726 182.53C204.086 182.698 204.354 182.898 204.53 183.13C204.714 183.354 204.806 183.542 204.806 183.694C204.806 183.766 204.778 183.826 204.722 183.874C204.674 183.922 204.614 183.946 204.542 183.946H204.038C203.942 183.946 203.862 183.906 203.798 183.826C203.67 183.674 203.558 183.558 203.462 183.478C203.374 183.39 203.242 183.314 203.066 183.25C202.898 183.186 202.682 183.154 202.418 183.154C202.034 183.154 201.738 183.238 201.53 183.406C201.322 183.566 201.218 183.778 201.218 184.042C201.218 184.21 201.262 184.354 201.35 184.474C201.438 184.586 201.606 184.69 201.854 184.786C202.11 184.882 202.478 184.982 202.958 185.086C203.718 185.246 204.254 185.478 204.566 185.782C204.886 186.078 205.046 186.458 205.046 186.922C205.046 187.266 204.946 187.578 204.746 187.858C204.546 188.138 204.25 188.358 203.858 188.518C203.474 188.678 203.014 188.758 202.478 188.758ZM207.587 188.638C207.507 188.638 207.439 188.614 207.383 188.566C207.335 188.51 207.311 188.442 207.311 188.362V187.498C207.311 187.418 207.335 187.354 207.383 187.306C207.439 187.25 207.507 187.222 207.587 187.222H208.451C208.531 187.222 208.599 187.25 208.655 187.306C208.711 187.354 208.739 187.418 208.739 187.498V188.362C208.739 188.442 208.711 188.51 208.655 188.566C208.599 188.614 208.531 188.638 208.451 188.638H207.587Z" fill="#616161"/>
<path d="M17.2557 146.638C17.1384 146.638 17.0371 146.601 16.9517 146.526C16.8771 146.452 16.8397 146.356 16.8397 146.238V145.102C16.8397 144.782 16.9731 144.521 17.2397 144.318L18.9037 142.686C19.8744 141.94 20.6104 141.358 21.1117 140.942C21.6131 140.526 21.9917 140.148 22.2477 139.806C22.5037 139.465 22.6317 139.14 22.6317 138.83C22.6317 137.988 22.2157 137.566 21.3837 137.566C20.9464 137.566 20.6104 137.7 20.3757 137.966C20.1411 138.222 19.9864 138.548 19.9117 138.942C19.8477 139.188 19.6664 139.31 19.3677 139.31H17.3677C17.2717 139.31 17.1917 139.278 17.1277 139.214C17.0637 139.15 17.0317 139.07 17.0317 138.974C17.0531 138.292 17.2397 137.668 17.5917 137.102C17.9544 136.526 18.4611 136.073 19.1117 135.742C19.7731 135.401 20.5304 135.23 21.3837 135.23C22.2797 135.23 23.0477 135.374 23.6877 135.662C24.3277 135.95 24.8131 136.356 25.1437 136.878C25.4744 137.401 25.6397 138.009 25.6397 138.702C25.6397 139.449 25.4051 140.132 24.9357 140.75C24.4771 141.358 23.7731 142.02 22.8237 142.734L21.3517 144.222H25.4637C25.5811 144.222 25.6771 144.26 25.7517 144.334C25.8371 144.409 25.8797 144.505 25.8797 144.622V146.238C25.8797 146.356 25.8371 146.452 25.7517 146.526C25.6771 146.601 25.5811 146.638 25.4637 146.638H17.2557ZM34.0159 146.638C33.9092 146.638 33.8132 146.601 33.7279 146.526C33.6532 146.441 33.6159 146.345 33.6159 146.238V144.43H28.6399C28.5225 144.43 28.4265 144.393 28.3519 144.318C28.2772 144.244 28.2399 144.148 28.2399 144.03V142.51C28.2399 142.35 28.2985 142.185 28.4159 142.014L33.0719 135.71C33.2212 135.529 33.4185 135.438 33.6639 135.438H35.9999C36.1172 135.438 36.2132 135.476 36.2879 135.55C36.3625 135.625 36.3999 135.721 36.3999 135.838V142.046H37.8079C37.9359 142.046 38.0372 142.089 38.1119 142.174C38.1865 142.249 38.2239 142.34 38.2239 142.446V144.03C38.2239 144.148 38.1865 144.244 38.1119 144.318C38.0372 144.393 37.9412 144.43 37.8239 144.43H36.3999V146.238C36.3999 146.345 36.3625 146.441 36.2879 146.526C36.2132 146.601 36.1172 146.638 35.9999 146.638H34.0159ZM33.6799 142.158V138.382L30.9919 142.158H33.6799ZM40.6017 146.638C40.5057 146.638 40.4204 146.606 40.3457 146.542C40.2817 146.468 40.2497 146.377 40.2497 146.27C40.2497 146.185 40.2764 146.105 40.3297 146.03L43.0017 142.366L40.5697 138.926C40.5057 138.841 40.4737 138.756 40.4737 138.67C40.4737 138.574 40.5111 138.494 40.5857 138.43C40.6604 138.356 40.7457 138.318 40.8417 138.318H42.7937C42.9857 138.318 43.1404 138.409 43.2577 138.59L44.7457 140.638L46.2177 138.606C46.2817 138.521 46.3457 138.452 46.4097 138.398C46.4737 138.345 46.5697 138.318 46.6977 138.318H48.5697C48.6657 138.318 48.7457 138.356 48.8097 138.43C48.8844 138.494 48.9217 138.574 48.9217 138.67C48.9217 138.777 48.8951 138.862 48.8417 138.926L46.3457 142.366L49.0657 146.03C49.1191 146.105 49.1457 146.185 49.1457 146.27C49.1457 146.377 49.1084 146.468 49.0337 146.542C48.9697 146.606 48.8897 146.638 48.7937 146.638H46.7457C46.5644 146.638 46.4151 146.553 46.2977 146.382L44.6817 144.19L43.0497 146.382C42.9857 146.468 42.9217 146.532 42.8577 146.574C42.7937 146.617 42.7084 146.638 42.6017 146.638H40.6017ZM52.936 146.638C52.84 146.638 52.76 146.606 52.696 146.542C52.632 146.468 52.6 146.382 52.6 146.286C52.6 146.233 52.6107 146.185 52.632 146.142L56.328 137.854H51.544C51.4267 137.854 51.3253 137.817 51.24 137.742C51.1653 137.657 51.128 137.556 51.128 137.438V135.838C51.128 135.721 51.1653 135.625 51.24 135.55C51.3253 135.476 51.4267 135.438 51.544 135.438H59.016C59.144 135.438 59.2453 135.476 59.32 135.55C59.3947 135.625 59.432 135.721 59.432 135.838V137.262C59.432 137.486 59.3733 137.726 59.256 137.982L55.56 146.254C55.4427 146.51 55.256 146.638 55 146.638H52.936ZM67.3381 146.638C67.2314 146.638 67.1354 146.601 67.0501 146.526C66.9754 146.441 66.9381 146.345 66.9381 146.238V135.838C66.9381 135.721 66.9754 135.625 67.0501 135.55C67.1354 135.476 67.2314 135.438 67.3381 135.438H69.0661C69.3221 135.438 69.5088 135.556 69.6261 135.79L72.4421 140.83L75.2581 135.79C75.3754 135.556 75.5621 135.438 75.8181 135.438H77.5301C77.6474 135.438 77.7434 135.476 77.8181 135.55C77.9034 135.625 77.9461 135.721 77.9461 135.838V146.238C77.9461 146.356 77.9034 146.452 77.8181 146.526C77.7434 146.601 77.6474 146.638 77.5301 146.638H75.6261C75.5088 146.638 75.4074 146.601 75.3221 146.526C75.2474 146.452 75.2101 146.356 75.2101 146.238V140.238L73.4181 143.582C73.2794 143.828 73.0928 143.95 72.8581 143.95H72.0261C71.8874 143.95 71.7754 143.918 71.6901 143.854C71.6048 143.79 71.5301 143.7 71.4661 143.582L69.6581 140.238V146.238C69.6581 146.345 69.6208 146.441 69.5461 146.526C69.4714 146.601 69.3754 146.638 69.2581 146.638H67.3381ZM85.1321 146.798C83.8521 146.798 82.8441 146.452 82.1081 145.758C81.3721 145.065 80.9881 144.057 80.9561 142.734V142.174C80.9988 140.916 81.3881 139.934 82.1241 139.23C82.8708 138.516 83.8681 138.158 85.1161 138.158C86.0228 138.158 86.7854 138.345 87.4041 138.718C88.0334 139.081 88.5028 139.582 88.8121 140.222C89.1321 140.862 89.2921 141.598 89.2921 142.43V142.814C89.2921 142.921 89.2548 143.017 89.1801 143.102C89.1054 143.177 89.0094 143.214 88.8921 143.214H83.7721V143.326C83.7934 143.828 83.9161 144.233 84.1401 144.542C84.3641 144.852 84.6894 145.006 85.1161 145.006C85.3828 145.006 85.6014 144.953 85.7721 144.846C85.9428 144.729 86.0974 144.59 86.2361 144.43C86.3321 144.313 86.4068 144.244 86.4601 144.222C86.5241 144.19 86.6201 144.174 86.7481 144.174H88.7321C88.8281 144.174 88.9081 144.206 88.9721 144.27C89.0468 144.324 89.0841 144.398 89.0841 144.494C89.0841 144.772 88.9241 145.092 88.6041 145.454C88.2948 145.817 87.8414 146.132 87.2441 146.398C86.6468 146.665 85.9428 146.798 85.1321 146.798ZM86.4761 141.63V141.598C86.4761 141.076 86.3534 140.665 86.1081 140.366C85.8734 140.057 85.5428 139.902 85.1161 139.902C84.7001 139.902 84.3694 140.057 84.1241 140.366C83.8894 140.665 83.7721 141.076 83.7721 141.598V141.63H86.4761ZM95.1761 146.798C94.1308 146.798 93.3148 146.473 92.7281 145.822C92.1521 145.161 91.8374 144.233 91.7841 143.038L91.7681 142.478L91.7841 141.902C91.8268 140.75 92.1414 139.838 92.7281 139.166C93.3254 138.494 94.1414 138.158 95.1761 138.158C96.1468 138.158 96.9308 138.473 97.5281 139.102V135.678C97.5281 135.561 97.5654 135.465 97.6401 135.39C97.7148 135.316 97.8108 135.278 97.9281 135.278H99.8801C99.9974 135.278 100.093 135.316 100.168 135.39C100.243 135.465 100.28 135.561 100.28 135.678V146.238C100.28 146.345 100.243 146.441 100.168 146.526C100.093 146.601 99.9974 146.638 99.8801 146.638H98.0721C97.9654 146.638 97.8694 146.601 97.7841 146.526C97.7094 146.441 97.6721 146.345 97.6721 146.238V145.726C97.0854 146.441 96.2534 146.798 95.1761 146.798ZM96.0561 144.654C96.5361 144.654 96.8934 144.505 97.1281 144.206C97.3628 143.897 97.4961 143.502 97.5281 143.022C97.5388 142.884 97.5441 142.681 97.5441 142.414C97.5441 142.158 97.5388 141.961 97.5281 141.822C97.5068 141.385 97.3734 141.022 97.1281 140.734C96.8828 140.446 96.5254 140.302 96.0561 140.302C95.5548 140.302 95.1921 140.452 94.9681 140.75C94.7548 141.049 94.6321 141.46 94.6001 141.982C94.5894 142.089 94.5841 142.254 94.5841 142.478C94.5841 142.702 94.5894 142.868 94.6001 142.974C94.6321 143.497 94.7548 143.908 94.9681 144.206C95.1921 144.505 95.5548 144.654 96.0561 144.654ZM103.83 137.118C103.713 137.118 103.617 137.081 103.542 137.006C103.467 136.932 103.43 136.836 103.43 136.718V135.278C103.43 135.161 103.467 135.065 103.542 134.99C103.617 134.916 103.713 134.878 103.83 134.878H105.75C105.867 134.878 105.963 134.916 106.038 134.99C106.113 135.065 106.15 135.161 106.15 135.278V136.718C106.15 136.836 106.113 136.932 106.038 137.006C105.963 137.081 105.867 137.118 105.75 137.118H103.83ZM103.846 146.638C103.729 146.638 103.633 146.601 103.558 146.526C103.483 146.452 103.446 146.356 103.446 146.238V138.718C103.446 138.601 103.483 138.505 103.558 138.43C103.633 138.356 103.729 138.318 103.846 138.318H105.734C105.851 138.318 105.947 138.356 106.022 138.43C106.097 138.505 106.134 138.601 106.134 138.718V146.238C106.134 146.345 106.097 146.441 106.022 146.526C105.947 146.601 105.851 146.638 105.734 146.638H103.846ZM113.128 146.798C111.923 146.798 110.947 146.478 110.2 145.838C109.453 145.188 109.053 144.286 109 143.134L108.984 142.494L109 141.838C109.043 140.686 109.437 139.785 110.184 139.134C110.941 138.484 111.923 138.158 113.128 138.158C114.035 138.158 114.797 138.324 115.416 138.654C116.045 138.974 116.509 139.364 116.808 139.822C117.117 140.27 117.283 140.681 117.304 141.054C117.315 141.161 117.277 141.257 117.192 141.342C117.117 141.417 117.021 141.454 116.904 141.454H114.872C114.755 141.454 114.664 141.428 114.6 141.374C114.536 141.321 114.477 141.241 114.424 141.134C114.296 140.804 114.131 140.569 113.928 140.43C113.736 140.292 113.485 140.222 113.176 140.222C112.301 140.222 111.848 140.788 111.816 141.918L111.8 142.526L111.816 143.054C111.837 143.63 111.96 144.057 112.184 144.334C112.419 144.601 112.749 144.734 113.176 144.734C113.507 144.734 113.768 144.665 113.96 144.526C114.152 144.388 114.307 144.153 114.424 143.822C114.477 143.716 114.536 143.636 114.6 143.582C114.664 143.529 114.755 143.502 114.872 143.502H116.904C117.011 143.502 117.101 143.54 117.176 143.614C117.261 143.678 117.304 143.764 117.304 143.87C117.304 144.212 117.155 144.612 116.856 145.07C116.568 145.529 116.109 145.934 115.48 146.286C114.851 146.628 114.067 146.798 113.128 146.798ZM122.517 146.798C121.952 146.798 121.435 146.692 120.965 146.478C120.507 146.254 120.144 145.956 119.877 145.582C119.621 145.198 119.493 144.777 119.493 144.318C119.493 143.582 119.792 142.99 120.389 142.542C120.997 142.094 121.829 141.785 122.885 141.614L124.885 141.31V141.086C124.885 140.681 124.8 140.382 124.629 140.19C124.459 139.998 124.171 139.902 123.765 139.902C123.52 139.902 123.317 139.945 123.157 140.03C122.997 140.116 122.832 140.233 122.661 140.382C122.512 140.51 122.4 140.596 122.325 140.638C122.293 140.724 122.235 140.766 122.149 140.766H120.405C120.299 140.766 120.208 140.734 120.133 140.67C120.069 140.596 120.043 140.51 120.053 140.414C120.064 140.126 120.203 139.806 120.469 139.454C120.747 139.102 121.163 138.798 121.717 138.542C122.283 138.286 122.976 138.158 123.797 138.158C125.109 138.158 126.08 138.452 126.709 139.038C127.339 139.614 127.653 140.393 127.653 141.374V146.238C127.653 146.345 127.616 146.441 127.541 146.526C127.467 146.601 127.371 146.638 127.253 146.638H125.397C125.291 146.638 125.195 146.601 125.109 146.526C125.035 146.441 124.997 146.345 124.997 146.238V145.678C124.763 146.009 124.432 146.281 124.005 146.494C123.589 146.697 123.093 146.798 122.517 146.798ZM123.269 144.974C123.76 144.974 124.155 144.814 124.453 144.494C124.763 144.174 124.917 143.705 124.917 143.086V142.862L123.557 143.102C122.597 143.273 122.117 143.609 122.117 144.11C122.117 144.377 122.229 144.59 122.453 144.75C122.677 144.9 122.949 144.974 123.269 144.974ZM131.139 146.638C131.032 146.638 130.936 146.601 130.851 146.526C130.776 146.441 130.739 146.345 130.739 146.238V135.678C130.739 135.561 130.776 135.465 130.851 135.39C130.936 135.316 131.032 135.278 131.139 135.278H133.027C133.144 135.278 133.24 135.316 133.315 135.39C133.39 135.465 133.427 135.561 133.427 135.678V146.238C133.427 146.356 133.39 146.452 133.315 146.526C133.24 146.601 133.144 146.638 133.027 146.638H131.139ZM144.707 146.798C143.843 146.798 143.118 146.676 142.531 146.43C141.955 146.185 141.529 145.892 141.251 145.55C140.974 145.209 140.835 144.905 140.835 144.638C140.835 144.532 140.873 144.446 140.947 144.382C141.033 144.308 141.123 144.27 141.219 144.27H143.043C143.107 144.27 143.166 144.297 143.219 144.35C143.347 144.436 143.443 144.505 143.507 144.558C143.742 144.729 143.945 144.857 144.115 144.942C144.297 145.017 144.515 145.054 144.771 145.054C145.081 145.054 145.331 144.996 145.523 144.878C145.726 144.75 145.827 144.574 145.827 144.35C145.827 144.169 145.774 144.025 145.667 143.918C145.571 143.812 145.379 143.71 145.091 143.614C144.803 143.508 144.366 143.396 143.779 143.278C142.894 143.097 142.211 142.804 141.731 142.398C141.262 141.982 141.027 141.428 141.027 140.734C141.027 140.297 141.166 139.881 141.443 139.486C141.721 139.092 142.131 138.772 142.675 138.526C143.23 138.281 143.886 138.158 144.643 138.158C145.401 138.158 146.062 138.276 146.627 138.51C147.193 138.745 147.619 139.033 147.907 139.374C148.206 139.705 148.355 140.009 148.355 140.286C148.355 140.382 148.318 140.468 148.243 140.542C148.179 140.617 148.099 140.654 148.003 140.654H146.339C146.254 140.654 146.174 140.628 146.099 140.574C145.961 140.5 145.838 140.42 145.731 140.334C145.55 140.196 145.379 140.089 145.219 140.014C145.059 139.94 144.862 139.902 144.627 139.902C144.35 139.902 144.126 139.966 143.955 140.094C143.795 140.222 143.715 140.388 143.715 140.59C143.715 140.75 143.758 140.884 143.843 140.99C143.939 141.097 144.131 141.204 144.419 141.31C144.718 141.406 145.155 141.508 145.731 141.614C146.766 141.796 147.518 142.116 147.987 142.574C148.467 143.033 148.707 143.572 148.707 144.19C148.707 144.98 148.355 145.614 147.651 146.094C146.947 146.564 145.966 146.798 144.707 146.798ZM154.463 146.798C153.524 146.798 152.767 146.484 152.191 145.854C151.615 145.214 151.327 144.324 151.327 143.182V138.718C151.327 138.601 151.364 138.505 151.439 138.43C151.514 138.356 151.61 138.318 151.727 138.318H153.727C153.844 138.318 153.94 138.356 154.015 138.43C154.1 138.505 154.143 138.601 154.143 138.718V143.086C154.143 144.132 154.607 144.654 155.535 144.654C155.983 144.654 156.335 144.516 156.591 144.238C156.847 143.961 156.975 143.577 156.975 143.086V138.718C156.975 138.601 157.012 138.505 157.087 138.43C157.172 138.356 157.268 138.318 157.375 138.318H159.375C159.492 138.318 159.588 138.356 159.663 138.43C159.738 138.505 159.775 138.601 159.775 138.718V146.238C159.775 146.345 159.738 146.441 159.663 146.526C159.588 146.601 159.492 146.638 159.375 146.638H157.519C157.412 146.638 157.316 146.601 157.231 146.526C157.156 146.441 157.119 146.345 157.119 146.238V145.63C156.564 146.409 155.679 146.798 154.463 146.798ZM163.337 149.678C163.23 149.678 163.134 149.641 163.049 149.566C162.974 149.492 162.937 149.396 162.937 149.278V138.718C162.937 138.601 162.974 138.505 163.049 138.43C163.134 138.356 163.23 138.318 163.337 138.318H165.145C165.262 138.318 165.358 138.356 165.433 138.43C165.508 138.505 165.545 138.601 165.545 138.718V139.294C166.121 138.537 166.948 138.158 168.025 138.158C169.07 138.158 169.886 138.484 170.473 139.134C171.06 139.785 171.38 140.702 171.433 141.886C171.444 142.025 171.449 142.222 171.449 142.478C171.449 142.734 171.444 142.932 171.433 143.07C171.39 144.222 171.07 145.134 170.473 145.806C169.876 146.468 169.06 146.798 168.025 146.798C166.98 146.798 166.201 146.441 165.689 145.726V149.278C165.689 149.396 165.652 149.492 165.577 149.566C165.502 149.641 165.406 149.678 165.289 149.678H163.337ZM167.161 144.654C167.662 144.654 168.02 144.505 168.233 144.206C168.457 143.908 168.585 143.497 168.617 142.974C168.638 142.761 168.649 142.596 168.649 142.478C168.649 142.361 168.638 142.196 168.617 141.982C168.585 141.46 168.457 141.049 168.233 140.75C168.02 140.452 167.662 140.302 167.161 140.302C166.67 140.302 166.308 140.457 166.073 140.766C165.849 141.065 165.721 141.454 165.689 141.934L165.673 142.526L165.689 143.134C165.71 143.572 165.844 143.934 166.089 144.222C166.334 144.51 166.692 144.654 167.161 144.654ZM174.711 149.678C174.604 149.678 174.508 149.641 174.423 149.566C174.348 149.492 174.311 149.396 174.311 149.278V138.718C174.311 138.601 174.348 138.505 174.423 138.43C174.508 138.356 174.604 138.318 174.711 138.318H176.519C176.636 138.318 176.732 138.356 176.807 138.43C176.882 138.505 176.919 138.601 176.919 138.718V139.294C177.495 138.537 178.322 138.158 179.399 138.158C180.444 138.158 181.26 138.484 181.847 139.134C182.434 139.785 182.754 140.702 182.807 141.886C182.818 142.025 182.823 142.222 182.823 142.478C182.823 142.734 182.818 142.932 182.807 143.07C182.764 144.222 182.444 145.134 181.847 145.806C181.25 146.468 180.434 146.798 179.399 146.798C178.354 146.798 177.575 146.441 177.063 145.726V149.278C177.063 149.396 177.026 149.492 176.951 149.566C176.876 149.641 176.78 149.678 176.663 149.678H174.711ZM178.535 144.654C179.036 144.654 179.394 144.505 179.607 144.206C179.831 143.908 179.959 143.497 179.991 142.974C180.012 142.761 180.023 142.596 180.023 142.478C180.023 142.361 180.012 142.196 179.991 141.982C179.959 141.46 179.831 141.049 179.607 140.75C179.394 140.452 179.036 140.302 178.535 140.302C178.044 140.302 177.682 140.457 177.447 140.766C177.223 141.065 177.095 141.454 177.063 141.934L177.047 142.526L177.063 143.134C177.084 143.572 177.218 143.934 177.463 144.222C177.708 144.51 178.066 144.654 178.535 144.654ZM189.621 146.798C188.298 146.798 187.279 146.484 186.565 145.854C185.85 145.225 185.461 144.34 185.397 143.198C185.386 143.06 185.381 142.82 185.381 142.478C185.381 142.137 185.386 141.897 185.397 141.758C185.461 140.628 185.861 139.748 186.597 139.118C187.333 138.478 188.341 138.158 189.621 138.158C190.911 138.158 191.925 138.478 192.661 139.118C193.397 139.748 193.797 140.628 193.861 141.758C193.871 141.897 193.877 142.137 193.877 142.478C193.877 142.82 193.871 143.06 193.861 143.198C193.797 144.34 193.407 145.225 192.693 145.854C191.978 146.484 190.954 146.798 189.621 146.798ZM189.621 144.846C190.09 144.846 190.437 144.708 190.661 144.43C190.885 144.142 191.013 143.705 191.045 143.118C191.055 143.012 191.061 142.798 191.061 142.478C191.061 142.158 191.055 141.945 191.045 141.838C191.013 141.262 190.879 140.83 190.645 140.542C190.421 140.254 190.079 140.11 189.621 140.11C188.735 140.11 188.266 140.686 188.213 141.838L188.197 142.478L188.213 143.118C188.234 143.705 188.357 144.142 188.581 144.43C188.815 144.708 189.162 144.846 189.621 144.846ZM197.146 146.638C197.029 146.638 196.933 146.601 196.858 146.526C196.783 146.452 196.746 146.356 196.746 146.238V138.718C196.746 138.601 196.783 138.505 196.858 138.43C196.933 138.356 197.029 138.318 197.146 138.318H198.986C199.103 138.318 199.199 138.361 199.274 138.446C199.359 138.521 199.402 138.612 199.402 138.718V139.358C199.989 138.665 200.778 138.318 201.77 138.318H202.474C202.591 138.318 202.687 138.356 202.762 138.43C202.837 138.505 202.874 138.601 202.874 138.718V140.366C202.874 140.473 202.837 140.569 202.762 140.654C202.687 140.729 202.591 140.766 202.474 140.766H200.922C200.485 140.766 200.143 140.889 199.898 141.134C199.663 141.369 199.546 141.705 199.546 142.142V146.238C199.546 146.356 199.503 146.452 199.418 146.526C199.343 146.601 199.247 146.638 199.13 146.638H197.146ZM209.547 146.638C207.339 146.638 206.235 145.588 206.235 143.486V140.414H204.987C204.87 140.414 204.769 140.377 204.683 140.302C204.609 140.228 204.571 140.132 204.571 140.014V138.718C204.571 138.601 204.609 138.505 204.683 138.43C204.769 138.356 204.87 138.318 204.987 138.318H206.235V135.678C206.235 135.561 206.273 135.465 206.347 135.39C206.433 135.316 206.529 135.278 206.635 135.278H208.491C208.609 135.278 208.705 135.316 208.779 135.39C208.854 135.465 208.891 135.561 208.891 135.678V138.318H210.891C211.009 138.318 211.105 138.356 211.179 138.43C211.265 138.505 211.307 138.601 211.307 138.718V140.014C211.307 140.132 211.265 140.228 211.179 140.302C211.105 140.377 211.009 140.414 210.891 140.414H208.891V143.262C208.891 144.052 209.195 144.446 209.803 144.446H211.035C211.153 144.446 211.249 144.484 211.323 144.558C211.398 144.633 211.435 144.729 211.435 144.846V146.238C211.435 146.345 211.398 146.441 211.323 146.526C211.249 146.601 211.153 146.638 211.035 146.638H209.547Z" fill="black"/>
<path d="M113.725 0.638428C107.887 0.638428 104.393 1.52458 102.172 2.6295C101.06 3.18335 100.271 3.76489 99.7397 4.36027C99.2059 4.95566 98.8696 5.83074 98.8696 5.83074C98.7824 6.05314 98.7245 6.28584 98.6972 6.52304L97.2184 25.4757C97.1989 25.592 97.2378 25.7803 97.2184 25.9077L97.046 27.8129C97.0298 27.9851 97.0298 28.1585 97.046 28.3307C97.046 37.4692 104.552 44.9461 113.725 44.9461C122.898 44.9461 130.404 37.4692 130.404 28.3307V27.8987C130.404 27.8701 130.404 27.8415 130.404 27.8129L128.753 6.52304C128.725 6.28584 128.667 6.05314 128.58 5.83074C128.58 5.83074 128.244 4.95566 127.71 4.36027C127.179 3.76212 126.39 3.18058 125.278 2.6295C123.057 1.52181 119.563 0.638428 113.725 0.638428ZM113.725 44.9461C95.3781 44.9461 80.3671 53.5474 80.3671 61.3012V72.6384H147.083V61.3012C147.083 53.935 133.512 45.8212 116.419 45.032C115.522 44.973 114.624 44.9444 113.725 44.9461ZM113.725 6.17689C119.007 6.17689 121.645 7.00766 122.759 7.5615C123.132 7.74704 123.176 7.81904 123.282 7.90766L124.411 22.1C121.853 22.255 118.367 22.7923 113.725 22.7923C109.083 22.7923 105.6 22.255 103.039 22.1L104.168 7.90766C104.271 7.81904 104.318 7.74704 104.691 7.5615C105.805 7.00766 108.443 6.17689 113.725 6.17689ZM111.465 8.94612V12.236H108.165V16.736H111.468V20.023H115.982V16.7332H119.285V12.236H115.982V8.94612H111.468H111.465ZM105.385 51.1769L112.51 67.1H85.9268V61.3012C85.9268 59.2381 93.0153 53.1957 105.385 51.1769ZM122.064 51.1769C134.435 53.1984 141.523 59.2381 141.523 61.3012V67.1H114.94L122.064 51.1769Z" fill="#EC5863"/>
</svg>
