<svg width="244" height="204" viewBox="0 0 244 204" fill="none" xmlns="http://www.w3.org/2000/svg">
<path d="M35.3002 171.53C34.2282 171.53 33.4122 171.242 32.8522 170.666C32.3002 170.09 32.0042 169.294 31.9642 168.278C31.9562 168.062 31.9522 167.71 31.9522 167.222C31.9522 166.726 31.9562 166.366 31.9642 166.142C32.0042 165.134 32.3042 164.342 32.8642 163.766C33.4242 163.182 34.2362 162.89 35.3002 162.89C36.0122 162.89 36.6162 163.018 37.1122 163.274C37.6082 163.522 37.9842 163.85 38.2402 164.258C38.4962 164.666 38.6362 165.102 38.6602 165.566V165.59C38.6602 165.654 38.6322 165.71 38.5762 165.758C38.5282 165.798 38.4722 165.818 38.4082 165.818H37.7482C37.5882 165.818 37.4882 165.726 37.4482 165.542C37.3122 164.942 37.0682 164.522 36.7162 164.282C36.3642 164.034 35.8922 163.91 35.3002 163.91C33.9242 163.91 33.2122 164.674 33.1642 166.202C33.1562 166.418 33.1522 166.75 33.1522 167.198C33.1522 167.646 33.1562 167.986 33.1642 168.218C33.2122 169.746 33.9242 170.51 35.3002 170.51C35.8922 170.51 36.3642 170.39 36.7162 170.15C37.0762 169.902 37.3202 169.478 37.4482 168.878C37.4722 168.774 37.5082 168.702 37.5562 168.662C37.6042 168.622 37.6682 168.602 37.7482 168.602H38.4082C38.4802 168.602 38.5402 168.626 38.5882 168.674C38.6442 168.714 38.6682 168.77 38.6602 168.842C38.6362 169.314 38.4962 169.754 38.2402 170.162C37.9842 170.57 37.6082 170.902 37.1122 171.158C36.6162 171.406 36.0122 171.53 35.3002 171.53ZM41.3604 171.41C41.2804 171.41 41.2124 171.386 41.1564 171.338C41.1084 171.282 41.0844 171.214 41.0844 171.134V163.166C41.0844 163.086 41.1084 163.022 41.1564 162.974C41.2124 162.918 41.2804 162.89 41.3604 162.89H41.9604C42.0404 162.89 42.1044 162.918 42.1524 162.974C42.2084 163.022 42.2364 163.086 42.2364 163.166V165.962C42.4684 165.666 42.7404 165.442 43.0524 165.29C43.3644 165.13 43.7524 165.05 44.2164 165.05C44.9844 165.05 45.5804 165.298 46.0044 165.794C46.4364 166.282 46.6524 166.934 46.6524 167.75V171.134C46.6524 171.214 46.6244 171.282 46.5684 171.338C46.5204 171.386 46.4564 171.41 46.3764 171.41H45.7764C45.6964 171.41 45.6284 171.386 45.5724 171.338C45.5244 171.282 45.5004 171.214 45.5004 171.134V167.81C45.5004 167.242 45.3604 166.802 45.0804 166.49C44.8084 166.178 44.4124 166.022 43.8924 166.022C43.3884 166.022 42.9844 166.182 42.6804 166.502C42.3844 166.814 42.2364 167.25 42.2364 167.81V171.134C42.2364 171.214 42.2084 171.282 42.1524 171.338C42.1044 171.386 42.0404 171.41 41.9604 171.41H41.3604ZM51.8409 171.53C51.0169 171.53 50.3569 171.278 49.8609 170.774C49.3729 170.262 49.1049 169.566 49.0569 168.686L49.0449 168.278L49.0569 167.882C49.1129 167.018 49.3849 166.33 49.8729 165.818C50.3689 165.306 51.0209 165.05 51.8289 165.05C52.7169 165.05 53.4049 165.334 53.8929 165.902C54.3809 166.462 54.6249 167.222 54.6249 168.182V168.386C54.6249 168.466 54.5969 168.534 54.5409 168.59C54.4929 168.638 54.4289 168.662 54.3489 168.662H50.1969V168.77C50.2209 169.29 50.3769 169.734 50.6649 170.102C50.9609 170.462 51.3489 170.642 51.8289 170.642C52.1969 170.642 52.4969 170.57 52.7289 170.426C52.9689 170.274 53.1449 170.118 53.2569 169.958C53.3289 169.862 53.3809 169.806 53.4129 169.79C53.4529 169.766 53.5209 169.754 53.6169 169.754H54.2049C54.2769 169.754 54.3369 169.774 54.3849 169.814C54.4329 169.854 54.4569 169.91 54.4569 169.982C54.4569 170.158 54.3449 170.37 54.1209 170.618C53.9049 170.866 53.5969 171.082 53.1969 171.266C52.8049 171.442 52.3529 171.53 51.8409 171.53ZM53.4849 167.834V167.798C53.4849 167.246 53.3329 166.798 53.0289 166.454C52.7329 166.102 52.3329 165.926 51.8289 165.926C51.3249 165.926 50.9249 166.102 50.6289 166.454C50.3409 166.798 50.1969 167.246 50.1969 167.798V167.834H53.4849ZM59.5398 171.53C58.6838 171.53 58.0118 171.29 57.5238 170.81C57.0438 170.322 56.7878 169.642 56.7558 168.77L56.7438 168.29L56.7558 167.81C56.7878 166.938 57.0438 166.262 57.5238 165.782C58.0118 165.294 58.6838 165.05 59.5398 165.05C60.1158 165.05 60.6038 165.154 61.0038 165.362C61.4038 165.57 61.6998 165.826 61.8918 166.13C62.0918 166.434 62.1998 166.738 62.2158 167.042C62.2238 167.122 62.1998 167.186 62.1438 167.234C62.0878 167.282 62.0198 167.306 61.9398 167.306H61.3638C61.2838 167.306 61.2238 167.29 61.1838 167.258C61.1438 167.226 61.1038 167.162 61.0638 167.066C60.9278 166.682 60.7358 166.41 60.4878 166.25C60.2398 166.082 59.9278 165.998 59.5518 165.998C59.0558 165.998 58.6598 166.154 58.3638 166.466C58.0758 166.77 57.9198 167.238 57.8958 167.87L57.8838 168.302L57.8958 168.71C57.9198 169.35 58.0758 169.822 58.3638 170.126C58.6518 170.43 59.0478 170.582 59.5518 170.582C59.9278 170.582 60.2398 170.502 60.4878 170.342C60.7358 170.174 60.9278 169.898 61.0638 169.514C61.1038 169.418 61.1438 169.354 61.1838 169.322C61.2238 169.282 61.2838 169.262 61.3638 169.262H61.9398C62.0198 169.262 62.0878 169.29 62.1438 169.346C62.1998 169.394 62.2238 169.458 62.2158 169.538C62.1998 169.834 62.0918 170.138 61.8918 170.45C61.6998 170.754 61.4038 171.01 61.0038 171.218C60.6118 171.426 60.1238 171.53 59.5398 171.53ZM64.8889 171.41C64.8089 171.41 64.7409 171.386 64.6849 171.338C64.6369 171.282 64.6129 171.214 64.6129 171.134V163.166C64.6129 163.086 64.6369 163.022 64.6849 162.974C64.7409 162.918 64.8089 162.89 64.8889 162.89H65.4529C65.5329 162.89 65.5969 162.918 65.6449 162.974C65.7009 163.022 65.7289 163.086 65.7289 163.166V167.342L68.0929 165.374C68.1169 165.358 68.1569 165.326 68.2129 165.278C68.2689 165.238 68.3209 165.21 68.3689 165.194C68.4249 165.178 68.4929 165.17 68.5729 165.17H69.2089C69.2809 165.17 69.3409 165.194 69.3889 165.242C69.4369 165.29 69.4609 165.35 69.4609 165.422C69.4609 165.51 69.4129 165.586 69.3169 165.65L66.5449 167.954L69.6169 170.942C69.7129 171.022 69.7609 171.094 69.7609 171.158C69.7609 171.23 69.7369 171.29 69.6889 171.338C69.6409 171.386 69.5809 171.41 69.5089 171.41H68.8849C68.7649 171.41 68.6769 171.398 68.6209 171.374C68.5729 171.35 68.5009 171.294 68.4049 171.206L65.7289 168.65V171.134C65.7289 171.214 65.7009 171.282 65.6449 171.338C65.5969 171.386 65.5329 171.41 65.4529 171.41H64.8889ZM75.7126 164.006C75.6326 164.006 75.5646 163.982 75.5086 163.934C75.4606 163.878 75.4366 163.81 75.4366 163.73V163.082C75.4366 163.002 75.4606 162.934 75.5086 162.878C75.5646 162.822 75.6326 162.794 75.7126 162.794H76.4686C76.5486 162.794 76.6166 162.822 76.6726 162.878C76.7286 162.934 76.7566 163.002 76.7566 163.082V163.73C76.7566 163.81 76.7286 163.878 76.6726 163.934C76.6166 163.982 76.5486 164.006 76.4686 164.006H75.7126ZM75.8086 171.41C75.7286 171.41 75.6606 171.386 75.6046 171.338C75.5566 171.282 75.5326 171.214 75.5326 171.134V165.446C75.5326 165.366 75.5566 165.302 75.6046 165.254C75.6606 165.198 75.7286 165.17 75.8086 165.17H76.3846C76.4646 165.17 76.5286 165.198 76.5766 165.254C76.6326 165.302 76.6606 165.366 76.6606 165.446V171.134C76.6606 171.214 76.6326 171.282 76.5766 171.338C76.5286 171.386 76.4646 171.41 76.3846 171.41H75.8086ZM80.2988 171.41C80.2188 171.41 80.1508 171.386 80.0948 171.338C80.0468 171.282 80.0228 171.214 80.0228 171.134V166.13H79.0028C78.9228 166.13 78.8548 166.106 78.7988 166.058C78.7508 166.002 78.7268 165.934 78.7268 165.854V165.446C78.7268 165.366 78.7508 165.302 78.7988 165.254C78.8548 165.198 78.9228 165.17 79.0028 165.17H80.0228V164.57C80.0228 163.21 80.7108 162.53 82.0868 162.53H82.8068C82.8868 162.53 82.9508 162.558 82.9988 162.614C83.0548 162.662 83.0828 162.726 83.0828 162.806V163.214C83.0828 163.294 83.0548 163.362 82.9988 163.418C82.9508 163.466 82.8868 163.49 82.8068 163.49H82.1108C81.7508 163.49 81.4988 163.586 81.3548 163.778C81.2108 163.962 81.1388 164.246 81.1388 164.63V165.17H82.6868C82.7668 165.17 82.8308 165.198 82.8788 165.254C82.9348 165.302 82.9628 165.366 82.9628 165.446V165.854C82.9628 165.934 82.9348 166.002 82.8788 166.058C82.8308 166.106 82.7668 166.13 82.6868 166.13H81.1388V171.134C81.1388 171.214 81.1108 171.282 81.0548 171.338C81.0068 171.386 80.9428 171.41 80.8628 171.41H80.2988ZM89.3718 173.69C89.3078 173.69 89.2518 173.666 89.2038 173.618C89.1558 173.57 89.1318 173.514 89.1318 173.45C89.1318 173.394 89.1518 173.322 89.1918 173.234L90.1158 171.038L87.8238 165.626C87.7838 165.522 87.7638 165.454 87.7638 165.422C87.7638 165.35 87.7878 165.29 87.8358 165.242C87.8838 165.194 87.9438 165.17 88.0158 165.17H88.6038C88.7318 165.17 88.8278 165.238 88.8918 165.374L90.7158 169.742L92.5878 165.374C92.6518 165.238 92.7518 165.17 92.8878 165.17H93.4518C93.5238 165.17 93.5838 165.194 93.6318 165.242C93.6798 165.29 93.7038 165.346 93.7038 165.41C93.7038 165.434 93.6838 165.506 93.6438 165.626L90.2358 173.486C90.1718 173.622 90.0718 173.69 89.9358 173.69H89.3718ZM98.2059 171.53C97.3259 171.53 96.6419 171.282 96.1539 170.786C95.6739 170.29 95.4179 169.63 95.3859 168.806L95.3739 168.29L95.3859 167.774C95.4179 166.958 95.6779 166.302 96.1659 165.806C96.6539 165.302 97.3339 165.05 98.2059 165.05C99.0779 165.05 99.7579 165.302 100.246 165.806C100.734 166.302 100.994 166.958 101.026 167.774C101.034 167.862 101.038 168.034 101.038 168.29C101.038 168.546 101.034 168.718 101.026 168.806C100.994 169.63 100.734 170.29 100.246 170.786C99.7659 171.282 99.0859 171.53 98.2059 171.53ZM98.2059 170.606C98.7099 170.606 99.1059 170.446 99.3939 170.126C99.6899 169.806 99.8499 169.346 99.8739 168.746C99.8819 168.666 99.8859 168.514 99.8859 168.29C99.8859 168.066 99.8819 167.914 99.8739 167.834C99.8499 167.234 99.6899 166.774 99.3939 166.454C99.1059 166.134 98.7099 165.974 98.2059 165.974C97.7019 165.974 97.3019 166.134 97.0059 166.454C96.7099 166.774 96.5539 167.234 96.5379 167.834L96.5259 168.29L96.5379 168.746C96.5539 169.346 96.7099 169.806 97.0059 170.126C97.3019 170.446 97.7019 170.606 98.2059 170.606ZM105.829 171.53C105.069 171.53 104.481 171.286 104.065 170.798C103.649 170.302 103.441 169.646 103.441 168.83V165.446C103.441 165.366 103.465 165.302 103.513 165.254C103.569 165.198 103.637 165.17 103.717 165.17H104.317C104.397 165.17 104.461 165.198 104.509 165.254C104.565 165.302 104.593 165.366 104.593 165.446V168.77C104.593 169.962 105.113 170.558 106.153 170.558C106.657 170.558 107.057 170.402 107.353 170.09C107.649 169.77 107.797 169.33 107.797 168.77V165.446C107.797 165.366 107.821 165.302 107.869 165.254C107.925 165.198 107.993 165.17 108.073 165.17H108.673C108.753 165.17 108.817 165.198 108.865 165.254C108.913 165.302 108.937 165.366 108.937 165.446V171.134C108.937 171.214 108.913 171.282 108.865 171.338C108.817 171.386 108.753 171.41 108.673 171.41H108.109C108.029 171.41 107.961 171.386 107.905 171.338C107.857 171.282 107.833 171.214 107.833 171.134V170.606C107.609 170.91 107.337 171.142 107.017 171.302C106.697 171.454 106.301 171.53 105.829 171.53ZM117.321 171.53C116.929 171.53 116.565 171.45 116.229 171.29C115.893 171.13 115.625 170.914 115.425 170.642C115.233 170.362 115.137 170.054 115.137 169.718C115.137 169.19 115.353 168.758 115.785 168.422C116.225 168.078 116.817 167.854 117.561 167.75L119.349 167.498V167.15C119.349 166.334 118.881 165.926 117.945 165.926C117.593 165.926 117.305 166.002 117.081 166.154C116.857 166.298 116.689 166.47 116.577 166.67C116.553 166.742 116.521 166.794 116.481 166.826C116.449 166.858 116.401 166.874 116.337 166.874H115.821C115.749 166.874 115.685 166.85 115.629 166.802C115.581 166.746 115.557 166.682 115.557 166.61C115.565 166.418 115.653 166.202 115.821 165.962C115.997 165.714 116.265 165.502 116.625 165.326C116.985 165.142 117.429 165.05 117.957 165.05C118.853 165.05 119.497 165.262 119.889 165.686C120.281 166.102 120.477 166.622 120.477 167.246V171.134C120.477 171.214 120.449 171.282 120.393 171.338C120.345 171.386 120.281 171.41 120.201 171.41H119.649C119.569 171.41 119.501 171.386 119.445 171.338C119.397 171.282 119.373 171.214 119.373 171.134V170.618C119.197 170.874 118.941 171.09 118.605 171.266C118.269 171.442 117.841 171.53 117.321 171.53ZM117.573 170.63C118.093 170.63 118.517 170.462 118.845 170.126C119.181 169.782 119.349 169.29 119.349 168.65V168.314L117.957 168.518C117.389 168.598 116.961 168.734 116.673 168.926C116.385 169.11 116.241 169.346 116.241 169.634C116.241 169.954 116.373 170.202 116.637 170.378C116.901 170.546 117.213 170.63 117.573 170.63ZM123.438 171.41C123.358 171.41 123.29 171.386 123.234 171.338C123.186 171.282 123.162 171.214 123.162 171.134V165.458C123.162 165.378 123.186 165.31 123.234 165.254C123.29 165.198 123.358 165.17 123.438 165.17H123.99C124.07 165.17 124.138 165.198 124.194 165.254C124.25 165.31 124.278 165.378 124.278 165.458V165.986C124.606 165.442 125.166 165.17 125.958 165.17H126.426C126.506 165.17 126.57 165.198 126.618 165.254C126.674 165.302 126.702 165.366 126.702 165.446V165.938C126.702 166.018 126.674 166.082 126.618 166.13C126.57 166.178 126.506 166.202 126.426 166.202H125.706C125.274 166.202 124.934 166.33 124.686 166.586C124.438 166.834 124.314 167.174 124.314 167.606V171.134C124.314 171.214 124.286 171.282 124.23 171.338C124.174 171.386 124.106 171.41 124.026 171.41H123.438ZM131.059 171.53C130.235 171.53 129.575 171.278 129.079 170.774C128.591 170.262 128.323 169.566 128.275 168.686L128.263 168.278L128.275 167.882C128.331 167.018 128.603 166.33 129.091 165.818C129.587 165.306 130.239 165.05 131.047 165.05C131.935 165.05 132.623 165.334 133.111 165.902C133.599 166.462 133.843 167.222 133.843 168.182V168.386C133.843 168.466 133.815 168.534 133.759 168.59C133.711 168.638 133.647 168.662 133.567 168.662H129.415V168.77C129.439 169.29 129.595 169.734 129.883 170.102C130.179 170.462 130.567 170.642 131.047 170.642C131.415 170.642 131.715 170.57 131.947 170.426C132.187 170.274 132.363 170.118 132.475 169.958C132.547 169.862 132.599 169.806 132.631 169.79C132.671 169.766 132.739 169.754 132.835 169.754H133.423C133.495 169.754 133.555 169.774 133.603 169.814C133.651 169.854 133.675 169.91 133.675 169.982C133.675 170.158 133.563 170.37 133.339 170.618C133.123 170.866 132.815 171.082 132.415 171.266C132.023 171.442 131.571 171.53 131.059 171.53ZM132.703 167.834V167.798C132.703 167.246 132.551 166.798 132.247 166.454C131.951 166.102 131.551 165.926 131.047 165.926C130.543 165.926 130.143 166.102 129.847 166.454C129.559 166.798 129.415 167.246 129.415 167.798V167.834H132.703ZM140.319 164.006C140.239 164.006 140.171 163.982 140.115 163.934C140.067 163.878 140.043 163.81 140.043 163.73V163.082C140.043 163.002 140.067 162.934 140.115 162.878C140.171 162.822 140.239 162.794 140.319 162.794H141.075C141.155 162.794 141.223 162.822 141.279 162.878C141.335 162.934 141.363 163.002 141.363 163.082V163.73C141.363 163.81 141.335 163.878 141.279 163.934C141.223 163.982 141.155 164.006 141.075 164.006H140.319ZM140.415 171.41C140.335 171.41 140.267 171.386 140.211 171.338C140.163 171.282 140.139 171.214 140.139 171.134V165.446C140.139 165.366 140.163 165.302 140.211 165.254C140.267 165.198 140.335 165.17 140.415 165.17H140.991C141.071 165.17 141.135 165.198 141.183 165.254C141.239 165.302 141.267 165.366 141.267 165.446V171.134C141.267 171.214 141.239 171.282 141.183 171.338C141.135 171.386 141.071 171.41 140.991 171.41H140.415ZM144.282 171.41C144.202 171.41 144.134 171.386 144.078 171.338C144.03 171.282 144.006 171.214 144.006 171.134V165.446C144.006 165.366 144.03 165.302 144.078 165.254C144.134 165.198 144.202 165.17 144.282 165.17H144.846C144.926 165.17 144.99 165.198 145.038 165.254C145.094 165.302 145.122 165.366 145.122 165.446V165.974C145.354 165.678 145.626 165.45 145.938 165.29C146.258 165.13 146.654 165.05 147.126 165.05C147.894 165.05 148.49 165.298 148.914 165.794C149.346 166.282 149.562 166.934 149.562 167.75V171.134C149.562 171.214 149.534 171.282 149.478 171.338C149.43 171.386 149.366 171.41 149.286 171.41H148.686C148.606 171.41 148.538 171.386 148.482 171.338C148.434 171.282 148.41 171.214 148.41 171.134V167.81C148.41 167.242 148.27 166.802 147.99 166.49C147.718 166.178 147.322 166.022 146.802 166.022C146.298 166.022 145.898 166.182 145.602 166.502C145.306 166.814 145.158 167.25 145.158 167.81V171.134C145.158 171.214 145.13 171.282 145.074 171.338C145.026 171.386 144.962 171.41 144.882 171.41H144.282ZM153.049 171.41C152.969 171.41 152.901 171.386 152.845 171.338C152.797 171.282 152.773 171.214 152.773 171.134V166.13H151.753C151.673 166.13 151.605 166.106 151.549 166.058C151.501 166.002 151.477 165.934 151.477 165.854V165.446C151.477 165.366 151.501 165.302 151.549 165.254C151.605 165.198 151.673 165.17 151.753 165.17H152.773V164.57C152.773 163.21 153.461 162.53 154.837 162.53H155.557C155.637 162.53 155.701 162.558 155.749 162.614C155.805 162.662 155.833 162.726 155.833 162.806V163.214C155.833 163.294 155.805 163.362 155.749 163.418C155.701 163.466 155.637 163.49 155.557 163.49H154.861C154.501 163.49 154.249 163.586 154.105 163.778C153.961 163.962 153.889 164.246 153.889 164.63V165.17H155.437C155.517 165.17 155.581 165.198 155.629 165.254C155.685 165.302 155.713 165.366 155.713 165.446V165.854C155.713 165.934 155.685 166.002 155.629 166.058C155.581 166.106 155.517 166.13 155.437 166.13H153.889V171.134C153.889 171.214 153.861 171.282 153.805 171.338C153.757 171.386 153.693 171.41 153.613 171.41H153.049ZM160.105 171.53C159.281 171.53 158.621 171.278 158.125 170.774C157.637 170.262 157.369 169.566 157.321 168.686L157.309 168.278L157.321 167.882C157.377 167.018 157.649 166.33 158.137 165.818C158.633 165.306 159.285 165.05 160.093 165.05C160.981 165.05 161.669 165.334 162.157 165.902C162.645 166.462 162.889 167.222 162.889 168.182V168.386C162.889 168.466 162.861 168.534 162.805 168.59C162.757 168.638 162.693 168.662 162.613 168.662H158.461V168.77C158.485 169.29 158.641 169.734 158.929 170.102C159.225 170.462 159.613 170.642 160.093 170.642C160.461 170.642 160.761 170.57 160.993 170.426C161.233 170.274 161.409 170.118 161.521 169.958C161.593 169.862 161.645 169.806 161.677 169.79C161.717 169.766 161.785 169.754 161.881 169.754H162.469C162.541 169.754 162.601 169.774 162.649 169.814C162.697 169.854 162.721 169.91 162.721 169.982C162.721 170.158 162.609 170.37 162.385 170.618C162.169 170.866 161.861 171.082 161.461 171.266C161.069 171.442 160.617 171.53 160.105 171.53ZM161.749 167.834V167.798C161.749 167.246 161.597 166.798 161.293 166.454C160.997 166.102 160.597 165.926 160.093 165.926C159.589 165.926 159.189 166.102 158.893 166.454C158.605 166.798 158.461 167.246 158.461 167.798V167.834H161.749ZM167.804 171.53C166.948 171.53 166.276 171.29 165.788 170.81C165.308 170.322 165.052 169.642 165.02 168.77L165.008 168.29L165.02 167.81C165.052 166.938 165.308 166.262 165.788 165.782C166.276 165.294 166.948 165.05 167.804 165.05C168.38 165.05 168.868 165.154 169.268 165.362C169.668 165.57 169.964 165.826 170.156 166.13C170.356 166.434 170.464 166.738 170.48 167.042C170.488 167.122 170.464 167.186 170.408 167.234C170.352 167.282 170.284 167.306 170.204 167.306H169.628C169.548 167.306 169.488 167.29 169.448 167.258C169.408 167.226 169.368 167.162 169.328 167.066C169.192 166.682 169 166.41 168.752 166.25C168.504 166.082 168.192 165.998 167.816 165.998C167.32 165.998 166.924 166.154 166.628 166.466C166.34 166.77 166.184 167.238 166.16 167.87L166.148 168.302L166.16 168.71C166.184 169.35 166.34 169.822 166.628 170.126C166.916 170.43 167.312 170.582 167.816 170.582C168.192 170.582 168.504 170.502 168.752 170.342C169 170.174 169.192 169.898 169.328 169.514C169.368 169.418 169.408 169.354 169.448 169.322C169.488 169.282 169.548 169.262 169.628 169.262H170.204C170.284 169.262 170.352 169.29 170.408 169.346C170.464 169.394 170.488 169.458 170.48 169.538C170.464 169.834 170.356 170.138 170.156 170.45C169.964 170.754 169.668 171.01 169.268 171.218C168.876 171.426 168.388 171.53 167.804 171.53ZM175.301 171.41C174.037 171.41 173.405 170.706 173.405 169.298V166.13H172.469C172.389 166.13 172.321 166.106 172.265 166.058C172.217 166.002 172.193 165.934 172.193 165.854V165.446C172.193 165.366 172.217 165.302 172.265 165.254C172.321 165.198 172.389 165.17 172.469 165.17H173.405V163.166C173.405 163.086 173.429 163.022 173.477 162.974C173.533 162.918 173.601 162.89 173.681 162.89H174.245C174.325 162.89 174.389 162.918 174.437 162.974C174.493 163.022 174.521 163.086 174.521 163.166V165.17H176.009C176.089 165.17 176.153 165.198 176.201 165.254C176.257 165.302 176.285 165.366 176.285 165.446V165.854C176.285 165.934 176.257 166.002 176.201 166.058C176.153 166.106 176.089 166.13 176.009 166.13H174.521V169.214C174.521 169.614 174.589 169.918 174.725 170.126C174.861 170.326 175.085 170.426 175.397 170.426H176.129C176.209 170.426 176.273 170.454 176.321 170.51C176.377 170.558 176.405 170.622 176.405 170.702V171.134C176.405 171.214 176.377 171.282 176.321 171.338C176.273 171.386 176.209 171.41 176.129 171.41H175.301ZM181.009 171.53C180.185 171.53 179.525 171.278 179.029 170.774C178.541 170.262 178.273 169.566 178.225 168.686L178.213 168.278L178.225 167.882C178.281 167.018 178.553 166.33 179.041 165.818C179.537 165.306 180.189 165.05 180.997 165.05C181.885 165.05 182.573 165.334 183.061 165.902C183.549 166.462 183.793 167.222 183.793 168.182V168.386C183.793 168.466 183.765 168.534 183.709 168.59C183.661 168.638 183.597 168.662 183.517 168.662H179.365V168.77C179.389 169.29 179.545 169.734 179.833 170.102C180.129 170.462 180.517 170.642 180.997 170.642C181.365 170.642 181.665 170.57 181.897 170.426C182.137 170.274 182.313 170.118 182.425 169.958C182.497 169.862 182.549 169.806 182.581 169.79C182.621 169.766 182.689 169.754 182.785 169.754H183.373C183.445 169.754 183.505 169.774 183.553 169.814C183.601 169.854 183.625 169.91 183.625 169.982C183.625 170.158 183.513 170.37 183.289 170.618C183.073 170.866 182.765 171.082 182.365 171.266C181.973 171.442 181.521 171.53 181.009 171.53ZM182.653 167.834V167.798C182.653 167.246 182.501 166.798 182.197 166.454C181.901 166.102 181.501 165.926 180.997 165.926C180.493 165.926 180.093 166.102 179.797 166.454C179.509 166.798 179.365 167.246 179.365 167.798V167.834H182.653ZM188.468 171.53C187.636 171.53 187.008 171.258 186.584 170.714C186.16 170.17 185.936 169.482 185.912 168.65L185.9 168.29L185.912 167.93C185.936 167.106 186.16 166.422 186.584 165.878C187.008 165.326 187.636 165.05 188.468 165.05C189.292 165.05 189.94 165.342 190.412 165.926V163.166C190.412 163.086 190.436 163.022 190.484 162.974C190.54 162.918 190.608 162.89 190.688 162.89H191.264C191.344 162.89 191.408 162.918 191.456 162.974C191.512 163.022 191.54 163.086 191.54 163.166V171.134C191.54 171.214 191.512 171.282 191.456 171.338C191.408 171.386 191.344 171.41 191.264 171.41H190.724C190.644 171.41 190.576 171.386 190.52 171.338C190.472 171.282 190.448 171.214 190.448 171.134V170.63C189.984 171.23 189.324 171.53 188.468 171.53ZM188.72 170.558C189.272 170.558 189.684 170.378 189.956 170.018C190.236 169.65 190.388 169.214 190.412 168.71C190.42 168.622 190.424 168.47 190.424 168.254C190.424 168.03 190.42 167.874 190.412 167.786C190.396 167.314 190.244 166.902 189.956 166.55C189.668 166.198 189.256 166.022 188.72 166.022C188.152 166.022 187.736 166.198 187.472 166.55C187.216 166.902 187.076 167.366 187.052 167.942L187.04 168.29C187.04 169.802 187.6 170.558 188.72 170.558ZM201.27 171.53C200.406 171.53 199.75 171.23 199.302 170.63V171.134C199.302 171.214 199.274 171.282 199.218 171.338C199.17 171.386 199.106 171.41 199.026 171.41H198.474C198.394 171.41 198.326 171.386 198.27 171.338C198.222 171.282 198.198 171.214 198.198 171.134V163.166C198.198 163.086 198.222 163.022 198.27 162.974C198.326 162.918 198.394 162.89 198.474 162.89H199.062C199.142 162.89 199.206 162.918 199.254 162.974C199.302 163.022 199.326 163.086 199.326 163.166V165.926C199.798 165.342 200.446 165.05 201.27 165.05C202.102 165.05 202.73 165.326 203.154 165.878C203.578 166.422 203.806 167.106 203.838 167.93C203.846 168.018 203.85 168.138 203.85 168.29C203.85 168.442 203.846 168.562 203.838 168.65C203.806 169.482 203.578 170.17 203.154 170.714C202.73 171.258 202.102 171.53 201.27 171.53ZM201.018 170.558C201.586 170.558 201.998 170.382 202.254 170.03C202.518 169.678 202.662 169.214 202.686 168.638C202.694 168.558 202.698 168.442 202.698 168.29C202.698 166.778 202.138 166.022 201.018 166.022C200.482 166.022 200.07 166.198 199.782 166.55C199.494 166.902 199.342 167.314 199.326 167.786L199.314 168.254L199.326 168.71C199.35 169.214 199.498 169.65 199.77 170.018C200.05 170.378 200.466 170.558 201.018 170.558ZM207.14 173.69C207.076 173.69 207.02 173.666 206.972 173.618C206.924 173.57 206.9 173.514 206.9 173.45C206.9 173.394 206.92 173.322 206.96 173.234L207.884 171.038L205.592 165.626C205.552 165.522 205.532 165.454 205.532 165.422C205.532 165.35 205.556 165.29 205.604 165.242C205.652 165.194 205.712 165.17 205.784 165.17H206.372C206.5 165.17 206.596 165.238 206.66 165.374L208.484 169.742L210.356 165.374C210.42 165.238 210.52 165.17 210.656 165.17H211.22C211.292 165.17 211.352 165.194 211.4 165.242C211.448 165.29 211.472 165.346 211.472 165.41C211.472 165.434 211.452 165.506 211.412 165.626L208.004 173.486C207.94 173.622 207.84 173.69 207.704 173.69H207.14ZM6.9486 188.53C5.8766 188.53 5.0606 188.242 4.5006 187.666C3.9486 187.09 3.6526 186.294 3.6126 185.278C3.6046 185.062 3.6006 184.71 3.6006 184.222C3.6006 183.726 3.6046 183.366 3.6126 183.142C3.6526 182.134 3.9526 181.342 4.5126 180.766C5.0726 180.182 5.8846 179.89 6.9486 179.89C7.6606 179.89 8.2646 180.018 8.7606 180.274C9.2566 180.522 9.6326 180.85 9.8886 181.258C10.1446 181.666 10.2846 182.102 10.3086 182.566V182.59C10.3086 182.654 10.2806 182.71 10.2246 182.758C10.1766 182.798 10.1206 182.818 10.0566 182.818H9.3966C9.2366 182.818 9.1366 182.726 9.0966 182.542C8.9606 181.942 8.7166 181.522 8.3646 181.282C8.0126 181.034 7.5406 180.91 6.9486 180.91C5.5726 180.91 4.8606 181.674 4.8126 183.202C4.8046 183.418 4.8006 183.75 4.8006 184.198C4.8006 184.646 4.8046 184.986 4.8126 185.218C4.8606 186.746 5.5726 187.51 6.9486 187.51C7.5406 187.51 8.0126 187.39 8.3646 187.15C8.7246 186.902 8.9686 186.478 9.0966 185.878C9.1206 185.774 9.1566 185.702 9.2046 185.662C9.2526 185.622 9.3166 185.602 9.3966 185.602H10.0566C10.1286 185.602 10.1886 185.626 10.2366 185.674C10.2926 185.714 10.3166 185.77 10.3086 185.842C10.2846 186.314 10.1446 186.754 9.8886 187.162C9.6326 187.57 9.2566 187.902 8.7606 188.158C8.2646 188.406 7.6606 188.53 6.9486 188.53ZM15.9008 188.53C14.8528 188.53 14.0408 188.258 13.4648 187.714C12.8968 187.162 12.5968 186.334 12.5648 185.23C12.5568 184.99 12.5528 184.65 12.5528 184.21C12.5528 183.77 12.5568 183.434 12.5648 183.202C12.5968 182.122 12.9088 181.302 13.5008 180.742C14.0928 180.174 14.8928 179.89 15.9008 179.89C16.9008 179.89 17.6968 180.174 18.2888 180.742C18.8808 181.302 19.1928 182.122 19.2248 183.202C19.2408 183.666 19.2488 184.002 19.2488 184.21C19.2488 184.41 19.2408 184.75 19.2248 185.23C19.1928 186.334 18.8888 187.162 18.3128 187.714C17.7448 188.258 16.9408 188.53 15.9008 188.53ZM15.9008 187.51C16.5328 187.51 17.0368 187.318 17.4128 186.934C17.7888 186.55 17.9928 185.962 18.0248 185.17C18.0408 184.69 18.0488 184.37 18.0488 184.21C18.0488 184.034 18.0408 183.714 18.0248 183.25C17.9928 182.458 17.7848 181.87 17.4008 181.486C17.0248 181.102 16.5248 180.91 15.9008 180.91C15.2688 180.91 14.7608 181.102 14.3768 181.486C14.0008 181.87 13.7968 182.458 13.7648 183.25C13.7568 183.482 13.7528 183.802 13.7528 184.21C13.7528 184.61 13.7568 184.93 13.7648 185.17C13.7968 185.962 14.0008 186.55 14.3768 186.934C14.7608 187.318 15.2688 187.51 15.9008 187.51ZM24.2195 188.41C24.0035 188.41 23.8555 188.306 23.7755 188.098L21.0995 180.382L21.0755 180.25C21.0755 180.186 21.0995 180.13 21.1475 180.082C21.1955 180.034 21.2515 180.01 21.3155 180.01H21.9395C22.0915 180.01 22.1995 180.082 22.2635 180.226L24.6035 187.03L26.9555 180.226C26.9715 180.178 27.0075 180.13 27.0635 180.082C27.1195 180.034 27.1875 180.01 27.2675 180.01H27.8915C27.9555 180.01 28.0115 180.034 28.0595 180.082C28.1155 180.13 28.1435 180.186 28.1435 180.25L28.1195 180.382L25.4315 188.098C25.3515 188.306 25.2075 188.41 24.9995 188.41H24.2195ZM30.8228 188.41C30.7428 188.41 30.6748 188.386 30.6188 188.338C30.5708 188.282 30.5468 188.214 30.5468 188.134V180.286C30.5468 180.206 30.5708 180.142 30.6188 180.094C30.6748 180.038 30.7428 180.01 30.8228 180.01H31.4588C31.5388 180.01 31.6028 180.038 31.6508 180.094C31.7068 180.142 31.7348 180.206 31.7348 180.286V188.134C31.7348 188.214 31.7068 188.282 31.6508 188.338C31.6028 188.386 31.5388 188.41 31.4588 188.41H30.8228ZM35.064 188.41C34.984 188.41 34.916 188.386 34.86 188.338C34.812 188.282 34.788 188.214 34.788 188.134V180.298C34.788 180.21 34.812 180.142 34.86 180.094C34.916 180.038 34.984 180.01 35.064 180.01H37.788C38.996 180.01 39.868 180.282 40.404 180.826C40.94 181.362 41.22 182.174 41.244 183.262C41.252 183.494 41.256 183.806 41.256 184.198C41.256 184.59 41.252 184.906 41.244 185.146C41.22 185.906 41.092 186.526 40.86 187.006C40.636 187.478 40.28 187.83 39.792 188.062C39.304 188.294 38.656 188.41 37.848 188.41H35.064ZM37.788 187.39C38.34 187.39 38.776 187.314 39.096 187.162C39.424 187.01 39.66 186.77 39.804 186.442C39.956 186.106 40.04 185.658 40.056 185.098C40.072 184.618 40.08 184.318 40.08 184.198C40.08 184.07 40.072 183.774 40.056 183.31C40.04 182.518 39.852 181.942 39.492 181.582C39.132 181.214 38.544 181.03 37.728 181.03H35.964V187.39H37.788ZM44.0815 185.314C44.0015 185.314 43.9335 185.29 43.8775 185.242C43.8295 185.186 43.8055 185.118 43.8055 185.038V184.582C43.8055 184.502 43.8295 184.438 43.8775 184.39C43.9335 184.334 44.0015 184.306 44.0815 184.306H47.6815C47.7615 184.306 47.8255 184.334 47.8735 184.39C47.9295 184.438 47.9575 184.502 47.9575 184.582V185.038C47.9575 185.118 47.9295 185.186 47.8735 185.242C47.8255 185.29 47.7615 185.314 47.6815 185.314H44.0815ZM52.6167 188.41C52.5367 188.41 52.4687 188.386 52.4127 188.338C52.3647 188.282 52.3407 188.214 52.3407 188.134V181.414L50.3487 182.95C50.2927 182.998 50.2327 183.022 50.1687 183.022C50.0967 183.022 50.0287 182.982 49.9647 182.902L49.6527 182.506C49.6127 182.45 49.5927 182.394 49.5927 182.338C49.5927 182.242 49.6327 182.166 49.7127 182.11L52.3287 180.094C52.4167 180.038 52.5207 180.01 52.6407 180.01H53.2527C53.3327 180.01 53.3967 180.038 53.4447 180.094C53.5007 180.142 53.5287 180.206 53.5287 180.286V188.134C53.5287 188.214 53.5007 188.282 53.4447 188.338C53.3967 188.386 53.3327 188.41 53.2527 188.41H52.6167ZM57.7135 188.41C57.6415 188.41 57.5815 188.386 57.5335 188.338C57.4935 188.282 57.4735 188.218 57.4735 188.146C57.4735 188.09 57.4895 188.038 57.5215 187.99L59.3575 185.434C59.1655 185.482 58.9495 185.506 58.7095 185.506C58.1415 185.498 57.6375 185.366 57.1975 185.11C56.7655 184.854 56.4335 184.514 56.2015 184.09C55.9695 183.666 55.8535 183.214 55.8535 182.734C55.8535 182.254 55.9655 181.798 56.1895 181.366C56.4215 180.926 56.7655 180.57 57.2215 180.298C57.6775 180.026 58.2295 179.89 58.8775 179.89C59.5255 179.89 60.0775 180.022 60.5335 180.286C60.9975 180.55 61.3455 180.898 61.5775 181.33C61.8095 181.762 61.9255 182.222 61.9255 182.71C61.9255 183.142 61.8495 183.526 61.6975 183.862C61.5455 184.19 61.3335 184.55 61.0615 184.942L58.7455 188.17C58.6895 188.242 58.6335 188.302 58.5775 188.35C58.5295 188.39 58.4575 188.41 58.3615 188.41H57.7135ZM58.8775 184.534C59.2135 184.534 59.5215 184.462 59.8015 184.318C60.0895 184.166 60.3175 183.954 60.4855 183.682C60.6535 183.402 60.7375 183.082 60.7375 182.722C60.7375 182.362 60.6535 182.046 60.4855 181.774C60.3175 181.494 60.0895 181.282 59.8015 181.138C59.5215 180.986 59.2135 180.91 58.8775 180.91C58.5415 180.91 58.2335 180.986 57.9535 181.138C57.6735 181.282 57.4495 181.494 57.2815 181.774C57.1215 182.046 57.0415 182.362 57.0415 182.722C57.0415 183.082 57.1215 183.402 57.2815 183.682C57.4495 183.954 57.6735 184.166 57.9535 184.318C58.2335 184.462 58.5415 184.534 58.8775 184.534ZM69.6349 188.41C69.5309 188.41 69.4509 188.386 69.3949 188.338C69.3389 188.29 69.2909 188.214 69.2509 188.11L67.5469 182.542L67.5229 182.422C67.5229 182.35 67.5469 182.29 67.5949 182.242C67.6509 182.194 67.7109 182.17 67.7749 182.17H68.3029C68.3829 182.17 68.4469 182.194 68.4949 182.242C68.5509 182.282 68.5869 182.326 68.6029 182.374L69.9349 186.898L71.3629 182.422C71.3789 182.358 71.4149 182.302 71.4709 182.254C71.5269 182.198 71.6029 182.17 71.6989 182.17H72.1069C72.2029 182.17 72.2789 182.198 72.3349 182.254C72.3909 182.302 72.4269 182.358 72.4429 182.422L73.8709 186.898L75.2029 182.374C75.2109 182.334 75.2389 182.29 75.2869 182.242C75.3429 182.194 75.4109 182.17 75.4909 182.17H76.0309C76.0949 182.17 76.1509 182.194 76.1989 182.242C76.2469 182.29 76.2709 182.35 76.2709 182.422L76.2469 182.542L74.5549 188.11C74.5149 188.214 74.4669 188.29 74.4109 188.338C74.3549 188.386 74.2709 188.41 74.1589 188.41H73.6909C73.4749 188.41 73.3429 188.31 73.2949 188.11L71.9029 183.814L70.5109 188.11C70.4469 188.31 70.3109 188.41 70.1029 188.41H69.6349ZM78.74 181.006C78.66 181.006 78.592 180.982 78.536 180.934C78.488 180.878 78.464 180.81 78.464 180.73V180.082C78.464 180.002 78.488 179.934 78.536 179.878C78.592 179.822 78.66 179.794 78.74 179.794H79.496C79.576 179.794 79.644 179.822 79.7 179.878C79.756 179.934 79.784 180.002 79.784 180.082V180.73C79.784 180.81 79.756 180.878 79.7 180.934C79.644 180.982 79.576 181.006 79.496 181.006H78.74ZM78.836 188.41C78.756 188.41 78.688 188.386 78.632 188.338C78.584 188.282 78.56 188.214 78.56 188.134V182.446C78.56 182.366 78.584 182.302 78.632 182.254C78.688 182.198 78.756 182.17 78.836 182.17H79.412C79.492 182.17 79.556 182.198 79.604 182.254C79.66 182.302 79.688 182.366 79.688 182.446V188.134C79.688 188.214 79.66 188.282 79.604 188.338C79.556 188.386 79.492 188.41 79.412 188.41H78.836ZM84.8623 188.41C83.5983 188.41 82.9663 187.706 82.9663 186.298V183.13H82.0303C81.9503 183.13 81.8823 183.106 81.8263 183.058C81.7783 183.002 81.7543 182.934 81.7543 182.854V182.446C81.7543 182.366 81.7783 182.302 81.8263 182.254C81.8823 182.198 81.9503 182.17 82.0303 182.17H82.9663V180.166C82.9663 180.086 82.9903 180.022 83.0383 179.974C83.0943 179.918 83.1623 179.89 83.2423 179.89H83.8063C83.8863 179.89 83.9503 179.918 83.9983 179.974C84.0543 180.022 84.0823 180.086 84.0823 180.166V182.17H85.5703C85.6503 182.17 85.7143 182.198 85.7623 182.254C85.8183 182.302 85.8463 182.366 85.8463 182.446V182.854C85.8463 182.934 85.8183 183.002 85.7623 183.058C85.7143 183.106 85.6503 183.13 85.5703 183.13H84.0823V186.214C84.0823 186.614 84.1503 186.918 84.2863 187.126C84.4223 187.326 84.6463 187.426 84.9583 187.426H85.6903C85.7703 187.426 85.8343 187.454 85.8823 187.51C85.9383 187.558 85.9663 187.622 85.9663 187.702V188.134C85.9663 188.214 85.9383 188.282 85.8823 188.338C85.8343 188.386 85.7703 188.41 85.6903 188.41H84.8623ZM88.3618 188.41C88.2818 188.41 88.2138 188.386 88.1578 188.338C88.1098 188.282 88.0858 188.214 88.0858 188.134V180.166C88.0858 180.086 88.1098 180.022 88.1578 179.974C88.2138 179.918 88.2818 179.89 88.3618 179.89H88.9618C89.0418 179.89 89.1058 179.918 89.1538 179.974C89.2098 180.022 89.2378 180.086 89.2378 180.166V182.962C89.4698 182.666 89.7418 182.442 90.0538 182.29C90.3658 182.13 90.7538 182.05 91.2178 182.05C91.9858 182.05 92.5818 182.298 93.0058 182.794C93.4378 183.282 93.6538 183.934 93.6538 184.75V188.134C93.6538 188.214 93.6258 188.282 93.5698 188.338C93.5218 188.386 93.4578 188.41 93.3778 188.41H92.7778C92.6978 188.41 92.6298 188.386 92.5738 188.338C92.5258 188.282 92.5018 188.214 92.5018 188.134V184.81C92.5018 184.242 92.3618 183.802 92.0818 183.49C91.8098 183.178 91.4138 183.022 90.8938 183.022C90.3898 183.022 89.9858 183.182 89.6818 183.502C89.3858 183.814 89.2378 184.25 89.2378 184.81V188.134C89.2378 188.214 89.2098 188.282 89.1538 188.338C89.1058 188.386 89.0418 188.41 88.9618 188.41H88.3618ZM102.804 188.53C101.924 188.53 101.24 188.282 100.752 187.786C100.272 187.29 100.016 186.63 99.9837 185.806L99.9717 185.29L99.9837 184.774C100.016 183.958 100.276 183.302 100.764 182.806C101.252 182.302 101.932 182.05 102.804 182.05C103.676 182.05 104.356 182.302 104.844 182.806C105.332 183.302 105.592 183.958 105.624 184.774C105.632 184.862 105.636 185.034 105.636 185.29C105.636 185.546 105.632 185.718 105.624 185.806C105.592 186.63 105.332 187.29 104.844 187.786C104.364 188.282 103.684 188.53 102.804 188.53ZM102.804 187.606C103.308 187.606 103.704 187.446 103.992 187.126C104.288 186.806 104.448 186.346 104.472 185.746C104.48 185.666 104.484 185.514 104.484 185.29C104.484 185.066 104.48 184.914 104.472 184.834C104.448 184.234 104.288 183.774 103.992 183.454C103.704 183.134 103.308 182.974 102.804 182.974C102.3 182.974 101.9 183.134 101.604 183.454C101.308 183.774 101.152 184.234 101.136 184.834L101.124 185.29L101.136 185.746C101.152 186.346 101.308 186.806 101.604 187.126C101.9 187.446 102.3 187.606 102.804 187.606ZM110.426 188.53C109.666 188.53 109.078 188.286 108.662 187.798C108.246 187.302 108.038 186.646 108.038 185.83V182.446C108.038 182.366 108.062 182.302 108.11 182.254C108.166 182.198 108.234 182.17 108.314 182.17H108.914C108.994 182.17 109.058 182.198 109.106 182.254C109.162 182.302 109.19 182.366 109.19 182.446V185.77C109.19 186.962 109.71 187.558 110.75 187.558C111.254 187.558 111.654 187.402 111.95 187.09C112.246 186.77 112.394 186.33 112.394 185.77V182.446C112.394 182.366 112.418 182.302 112.466 182.254C112.522 182.198 112.59 182.17 112.67 182.17H113.27C113.35 182.17 113.414 182.198 113.462 182.254C113.51 182.302 113.534 182.366 113.534 182.446V188.134C113.534 188.214 113.51 188.282 113.462 188.338C113.414 188.386 113.35 188.41 113.27 188.41H112.706C112.626 188.41 112.558 188.386 112.502 188.338C112.454 188.282 112.43 188.214 112.43 188.134V187.606C112.206 187.91 111.934 188.142 111.614 188.302C111.294 188.454 110.898 188.53 110.426 188.53ZM116.553 188.41C116.473 188.41 116.405 188.386 116.349 188.338C116.301 188.282 116.277 188.214 116.277 188.134V182.458C116.277 182.378 116.301 182.31 116.349 182.254C116.405 182.198 116.473 182.17 116.553 182.17H117.105C117.185 182.17 117.253 182.198 117.309 182.254C117.365 182.31 117.393 182.378 117.393 182.458V182.986C117.721 182.442 118.281 182.17 119.073 182.17H119.541C119.621 182.17 119.685 182.198 119.733 182.254C119.789 182.302 119.817 182.366 119.817 182.446V182.938C119.817 183.018 119.789 183.082 119.733 183.13C119.685 183.178 119.621 183.202 119.541 183.202H118.821C118.389 183.202 118.049 183.33 117.801 183.586C117.553 183.834 117.429 184.174 117.429 184.606V188.134C117.429 188.214 117.401 188.282 117.345 188.338C117.289 188.386 117.221 188.41 117.141 188.41H116.553ZM128.272 188.53C127.608 188.53 127.032 188.426 126.544 188.218C126.064 188.01 125.696 187.738 125.44 187.402C125.184 187.058 125.048 186.69 125.032 186.298C125.032 186.234 125.056 186.178 125.104 186.13C125.16 186.074 125.224 186.046 125.296 186.046H125.908C126.06 186.046 126.164 186.126 126.22 186.286C126.292 186.622 126.496 186.91 126.832 187.15C127.176 187.39 127.656 187.51 128.272 187.51C128.936 187.51 129.436 187.394 129.772 187.162C130.108 186.922 130.276 186.59 130.276 186.166C130.276 185.894 130.192 185.674 130.024 185.506C129.864 185.338 129.624 185.19 129.304 185.062C128.984 184.934 128.504 184.774 127.864 184.582C127.24 184.406 126.744 184.218 126.376 184.018C126.008 183.818 125.732 183.57 125.548 183.274C125.364 182.978 125.272 182.606 125.272 182.158C125.272 181.726 125.388 181.338 125.62 180.994C125.86 180.65 126.2 180.382 126.64 180.19C127.08 179.99 127.604 179.89 128.212 179.89C128.836 179.89 129.372 180.002 129.82 180.226C130.268 180.442 130.608 180.718 130.84 181.054C131.072 181.39 131.196 181.726 131.212 182.062C131.212 182.126 131.188 182.182 131.14 182.23C131.1 182.278 131.04 182.302 130.96 182.302H130.324C130.156 182.302 130.052 182.226 130.012 182.074C129.964 181.738 129.776 181.462 129.448 181.246C129.12 181.022 128.708 180.91 128.212 180.91C127.668 180.91 127.24 181.014 126.928 181.222C126.616 181.43 126.46 181.738 126.46 182.146C126.46 182.418 126.532 182.642 126.676 182.818C126.828 182.994 127.056 183.15 127.36 183.286C127.664 183.414 128.108 183.562 128.692 183.73C129.372 183.914 129.908 184.106 130.3 184.306C130.692 184.498 130.984 184.742 131.176 185.038C131.368 185.326 131.464 185.694 131.464 186.142C131.464 186.886 131.176 187.47 130.6 187.894C130.024 188.318 129.248 188.53 128.272 188.53ZM134.921 190.69C134.857 190.69 134.801 190.666 134.753 190.618C134.705 190.57 134.681 190.514 134.681 190.45C134.681 190.394 134.701 190.322 134.741 190.234L135.665 188.038L133.373 182.626C133.333 182.522 133.313 182.454 133.313 182.422C133.313 182.35 133.337 182.29 133.385 182.242C133.433 182.194 133.493 182.17 133.565 182.17H134.153C134.281 182.17 134.377 182.238 134.441 182.374L136.265 186.742L138.137 182.374C138.201 182.238 138.301 182.17 138.437 182.17H139.001C139.073 182.17 139.133 182.194 139.181 182.242C139.229 182.29 139.253 182.346 139.253 182.41C139.253 182.434 139.233 182.506 139.193 182.626L135.785 190.486C135.721 190.622 135.621 190.69 135.485 190.69H134.921ZM141.686 188.41C141.606 188.41 141.538 188.386 141.482 188.338C141.434 188.282 141.41 188.214 141.41 188.134V182.446C141.41 182.366 141.434 182.302 141.482 182.254C141.538 182.198 141.606 182.17 141.686 182.17H142.226C142.306 182.17 142.37 182.198 142.418 182.254C142.474 182.302 142.502 182.366 142.502 182.446V182.866C142.918 182.322 143.498 182.05 144.242 182.05C145.13 182.05 145.758 182.418 146.126 183.154C146.318 182.818 146.59 182.55 146.942 182.35C147.294 182.15 147.69 182.05 148.13 182.05C148.786 182.05 149.322 182.274 149.738 182.722C150.154 183.17 150.362 183.818 150.362 184.666V188.134C150.362 188.214 150.334 188.282 150.278 188.338C150.23 188.386 150.166 188.41 150.086 188.41H149.522C149.442 188.41 149.374 188.386 149.318 188.338C149.27 188.282 149.246 188.214 149.246 188.134V184.774C149.246 184.15 149.114 183.702 148.85 183.43C148.594 183.158 148.254 183.022 147.83 183.022C147.454 183.022 147.13 183.162 146.858 183.442C146.586 183.714 146.45 184.158 146.45 184.774V188.134C146.45 188.214 146.422 188.282 146.366 188.338C146.318 188.386 146.254 188.41 146.174 188.41H145.61C145.53 188.41 145.462 188.386 145.406 188.338C145.358 188.282 145.334 188.214 145.334 188.134V184.774C145.334 184.15 145.198 183.702 144.926 183.43C144.662 183.158 144.326 183.022 143.918 183.022C143.542 183.022 143.218 183.162 142.946 183.442C142.674 183.714 142.538 184.154 142.538 184.762V188.134C142.538 188.214 142.51 188.282 142.454 188.338C142.406 188.386 142.342 188.41 142.262 188.41H141.686ZM153.322 190.69C153.242 190.69 153.174 190.662 153.118 190.606C153.07 190.558 153.046 190.494 153.046 190.414V182.446C153.046 182.366 153.07 182.302 153.118 182.254C153.174 182.198 153.242 182.17 153.322 182.17H153.874C153.954 182.17 154.018 182.198 154.066 182.254C154.122 182.302 154.15 182.366 154.15 182.446V182.974C154.598 182.358 155.254 182.05 156.118 182.05C156.958 182.05 157.586 182.314 158.002 182.842C158.426 183.37 158.654 184.05 158.686 184.882C158.694 184.97 158.698 185.106 158.698 185.29C158.698 185.474 158.694 185.61 158.686 185.698C158.654 186.522 158.426 187.202 158.002 187.738C157.578 188.266 156.95 188.53 156.118 188.53C155.286 188.53 154.638 188.23 154.174 187.63V190.414C154.174 190.494 154.15 190.558 154.102 190.606C154.054 190.662 153.99 190.69 153.91 190.69H153.322ZM155.866 187.558C156.434 187.558 156.846 187.382 157.102 187.03C157.366 186.678 157.51 186.214 157.534 185.638C157.542 185.558 157.546 185.442 157.546 185.29C157.546 183.778 156.986 183.022 155.866 183.022C155.314 183.022 154.898 183.206 154.618 183.574C154.346 183.934 154.198 184.366 154.174 184.87L154.162 185.326L154.174 185.794C154.19 186.266 154.342 186.678 154.63 187.03C154.918 187.382 155.33 187.558 155.866 187.558ZM163.508 188.41C162.244 188.41 161.612 187.706 161.612 186.298V183.13H160.676C160.596 183.13 160.528 183.106 160.472 183.058C160.424 183.002 160.4 182.934 160.4 182.854V182.446C160.4 182.366 160.424 182.302 160.472 182.254C160.528 182.198 160.596 182.17 160.676 182.17H161.612V180.166C161.612 180.086 161.636 180.022 161.684 179.974C161.74 179.918 161.808 179.89 161.888 179.89H162.452C162.532 179.89 162.596 179.918 162.644 179.974C162.7 180.022 162.728 180.086 162.728 180.166V182.17H164.216C164.296 182.17 164.36 182.198 164.408 182.254C164.464 182.302 164.492 182.366 164.492 182.446V182.854C164.492 182.934 164.464 183.002 164.408 183.058C164.36 183.106 164.296 183.13 164.216 183.13H162.728V186.214C162.728 186.614 162.796 186.918 162.932 187.126C163.068 187.326 163.292 187.426 163.604 187.426H164.336C164.416 187.426 164.48 187.454 164.528 187.51C164.584 187.558 164.612 187.622 164.612 187.702V188.134C164.612 188.214 164.584 188.282 164.528 188.338C164.48 188.386 164.416 188.41 164.336 188.41H163.508ZM169.276 188.53C168.396 188.53 167.712 188.282 167.224 187.786C166.744 187.29 166.488 186.63 166.456 185.806L166.444 185.29L166.456 184.774C166.488 183.958 166.748 183.302 167.236 182.806C167.724 182.302 168.404 182.05 169.276 182.05C170.148 182.05 170.828 182.302 171.316 182.806C171.804 183.302 172.064 183.958 172.096 184.774C172.104 184.862 172.108 185.034 172.108 185.29C172.108 185.546 172.104 185.718 172.096 185.806C172.064 186.63 171.804 187.29 171.316 187.786C170.836 188.282 170.156 188.53 169.276 188.53ZM169.276 187.606C169.78 187.606 170.176 187.446 170.464 187.126C170.76 186.806 170.92 186.346 170.944 185.746C170.952 185.666 170.956 185.514 170.956 185.29C170.956 185.066 170.952 184.914 170.944 184.834C170.92 184.234 170.76 183.774 170.464 183.454C170.176 183.134 169.78 182.974 169.276 182.974C168.772 182.974 168.372 183.134 168.076 183.454C167.78 183.774 167.624 184.234 167.608 184.834L167.596 185.29L167.608 185.746C167.624 186.346 167.78 186.806 168.076 187.126C168.372 187.446 168.772 187.606 169.276 187.606ZM174.846 188.41C174.766 188.41 174.698 188.386 174.642 188.338C174.594 188.282 174.57 188.214 174.57 188.134V182.446C174.57 182.366 174.594 182.302 174.642 182.254C174.698 182.198 174.766 182.17 174.846 182.17H175.386C175.466 182.17 175.53 182.198 175.578 182.254C175.634 182.302 175.662 182.366 175.662 182.446V182.866C176.078 182.322 176.658 182.05 177.402 182.05C178.29 182.05 178.918 182.418 179.286 183.154C179.478 182.818 179.75 182.55 180.102 182.35C180.454 182.15 180.85 182.05 181.29 182.05C181.946 182.05 182.482 182.274 182.898 182.722C183.314 183.17 183.522 183.818 183.522 184.666V188.134C183.522 188.214 183.494 188.282 183.438 188.338C183.39 188.386 183.326 188.41 183.246 188.41H182.682C182.602 188.41 182.534 188.386 182.478 188.338C182.43 188.282 182.406 188.214 182.406 188.134V184.774C182.406 184.15 182.274 183.702 182.01 183.43C181.754 183.158 181.414 183.022 180.99 183.022C180.614 183.022 180.29 183.162 180.018 183.442C179.746 183.714 179.61 184.158 179.61 184.774V188.134C179.61 188.214 179.582 188.282 179.526 188.338C179.478 188.386 179.414 188.41 179.334 188.41H178.77C178.69 188.41 178.622 188.386 178.566 188.338C178.518 188.282 178.494 188.214 178.494 188.134V184.774C178.494 184.15 178.358 183.702 178.086 183.43C177.822 183.158 177.486 183.022 177.078 183.022C176.702 183.022 176.378 183.162 176.106 183.442C175.834 183.714 175.698 184.154 175.698 184.762V188.134C175.698 188.214 175.67 188.282 175.614 188.338C175.566 188.386 175.502 188.41 175.422 188.41H174.846ZM193.276 188.53C192.204 188.53 191.388 188.242 190.828 187.666C190.276 187.09 189.98 186.294 189.94 185.278C189.932 185.062 189.928 184.71 189.928 184.222C189.928 183.726 189.932 183.366 189.94 183.142C189.98 182.134 190.28 181.342 190.84 180.766C191.4 180.182 192.212 179.89 193.276 179.89C193.988 179.89 194.592 180.018 195.088 180.274C195.584 180.522 195.96 180.85 196.216 181.258C196.472 181.666 196.612 182.102 196.636 182.566V182.59C196.636 182.654 196.608 182.71 196.552 182.758C196.504 182.798 196.448 182.818 196.384 182.818H195.724C195.564 182.818 195.464 182.726 195.424 182.542C195.288 181.942 195.044 181.522 194.692 181.282C194.34 181.034 193.868 180.91 193.276 180.91C191.9 180.91 191.188 181.674 191.14 183.202C191.132 183.418 191.128 183.75 191.128 184.198C191.128 184.646 191.132 184.986 191.14 185.218C191.188 186.746 191.9 187.51 193.276 187.51C193.868 187.51 194.34 187.39 194.692 187.15C195.052 186.902 195.296 186.478 195.424 185.878C195.448 185.774 195.484 185.702 195.532 185.662C195.58 185.622 195.644 185.602 195.724 185.602H196.384C196.456 185.602 196.516 185.626 196.564 185.674C196.62 185.714 196.644 185.77 196.636 185.842C196.612 186.314 196.472 186.754 196.216 187.162C195.96 187.57 195.584 187.902 195.088 188.158C194.592 188.406 193.988 188.53 193.276 188.53ZM199.336 188.41C199.256 188.41 199.188 188.386 199.132 188.338C199.084 188.282 199.06 188.214 199.06 188.134V180.166C199.06 180.086 199.084 180.022 199.132 179.974C199.188 179.918 199.256 179.89 199.336 179.89H199.936C200.016 179.89 200.08 179.918 200.128 179.974C200.184 180.022 200.212 180.086 200.212 180.166V182.962C200.444 182.666 200.716 182.442 201.028 182.29C201.34 182.13 201.728 182.05 202.192 182.05C202.96 182.05 203.556 182.298 203.98 182.794C204.412 183.282 204.628 183.934 204.628 184.75V188.134C204.628 188.214 204.6 188.282 204.544 188.338C204.496 188.386 204.432 188.41 204.352 188.41H203.752C203.672 188.41 203.604 188.386 203.548 188.338C203.5 188.282 203.476 188.214 203.476 188.134V184.81C203.476 184.242 203.336 183.802 203.056 183.49C202.784 183.178 202.388 183.022 201.868 183.022C201.364 183.022 200.96 183.182 200.656 183.502C200.36 183.814 200.212 184.25 200.212 184.81V188.134C200.212 188.214 200.184 188.282 200.128 188.338C200.08 188.386 200.016 188.41 199.936 188.41H199.336ZM209.816 188.53C208.992 188.53 208.332 188.278 207.836 187.774C207.348 187.262 207.08 186.566 207.032 185.686L207.02 185.278L207.032 184.882C207.088 184.018 207.36 183.33 207.848 182.818C208.344 182.306 208.996 182.05 209.804 182.05C210.692 182.05 211.38 182.334 211.868 182.902C212.356 183.462 212.6 184.222 212.6 185.182V185.386C212.6 185.466 212.572 185.534 212.516 185.59C212.468 185.638 212.404 185.662 212.324 185.662H208.172V185.77C208.196 186.29 208.352 186.734 208.64 187.102C208.936 187.462 209.324 187.642 209.804 187.642C210.172 187.642 210.472 187.57 210.704 187.426C210.944 187.274 211.12 187.118 211.232 186.958C211.304 186.862 211.356 186.806 211.388 186.79C211.428 186.766 211.496 186.754 211.592 186.754H212.18C212.252 186.754 212.312 186.774 212.36 186.814C212.408 186.854 212.432 186.91 212.432 186.982C212.432 187.158 212.32 187.37 212.096 187.618C211.88 187.866 211.572 188.082 211.172 188.266C210.78 188.442 210.328 188.53 209.816 188.53ZM211.46 184.834V184.798C211.46 184.246 211.308 183.798 211.004 183.454C210.708 183.102 210.308 182.926 209.804 182.926C209.3 182.926 208.9 183.102 208.604 183.454C208.316 183.798 208.172 184.246 208.172 184.798V184.834H211.46ZM217.515 188.53C216.659 188.53 215.987 188.29 215.499 187.81C215.019 187.322 214.763 186.642 214.731 185.77L214.719 185.29L214.731 184.81C214.763 183.938 215.019 183.262 215.499 182.782C215.987 182.294 216.659 182.05 217.515 182.05C218.091 182.05 218.579 182.154 218.979 182.362C219.379 182.57 219.675 182.826 219.867 183.13C220.067 183.434 220.175 183.738 220.191 184.042C220.199 184.122 220.175 184.186 220.119 184.234C220.063 184.282 219.995 184.306 219.915 184.306H219.339C219.259 184.306 219.199 184.29 219.159 184.258C219.119 184.226 219.079 184.162 219.039 184.066C218.903 183.682 218.711 183.41 218.463 183.25C218.215 183.082 217.903 182.998 217.527 182.998C217.031 182.998 216.635 183.154 216.339 183.466C216.051 183.77 215.895 184.238 215.871 184.87L215.859 185.302L215.871 185.71C215.895 186.35 216.051 186.822 216.339 187.126C216.627 187.43 217.023 187.582 217.527 187.582C217.903 187.582 218.215 187.502 218.463 187.342C218.711 187.174 218.903 186.898 219.039 186.514C219.079 186.418 219.119 186.354 219.159 186.322C219.199 186.282 219.259 186.262 219.339 186.262H219.915C219.995 186.262 220.063 186.29 220.119 186.346C220.175 186.394 220.199 186.458 220.191 186.538C220.175 186.834 220.067 187.138 219.867 187.45C219.675 187.754 219.379 188.01 218.979 188.218C218.587 188.426 218.099 188.53 217.515 188.53ZM222.864 188.41C222.784 188.41 222.716 188.386 222.66 188.338C222.612 188.282 222.588 188.214 222.588 188.134V180.166C222.588 180.086 222.612 180.022 222.66 179.974C222.716 179.918 222.784 179.89 222.864 179.89H223.428C223.508 179.89 223.572 179.918 223.62 179.974C223.676 180.022 223.704 180.086 223.704 180.166V184.342L226.068 182.374C226.092 182.358 226.132 182.326 226.188 182.278C226.244 182.238 226.296 182.21 226.344 182.194C226.4 182.178 226.468 182.17 226.548 182.17H227.184C227.256 182.17 227.316 182.194 227.364 182.242C227.412 182.29 227.436 182.35 227.436 182.422C227.436 182.51 227.388 182.586 227.292 182.65L224.52 184.954L227.592 187.942C227.688 188.022 227.736 188.094 227.736 188.158C227.736 188.23 227.712 188.29 227.664 188.338C227.616 188.386 227.556 188.41 227.484 188.41H226.86C226.74 188.41 226.652 188.398 226.596 188.374C226.548 188.35 226.476 188.294 226.38 188.206L223.704 185.65V188.134C223.704 188.214 223.676 188.282 223.62 188.338C223.572 188.386 223.508 188.41 223.428 188.41H222.864ZM231.927 188.53C231.103 188.53 230.443 188.278 229.947 187.774C229.459 187.262 229.191 186.566 229.143 185.686L229.131 185.278L229.143 184.882C229.199 184.018 229.471 183.33 229.959 182.818C230.455 182.306 231.107 182.05 231.915 182.05C232.803 182.05 233.491 182.334 233.979 182.902C234.467 183.462 234.711 184.222 234.711 185.182V185.386C234.711 185.466 234.683 185.534 234.627 185.59C234.579 185.638 234.515 185.662 234.435 185.662H230.283V185.77C230.307 186.29 230.463 186.734 230.751 187.102C231.047 187.462 231.435 187.642 231.915 187.642C232.283 187.642 232.583 187.57 232.815 187.426C233.055 187.274 233.231 187.118 233.343 186.958C233.415 186.862 233.467 186.806 233.499 186.79C233.539 186.766 233.607 186.754 233.703 186.754H234.291C234.363 186.754 234.423 186.774 234.471 186.814C234.519 186.854 234.543 186.91 234.543 186.982C234.543 187.158 234.431 187.37 234.207 187.618C233.991 187.866 233.683 188.082 233.283 188.266C232.891 188.442 232.439 188.53 231.927 188.53ZM233.571 184.834V184.798C233.571 184.246 233.419 183.798 233.115 183.454C232.819 183.102 232.419 182.926 231.915 182.926C231.411 182.926 231.011 183.102 230.715 183.454C230.427 183.798 230.283 184.246 230.283 184.798V184.834H233.571ZM237.382 188.41C237.302 188.41 237.234 188.386 237.178 188.338C237.13 188.282 237.106 188.214 237.106 188.134V182.458C237.106 182.378 237.13 182.31 237.178 182.254C237.234 182.198 237.302 182.17 237.382 182.17H237.934C238.014 182.17 238.082 182.198 238.138 182.254C238.194 182.31 238.222 182.378 238.222 182.458V182.986C238.55 182.442 239.11 182.17 239.902 182.17H240.37C240.45 182.17 240.514 182.198 240.562 182.254C240.618 182.302 240.646 182.366 240.646 182.446V182.938C240.646 183.018 240.618 183.082 240.562 183.13C240.514 183.178 240.45 183.202 240.37 183.202H239.65C239.218 183.202 238.878 183.33 238.63 183.586C238.382 183.834 238.258 184.174 238.258 184.606V188.134C238.258 188.214 238.23 188.282 238.174 188.338C238.118 188.386 238.05 188.41 237.97 188.41H237.382Z" fill="#616161"/>
<path d="M44.9379 146.57C43.9246 146.57 43.0553 146.421 42.3299 146.122C41.6046 145.823 41.0553 145.434 40.6819 144.954C40.3193 144.463 40.1273 143.93 40.1059 143.354C40.1059 143.269 40.1379 143.194 40.2019 143.13C40.2766 143.055 40.3619 143.018 40.4579 143.018H42.4739C42.6019 143.018 42.7033 143.045 42.7779 143.098C42.8633 143.141 42.9486 143.21 43.0339 143.306C43.1726 143.583 43.3966 143.813 43.7059 143.994C44.0153 144.175 44.4259 144.266 44.9379 144.266C45.5459 144.266 46.0099 144.17 46.3299 143.978C46.6499 143.786 46.8099 143.525 46.8099 143.194C46.8099 142.959 46.7246 142.767 46.5539 142.618C46.3939 142.469 46.1379 142.335 45.7859 142.218C45.4339 142.101 44.9113 141.967 44.2179 141.818C42.9379 141.551 41.9779 141.162 41.3379 140.65C40.7086 140.127 40.3939 139.386 40.3939 138.426C40.3939 137.775 40.5753 137.194 40.9379 136.682C41.3006 136.17 41.8179 135.77 42.4899 135.482C43.1619 135.194 43.9459 135.05 44.8419 135.05C45.7699 135.05 46.5753 135.21 47.2579 135.53C47.9406 135.85 48.4579 136.255 48.8099 136.746C49.1726 137.226 49.3646 137.701 49.3859 138.17C49.3859 138.266 49.3539 138.346 49.2899 138.41C49.2259 138.474 49.1459 138.506 49.0499 138.506H46.9379C46.8099 138.506 46.7033 138.485 46.6179 138.442C46.5433 138.399 46.4739 138.33 46.4099 138.234C46.3459 137.989 46.1699 137.781 45.8819 137.61C45.6046 137.439 45.2579 137.354 44.8419 137.354C44.3619 137.354 43.9939 137.439 43.7379 137.61C43.4819 137.781 43.3539 138.031 43.3539 138.362C43.3539 138.586 43.4233 138.773 43.5619 138.922C43.7113 139.071 43.9459 139.21 44.2659 139.338C44.5966 139.455 45.0659 139.578 45.6739 139.706C46.6659 139.887 47.4553 140.117 48.0419 140.394C48.6393 140.661 49.0766 141.013 49.3539 141.45C49.6313 141.877 49.7699 142.415 49.7699 143.066C49.7699 143.781 49.5619 144.405 49.1459 144.938C48.7406 145.461 48.1699 145.866 47.4339 146.154C46.7086 146.431 45.8766 146.57 44.9379 146.57ZM53.9804 149.45C53.8844 149.45 53.8044 149.418 53.7404 149.354C53.6764 149.29 53.6444 149.21 53.6444 149.114C53.6444 149.039 53.6604 148.97 53.6924 148.906L54.9404 145.898L51.8684 138.634C51.8364 138.549 51.8204 138.485 51.8204 138.442C51.8418 138.346 51.8844 138.266 51.9484 138.202C52.0124 138.127 52.0924 138.09 52.1884 138.09H54.0124C54.2364 138.09 54.3911 138.202 54.4764 138.426L56.3004 143.082L58.1724 138.426C58.2791 138.202 58.4391 138.09 58.6524 138.09H60.4444C60.5404 138.09 60.6204 138.127 60.6844 138.202C60.7591 138.266 60.7964 138.341 60.7964 138.426C60.7964 138.469 60.7804 138.538 60.7484 138.634L56.2204 149.114C56.1351 149.338 55.9751 149.45 55.7404 149.45H53.9804ZM63.6553 146.41C63.538 146.41 63.442 146.373 63.3673 146.298C63.2926 146.223 63.2553 146.127 63.2553 146.01V138.49C63.2553 138.373 63.2926 138.277 63.3673 138.202C63.442 138.127 63.538 138.09 63.6553 138.09H65.3993C65.5166 138.09 65.6126 138.127 65.6873 138.202C65.762 138.277 65.7993 138.373 65.7993 138.49V139.034C66.0446 138.714 66.37 138.453 66.7753 138.25C67.1913 138.037 67.6553 137.93 68.1673 137.93C69.3406 137.93 70.1513 138.389 70.5993 139.306C70.8553 138.901 71.2126 138.57 71.6713 138.314C72.13 138.058 72.6206 137.93 73.1433 137.93C74.018 137.93 74.7273 138.229 75.2713 138.826C75.826 139.413 76.1033 140.293 76.1033 141.466V146.01C76.1033 146.117 76.066 146.213 75.9913 146.298C75.9166 146.373 75.8206 146.41 75.7033 146.41H73.8473C73.73 146.41 73.6286 146.373 73.5433 146.298C73.4686 146.223 73.4313 146.127 73.4313 146.01V141.578C73.4313 141.045 73.3193 140.661 73.0953 140.426C72.882 140.191 72.5886 140.074 72.2153 140.074C71.874 140.074 71.5913 140.197 71.3673 140.442C71.1433 140.677 71.0313 141.055 71.0313 141.578V146.01C71.0313 146.117 70.994 146.213 70.9193 146.298C70.8446 146.373 70.7486 146.41 70.6313 146.41H68.7753C68.658 146.41 68.562 146.373 68.4873 146.298C68.4126 146.223 68.3753 146.127 68.3753 146.01V141.578C68.3753 141.055 68.258 140.677 68.0233 140.442C67.7993 140.197 67.5113 140.074 67.1593 140.074C66.818 140.074 66.53 140.197 66.2953 140.442C66.0713 140.677 65.9593 141.05 65.9593 141.562V146.01C65.9593 146.117 65.922 146.213 65.8473 146.298C65.7726 146.373 65.6766 146.41 65.5593 146.41H63.6553ZM79.5916 149.45C79.4849 149.45 79.3889 149.413 79.3036 149.338C79.2289 149.263 79.1916 149.167 79.1916 149.05V138.49C79.1916 138.373 79.2289 138.277 79.3036 138.202C79.3889 138.127 79.4849 138.09 79.5916 138.09H81.3996C81.5169 138.09 81.6129 138.127 81.6876 138.202C81.7622 138.277 81.7996 138.373 81.7996 138.49V139.066C82.3756 138.309 83.2022 137.93 84.2796 137.93C85.3249 137.93 86.1409 138.255 86.7276 138.906C87.3142 139.557 87.6342 140.474 87.6876 141.658C87.6982 141.797 87.7036 141.994 87.7036 142.25C87.7036 142.506 87.6982 142.703 87.6876 142.842C87.6449 143.994 87.3249 144.906 86.7276 145.578C86.1302 146.239 85.3142 146.57 84.2796 146.57C83.2342 146.57 82.4556 146.213 81.9436 145.498V149.05C81.9436 149.167 81.9062 149.263 81.8316 149.338C81.7569 149.413 81.6609 149.45 81.5436 149.45H79.5916ZM83.4156 144.426C83.9169 144.426 84.2742 144.277 84.4876 143.978C84.7116 143.679 84.8396 143.269 84.8716 142.746C84.8929 142.533 84.9036 142.367 84.9036 142.25C84.9036 142.133 84.8929 141.967 84.8716 141.754C84.8396 141.231 84.7116 140.821 84.4876 140.522C84.2742 140.223 83.9169 140.074 83.4156 140.074C82.9249 140.074 82.5622 140.229 82.3276 140.538C82.1036 140.837 81.9756 141.226 81.9436 141.706L81.9276 142.298L81.9436 142.906C81.9649 143.343 82.0982 143.706 82.3436 143.994C82.5889 144.282 82.9462 144.426 83.4156 144.426ZM94.7744 146.41C92.5664 146.41 91.4624 145.359 91.4624 143.258V140.186H90.2144C90.0971 140.186 89.9958 140.149 89.9104 140.074C89.8358 139.999 89.7984 139.903 89.7984 139.786V138.49C89.7984 138.373 89.8358 138.277 89.9104 138.202C89.9958 138.127 90.0971 138.09 90.2144 138.09H91.4624V135.45C91.4624 135.333 91.4998 135.237 91.5744 135.162C91.6598 135.087 91.7558 135.05 91.8624 135.05H93.7184C93.8358 135.05 93.9318 135.087 94.0064 135.162C94.0811 135.237 94.1184 135.333 94.1184 135.45V138.09H96.1184C96.2358 138.09 96.3318 138.127 96.4064 138.202C96.4918 138.277 96.5344 138.373 96.5344 138.49V139.786C96.5344 139.903 96.4918 139.999 96.4064 140.074C96.3318 140.149 96.2358 140.186 96.1184 140.186H94.1184V143.034C94.1184 143.823 94.4224 144.218 95.0304 144.218H96.2624C96.3798 144.218 96.4758 144.255 96.5504 144.33C96.6251 144.405 96.6624 144.501 96.6624 144.618V146.01C96.6624 146.117 96.6251 146.213 96.5504 146.298C96.4758 146.373 96.3798 146.41 96.2624 146.41H94.7744ZM103.203 146.57C101.881 146.57 100.862 146.255 100.147 145.626C99.4325 144.997 99.0432 144.111 98.9792 142.97C98.9685 142.831 98.9632 142.591 98.9632 142.25C98.9632 141.909 98.9685 141.669 98.9792 141.53C99.0432 140.399 99.4432 139.519 100.179 138.89C100.915 138.25 101.923 137.93 103.203 137.93C104.494 137.93 105.507 138.25 106.243 138.89C106.979 139.519 107.379 140.399 107.443 141.53C107.454 141.669 107.459 141.909 107.459 142.25C107.459 142.591 107.454 142.831 107.443 142.97C107.379 144.111 106.99 144.997 106.275 145.626C105.561 146.255 104.537 146.57 103.203 146.57ZM103.203 144.618C103.673 144.618 104.019 144.479 104.243 144.202C104.467 143.914 104.595 143.477 104.627 142.89C104.638 142.783 104.643 142.57 104.643 142.25C104.643 141.93 104.638 141.717 104.627 141.61C104.595 141.034 104.462 140.602 104.227 140.314C104.003 140.026 103.662 139.882 103.203 139.882C102.318 139.882 101.849 140.458 101.795 141.61L101.779 142.25L101.795 142.89C101.817 143.477 101.939 143.914 102.163 144.202C102.398 144.479 102.745 144.618 103.203 144.618ZM110.728 146.41C110.611 146.41 110.515 146.373 110.44 146.298C110.366 146.223 110.328 146.127 110.328 146.01V138.49C110.328 138.373 110.366 138.277 110.44 138.202C110.515 138.127 110.611 138.09 110.728 138.09H112.472C112.59 138.09 112.686 138.127 112.76 138.202C112.835 138.277 112.872 138.373 112.872 138.49V139.034C113.118 138.714 113.443 138.453 113.848 138.25C114.264 138.037 114.728 137.93 115.24 137.93C116.414 137.93 117.224 138.389 117.672 139.306C117.928 138.901 118.286 138.57 118.744 138.314C119.203 138.058 119.694 137.93 120.216 137.93C121.091 137.93 121.8 138.229 122.344 138.826C122.899 139.413 123.176 140.293 123.176 141.466V146.01C123.176 146.117 123.139 146.213 123.064 146.298C122.99 146.373 122.894 146.41 122.776 146.41H120.92C120.803 146.41 120.702 146.373 120.616 146.298C120.542 146.223 120.504 146.127 120.504 146.01V141.578C120.504 141.045 120.392 140.661 120.168 140.426C119.955 140.191 119.662 140.074 119.288 140.074C118.947 140.074 118.664 140.197 118.44 140.442C118.216 140.677 118.104 141.055 118.104 141.578V146.01C118.104 146.117 118.067 146.213 117.992 146.298C117.918 146.373 117.822 146.41 117.704 146.41H115.848C115.731 146.41 115.635 146.373 115.56 146.298C115.486 146.223 115.448 146.127 115.448 146.01V141.578C115.448 141.055 115.331 140.677 115.096 140.442C114.872 140.197 114.584 140.074 114.232 140.074C113.891 140.074 113.603 140.197 113.368 140.442C113.144 140.677 113.032 141.05 113.032 141.562V146.01C113.032 146.117 112.995 146.213 112.92 146.298C112.846 146.373 112.75 146.41 112.632 146.41H110.728ZM135.719 146.57C134.194 146.57 132.999 146.202 132.135 145.466C131.282 144.719 130.828 143.642 130.775 142.234C130.764 141.946 130.759 141.477 130.759 140.826C130.759 140.165 130.764 139.685 130.775 139.386C130.828 137.999 131.292 136.933 132.167 136.186C133.042 135.429 134.226 135.05 135.719 135.05C136.658 135.05 137.5 135.21 138.247 135.53C138.994 135.839 139.58 136.287 140.007 136.874C140.444 137.45 140.668 138.127 140.679 138.906V138.938C140.679 139.023 140.642 139.098 140.567 139.162C140.503 139.215 140.428 139.242 140.343 139.242H138.183C138.044 139.242 137.938 139.215 137.863 139.162C137.788 139.098 137.724 138.986 137.671 138.826C137.522 138.282 137.287 137.903 136.967 137.69C136.647 137.466 136.226 137.354 135.703 137.354C134.444 137.354 133.794 138.058 133.751 139.466C133.74 139.754 133.735 140.197 133.735 140.794C133.735 141.391 133.74 141.845 133.751 142.154C133.794 143.562 134.444 144.266 135.703 144.266C136.226 144.266 136.652 144.154 136.983 143.93C137.314 143.695 137.543 143.317 137.671 142.794C137.714 142.634 137.772 142.527 137.847 142.474C137.922 142.41 138.034 142.378 138.183 142.378H140.343C140.439 142.378 140.519 142.41 140.583 142.474C140.658 142.538 140.69 142.618 140.679 142.714C140.668 143.493 140.444 144.175 140.007 144.762C139.58 145.338 138.994 145.786 138.247 146.106C137.5 146.415 136.658 146.57 135.719 146.57ZM143.865 146.41C143.759 146.41 143.663 146.373 143.577 146.298C143.503 146.213 143.465 146.117 143.465 146.01V135.45C143.465 135.333 143.503 135.237 143.577 135.162C143.663 135.087 143.759 135.05 143.865 135.05H145.913C146.031 135.05 146.127 135.087 146.201 135.162C146.276 135.237 146.313 135.333 146.313 135.45V139.018C146.953 138.293 147.796 137.93 148.841 137.93C149.46 137.93 150.009 138.069 150.489 138.346C150.98 138.623 151.364 139.034 151.641 139.578C151.919 140.122 152.057 140.778 152.057 141.546V146.01C152.057 146.117 152.02 146.213 151.945 146.298C151.871 146.373 151.775 146.41 151.657 146.41H149.593C149.487 146.41 149.391 146.373 149.305 146.298C149.231 146.213 149.193 146.117 149.193 146.01V141.642C149.193 141.141 149.071 140.757 148.825 140.49C148.591 140.213 148.244 140.074 147.785 140.074C147.327 140.074 146.964 140.213 146.697 140.49C146.441 140.757 146.313 141.141 146.313 141.642V146.01C146.313 146.127 146.276 146.223 146.201 146.298C146.127 146.373 146.031 146.41 145.913 146.41H143.865ZM158.992 146.57C157.712 146.57 156.704 146.223 155.968 145.53C155.232 144.837 154.848 143.829 154.816 142.506V141.946C154.858 140.687 155.248 139.706 155.984 139.002C156.73 138.287 157.728 137.93 158.976 137.93C159.882 137.93 160.645 138.117 161.264 138.49C161.893 138.853 162.362 139.354 162.672 139.994C162.992 140.634 163.152 141.37 163.152 142.202V142.586C163.152 142.693 163.114 142.789 163.04 142.874C162.965 142.949 162.869 142.986 162.752 142.986H157.632V143.098C157.653 143.599 157.776 144.005 158 144.314C158.224 144.623 158.549 144.778 158.976 144.778C159.242 144.778 159.461 144.725 159.632 144.618C159.802 144.501 159.957 144.362 160.096 144.202C160.192 144.085 160.266 144.015 160.32 143.994C160.384 143.962 160.48 143.946 160.608 143.946H162.592C162.688 143.946 162.768 143.978 162.832 144.042C162.906 144.095 162.944 144.17 162.944 144.266C162.944 144.543 162.784 144.863 162.464 145.226C162.154 145.589 161.701 145.903 161.104 146.17C160.506 146.437 159.802 146.57 158.992 146.57ZM160.336 141.402V141.37C160.336 140.847 160.213 140.437 159.968 140.138C159.733 139.829 159.402 139.674 158.976 139.674C158.56 139.674 158.229 139.829 157.984 140.138C157.749 140.437 157.632 140.847 157.632 141.37V141.402H160.336ZM169.756 146.57C168.55 146.57 167.574 146.25 166.828 145.61C166.081 144.959 165.681 144.058 165.628 142.906L165.612 142.266L165.628 141.61C165.67 140.458 166.065 139.557 166.812 138.906C167.569 138.255 168.55 137.93 169.756 137.93C170.662 137.93 171.425 138.095 172.044 138.426C172.673 138.746 173.137 139.135 173.436 139.594C173.745 140.042 173.91 140.453 173.932 140.826C173.942 140.933 173.905 141.029 173.82 141.114C173.745 141.189 173.649 141.226 173.532 141.226H171.5C171.382 141.226 171.292 141.199 171.228 141.146C171.164 141.093 171.105 141.013 171.052 140.906C170.924 140.575 170.758 140.341 170.556 140.202C170.364 140.063 170.113 139.994 169.804 139.994C168.929 139.994 168.476 140.559 168.444 141.69L168.428 142.298L168.444 142.826C168.465 143.402 168.588 143.829 168.812 144.106C169.046 144.373 169.377 144.506 169.804 144.506C170.134 144.506 170.396 144.437 170.588 144.298C170.78 144.159 170.934 143.925 171.052 143.594C171.105 143.487 171.164 143.407 171.228 143.354C171.292 143.301 171.382 143.274 171.5 143.274H173.532C173.638 143.274 173.729 143.311 173.804 143.386C173.889 143.45 173.932 143.535 173.932 143.642C173.932 143.983 173.782 144.383 173.484 144.842C173.196 145.301 172.737 145.706 172.108 146.058C171.478 146.399 170.694 146.57 169.756 146.57ZM177.049 146.41C176.942 146.41 176.846 146.373 176.761 146.298C176.686 146.213 176.649 146.117 176.649 146.01V135.45C176.649 135.333 176.686 135.237 176.761 135.162C176.846 135.087 176.942 135.05 177.049 135.05H178.905C179.022 135.05 179.118 135.087 179.193 135.162C179.268 135.237 179.305 135.333 179.305 135.45V140.81L181.529 138.362C181.55 138.341 181.588 138.303 181.641 138.25C181.705 138.197 181.769 138.159 181.833 138.138C181.897 138.106 181.972 138.09 182.057 138.09H184.201C184.297 138.09 184.377 138.127 184.441 138.202C184.516 138.266 184.553 138.346 184.553 138.442C184.553 138.559 184.51 138.65 184.425 138.714L181.545 141.818L184.825 145.802C184.91 145.887 184.953 145.967 184.953 146.042C184.953 146.149 184.916 146.239 184.841 146.314C184.777 146.378 184.692 146.41 184.585 146.41H182.393C182.254 146.41 182.148 146.389 182.073 146.346C182.009 146.303 181.929 146.234 181.833 146.138L179.305 143.098V146.01C179.305 146.117 179.268 146.213 179.193 146.298C179.118 146.373 179.022 146.41 178.905 146.41H177.049ZM190.753 146.57C189.473 146.57 188.465 146.223 187.729 145.53C186.993 144.837 186.609 143.829 186.577 142.506V141.946C186.62 140.687 187.009 139.706 187.745 139.002C188.492 138.287 189.489 137.93 190.737 137.93C191.644 137.93 192.407 138.117 193.025 138.49C193.655 138.853 194.124 139.354 194.433 139.994C194.753 140.634 194.913 141.37 194.913 142.202V142.586C194.913 142.693 194.876 142.789 194.801 142.874C194.727 142.949 194.631 142.986 194.513 142.986H189.393V143.098C189.415 143.599 189.537 144.005 189.761 144.314C189.985 144.623 190.311 144.778 190.737 144.778C191.004 144.778 191.223 144.725 191.393 144.618C191.564 144.501 191.719 144.362 191.857 144.202C191.953 144.085 192.028 144.015 192.081 143.994C192.145 143.962 192.241 143.946 192.369 143.946H194.353C194.449 143.946 194.529 143.978 194.593 144.042C194.668 144.095 194.705 144.17 194.705 144.266C194.705 144.543 194.545 144.863 194.225 145.226C193.916 145.589 193.463 145.903 192.865 146.17C192.268 146.437 191.564 146.57 190.753 146.57ZM192.097 141.402V141.37C192.097 140.847 191.975 140.437 191.729 140.138C191.495 139.829 191.164 139.674 190.737 139.674C190.321 139.674 189.991 139.829 189.745 140.138C189.511 140.437 189.393 140.847 189.393 141.37V141.402H192.097ZM198.093 146.41C197.976 146.41 197.88 146.373 197.805 146.298C197.731 146.223 197.693 146.127 197.693 146.01V138.49C197.693 138.373 197.731 138.277 197.805 138.202C197.88 138.127 197.976 138.09 198.093 138.09H199.933C200.051 138.09 200.147 138.133 200.221 138.218C200.307 138.293 200.349 138.383 200.349 138.49V139.13C200.936 138.437 201.725 138.09 202.717 138.09H203.421C203.539 138.09 203.635 138.127 203.709 138.202C203.784 138.277 203.821 138.373 203.821 138.49V140.138C203.821 140.245 203.784 140.341 203.709 140.426C203.635 140.501 203.539 140.538 203.421 140.538H201.869C201.432 140.538 201.091 140.661 200.845 140.906C200.611 141.141 200.493 141.477 200.493 141.914V146.01C200.493 146.127 200.451 146.223 200.365 146.298C200.291 146.373 200.195 146.41 200.077 146.41H198.093Z" fill="black"/>
<path d="M153.481 25.6102H132.053V72.4102H124.91V50.8102H117.767V72.4102H110.624V25.6102H89.1956V18.4102H153.481V25.6102ZM121.338 0.410156C123.233 0.410156 125.05 1.16873 126.389 2.51899C127.729 3.86925 128.481 5.7006 128.481 7.61016C128.481 9.51971 127.729 11.3511 126.389 12.7013C125.05 14.0516 123.233 14.8102 121.338 14.8102C119.444 14.8102 117.627 14.0516 116.288 12.7013C114.948 11.3511 114.196 9.51971 114.196 7.61016C114.196 3.61416 117.374 0.410156 121.338 0.410156Z" fill="#EC5863"/>
</svg>
